<svg width="80" height="80" viewBox="0 0 80 80" fill="none" xmlns="http://www.w3.org/2000/svg">
<rect width="80" height="80" rx="40" fill="#EE7C00"/>
<path fill-rule="evenodd" clip-rule="evenodd" d="M55.6668 19.3333C52.9054 19.3333 50.6668 21.5719 50.6668 24.3333C50.6668 24.8285 50.918 25.6537 51.5126 26.7694C52.0804 27.8346 52.857 28.9753 53.6634 30.0428C54.3753 30.9853 55.0904 31.8445 55.6668 32.5097C56.2433 31.8445 56.9583 30.9853 57.6703 30.0428C58.4766 28.9753 59.2533 27.8346 59.821 26.7694C60.4157 25.6537 60.6668 24.8285 60.6668 24.3333C60.6668 21.5719 58.4283 19.3333 55.6668 19.3333ZM55.6668 35C54.4612 36.1507 54.461 36.1506 54.4608 36.1503L54.4603 36.1498L54.454 36.1431L54.4372 36.1255C54.4229 36.1104 54.4025 36.0888 54.3764 36.0609C54.324 36.0051 54.2487 35.9243 54.1537 35.821C53.9638 35.6145 53.6945 35.3175 53.3723 34.9503C52.7296 34.2177 51.8685 33.197 51.0036 32.0519C50.1433 30.913 49.2533 29.6172 48.571 28.3372C47.9157 27.1077 47.3335 25.6792 47.3335 24.3333C47.3335 19.731 51.0645 16 55.6668 16C60.2692 16 64.0002 19.731 64.0002 24.3333C64.0002 25.6792 63.418 27.1077 62.7626 28.3372C62.0804 29.6172 61.1904 30.913 60.3301 32.0519C59.4651 33.197 58.6041 34.2177 57.9613 34.9503C57.6391 35.3175 57.3699 35.6145 57.1799 35.821C57.0849 35.9243 57.0096 36.0051 56.9573 36.0609C56.9311 36.0888 56.9107 36.1104 56.8965 36.1255L56.8797 36.1431L56.8734 36.1498L56.8728 36.1503C56.8726 36.1506 56.8725 36.1507 55.6668 35ZM55.6668 35L56.8728 36.1503L55.6668 37.4139L54.4608 36.1503L55.6668 35Z" fill="white"/>
<path fill-rule="evenodd" clip-rule="evenodd" d="M24.3333 41.3333C21.5719 41.3333 19.3333 43.5719 19.3333 46.3333C19.3333 46.8285 19.5845 47.6537 20.1791 48.7694C20.7469 49.8346 21.5235 50.9753 22.3299 52.0428C23.0419 52.9853 23.7569 53.8445 24.3333 54.5097C24.9098 53.8445 25.6248 52.9853 26.3368 52.0428C27.1431 50.9753 27.9198 49.8346 28.4875 48.7694C29.0822 47.6537 29.3333 46.8285 29.3333 46.3333C29.3333 43.5719 27.0948 41.3333 24.3333 41.3333ZM24.3333 57C23.1277 58.1507 23.1275 58.1506 23.1273 58.1503L23.1268 58.1498L23.1205 58.1431L23.1037 58.1255C23.0894 58.1104 23.069 58.0888 23.0429 58.0609C22.9905 58.0051 22.9152 57.9243 22.8202 57.821C22.6303 57.6145 22.361 57.3175 22.0388 56.9503C21.3961 56.2177 20.535 55.197 19.6701 54.0519C18.8098 52.913 17.9198 51.6172 17.2375 50.3372C16.5822 49.1077 16 47.6792 16 46.3333C16 41.731 19.731 38 24.3333 38C28.9357 38 32.6667 41.731 32.6667 46.3333C32.6667 47.6792 32.0845 49.1077 31.4291 50.3372C30.7469 51.6172 29.8569 52.913 28.9966 54.0519C28.1316 55.197 27.2706 56.2177 26.6278 56.9503C26.3056 57.3175 26.0364 57.6145 25.8465 57.821C25.7514 57.9243 25.6761 58.0051 25.6238 58.0609C25.5977 58.0888 25.5772 58.1104 25.563 58.1255L25.5462 58.1431L25.5399 58.1498L25.5394 58.1503C25.5392 58.1506 25.539 58.1507 24.3333 57ZM24.3333 57L25.5394 58.1503L24.3333 59.4139L23.1273 58.1503L24.3333 57Z" fill="white"/>
<path fill-rule="evenodd" clip-rule="evenodd" d="M42 37.9998C41.5902 37.9998 41.2035 38.0811 40.8521 38.2268C40.0018 38.5794 39.0267 38.176 38.6741 37.3257C38.3215 36.4754 38.725 35.5003 39.5752 35.1477C40.3243 34.8371 41.1443 34.6665 42 34.6665H43.8333C44.7538 34.6665 45.5 35.4127 45.5 36.3332C45.5 37.2536 44.7538 37.9998 43.8333 37.9998H42ZM46.5 36.3332C46.5 35.4127 47.2462 34.6665 48.1667 34.6665H50C50.9205 34.6665 51.6667 35.4127 51.6667 36.3332C51.6667 37.2536 50.9205 37.9998 50 37.9998H48.1667C47.2462 37.9998 46.5 37.2536 46.5 36.3332ZM36.9925 37.674C37.8428 38.0265 38.2462 39.0017 37.8937 39.8519C37.7479 40.2033 37.6667 40.59 37.6667 40.9998C37.6667 41.4097 37.7479 41.7963 37.8937 42.1478C38.2462 42.998 37.8428 43.9731 36.9925 44.3257C36.1423 44.6783 35.1672 44.2749 34.8146 43.4246C34.5039 42.6755 34.3333 41.8555 34.3333 40.9998C34.3333 40.1442 34.5039 39.3241 34.8146 38.5751C35.1672 37.7248 36.1423 37.3214 36.9925 37.674ZM38.6741 44.674C39.0267 43.8237 40.0018 43.4203 40.8521 43.7729C41.2035 43.9186 41.5902 43.9998 42 43.9998H44.1667C45.0871 43.9998 45.8333 44.746 45.8333 45.6665C45.8333 46.587 45.0871 47.3332 44.1667 47.3332H42C41.1443 47.3332 40.3243 47.1626 39.5752 46.8519C38.725 46.4993 38.3215 45.5242 38.6741 44.674ZM46.8333 45.6665C46.8333 44.746 47.5795 43.9998 48.5 43.9998H50.6667C51.7483 43.9998 52.7838 44.2154 53.7294 44.6075C54.5797 44.9601 54.9831 45.9352 54.6305 46.7855C54.2779 47.6358 53.3028 48.0392 52.4526 47.6866C51.9046 47.4594 51.3025 47.3332 50.6667 47.3332H48.5C47.5795 47.3332 46.8333 46.587 46.8333 45.6665ZM55.881 48.036C56.7313 47.6834 57.7064 48.0868 58.059 48.9371C58.4511 49.8827 58.6667 50.9182 58.6667 51.9998C58.6667 53.0815 58.4511 54.117 58.059 55.0626C57.7064 55.9128 56.7313 56.3163 55.881 55.9637C55.0307 55.6111 54.6273 54.636 54.9799 53.7857C55.2071 53.2378 55.3333 52.6357 55.3333 51.9998C55.3333 51.364 55.2071 50.7619 54.9799 50.2139C54.6273 49.3637 55.0307 48.3886 55.881 48.036ZM54.6305 57.2142C54.9831 58.0644 54.5797 59.0395 53.7294 59.3921C52.7838 59.7843 51.7483 59.9998 50.6667 59.9998H48.4167C47.4962 59.9998 46.75 59.2536 46.75 58.3332C46.75 57.4127 47.4962 56.6665 48.4167 56.6665H50.6667C51.3025 56.6665 51.9046 56.5403 52.4526 56.313C53.3028 55.9605 54.2779 56.3639 54.6305 57.2142ZM29 58.3332C29 57.4127 29.7462 56.6665 30.6667 56.6665H34.9167C35.8371 56.6665 36.5833 57.4127 36.5833 58.3332C36.5833 59.2536 35.8371 59.9998 34.9167 59.9998H30.6667C29.7462 59.9998 29 59.2536 29 58.3332ZM37.75 58.3332C37.75 57.4127 38.4962 56.6665 39.4167 56.6665H43.9167C44.8371 56.6665 45.5833 57.4127 45.5833 58.3332C45.5833 59.2536 44.8371 59.9998 43.9167 59.9998H39.4167C38.4962 59.9998 37.75 59.2536 37.75 58.3332Z" fill="white"/>
</svg>
