<svg width="80" height="80" viewBox="0 0 80 80" fill="none" xmlns="http://www.w3.org/2000/svg">
<rect width="80" height="80" rx="40" fill="#EE7C00"/>
<path fill-rule="evenodd" clip-rule="evenodd" d="M41.9857 20.6382C42.6876 20.6382 43.3305 21.0307 43.6513 21.655L49.9864 33.9849L62.3164 40.3201C62.9407 40.6409 63.3332 41.2838 63.3332 41.9857C63.3332 42.6876 62.9407 43.3305 62.3164 43.6513L49.9864 49.9864L43.6513 62.3164C43.3305 62.9407 42.6876 63.3332 41.9857 63.3332C41.2838 63.3332 40.6409 62.9407 40.3201 62.3164L33.9849 49.9864L21.655 43.6513C21.0307 43.3305 20.6382 42.6876 20.6382 41.9857C20.6382 41.2838 21.0307 40.6409 21.655 40.3201L33.9849 33.9849L40.3201 21.655C40.6409 21.0307 41.2838 20.6382 41.9857 20.6382ZM41.9857 26.6083L37.0413 36.2315C36.8625 36.5794 36.5794 36.8625 36.2315 37.0413L26.6083 41.9857L36.2315 46.9301C36.5794 47.1088 36.8625 47.392 37.0413 47.7399L41.9857 57.3631L46.9301 47.7399C47.1088 47.392 47.392 47.1088 47.7399 46.9301L57.3631 41.9857L47.7399 37.0413C47.392 36.8625 47.1088 36.5794 46.9301 36.2315L41.9857 26.6083Z" fill="white"/>
<path fill-rule="evenodd" clip-rule="evenodd" d="M26.0991 16.6665C26.8062 16.6665 27.454 17.0619 27.7771 17.6909L30.0614 22.1368L34.5074 24.4211C35.1363 24.7443 35.5317 25.392 35.5317 26.0991C35.5317 26.8062 35.1363 27.454 34.5074 27.7771L30.0614 30.0614L27.7771 34.5074C27.454 35.1363 26.8062 35.5317 26.0991 35.5317C25.392 35.5317 24.7443 35.1363 24.4211 34.5074L22.1368 30.0614L17.6909 27.7771C17.0619 27.454 16.6665 26.8062 16.6665 26.0991C16.6665 25.392 17.0619 24.7443 17.6909 24.4211L22.1368 22.1368L24.4211 17.6909C24.7443 17.0619 25.392 16.6665 26.0991 16.6665ZM26.0991 22.681L25.2159 24.4C25.0358 24.7505 24.7505 25.0358 24.4 25.2159L22.681 26.0991L24.4 26.9824C24.7505 27.1624 25.0358 27.4477 25.2159 27.7982L26.0991 29.5172L26.9824 27.7982C27.1624 27.4477 27.4477 27.1624 27.7982 26.9824L29.5172 26.0991L27.7982 25.2159C27.4477 25.0358 27.1624 24.7505 26.9824 24.4L26.0991 22.681Z" fill="white"/>
</svg>
