<svg width="80" height="80" viewBox="0 0 80 80" fill="none" xmlns="http://www.w3.org/2000/svg">
<rect width="80" height="80" rx="40" fill="#EE7C00"/>
<path fill-rule="evenodd" clip-rule="evenodd" d="M48.4153 57.7149C49.2476 57.323 50.0547 56.8723 50.8302 56.3648C51.6057 55.8573 52.3417 55.2981 53.034 54.6922C53.7706 54.0475 54.8903 54.122 55.535 54.8585C56.1797 55.5951 56.1052 56.7148 55.3686 57.3595C54.5527 58.0736 53.6852 58.7328 52.7713 59.3309C51.8574 59.929 50.9061 60.4601 49.9251 60.922C49.0395 61.3389 47.9836 60.959 47.5666 60.0733C47.1497 59.1877 47.5296 58.1318 48.4153 57.7149ZM45.1763 60.8141C45.3332 61.7803 44.6772 62.6908 43.711 62.8477C42.6408 63.0216 41.5559 63.1214 40.4639 63.1449C39.4852 63.166 38.6748 62.3897 38.6537 61.4111C38.6327 60.4325 39.4089 59.6221 40.3875 59.601C41.3141 59.5811 42.2346 59.4963 43.1427 59.3488C44.1089 59.1919 45.0194 59.8479 45.1763 60.8141ZM57.1706 52.9645C56.348 52.434 56.1113 51.337 56.6418 50.5144C57.1405 49.7413 57.5866 48.9317 57.9757 48.0906C58.3649 47.2494 58.6932 46.3853 58.9597 45.5048C59.2432 44.5679 60.2325 44.0382 61.1694 44.3217C62.1063 44.6052 62.636 45.5946 62.3525 46.5315C62.0384 47.5693 61.6514 48.5877 61.1928 49.579C60.7342 50.5703 60.2084 51.5246 59.6207 52.4358C59.0901 53.2584 57.9932 53.4951 57.1706 52.9645ZM61.5542 41.849C60.5755 41.8344 59.7939 41.0292 59.8084 40.0505C59.8221 39.1306 59.7719 38.2075 59.6567 37.2879C59.5415 36.3683 59.3625 35.4614 59.1224 34.5733C58.8668 33.6284 59.4257 32.6553 60.3706 32.3998C61.3155 32.1442 62.2887 32.7031 62.5442 33.648C62.8272 34.6947 63.0382 35.7636 63.1739 36.8474C63.3097 37.9312 63.3689 39.019 63.3528 40.1032C63.3382 41.082 62.533 41.8636 61.5542 41.849ZM59.3878 30.0983C58.5498 30.6042 57.4604 30.3349 56.9546 29.4969C56.4791 28.7093 55.9478 27.9528 55.3632 27.2337C54.7458 26.4741 54.861 25.3579 55.6205 24.7404C56.3801 24.123 57.4963 24.2382 58.1138 24.9977C58.8028 25.8452 59.429 26.7368 59.9893 27.6651C60.4951 28.5031 60.2259 29.5925 59.3878 30.0983Z" fill="white"/>
<path fill-rule="evenodd" clip-rule="evenodd" d="M38.9984 27.521C39.9773 27.521 40.7708 28.3145 40.7708 29.2934V40.0163L47.9725 46.3996C48.705 47.0489 48.7725 48.1691 48.1232 48.9016C47.4739 49.6341 46.3538 49.7016 45.6212 49.0523L37.2261 41.6112V29.2934C37.2261 28.3145 38.0196 27.521 38.9984 27.521Z" fill="white"/>
<path fill-rule="evenodd" clip-rule="evenodd" d="M55.3768 22.5336C55.4823 23.5067 54.7789 24.3811 53.8057 24.4866L45.0368 26.2056C44.0636 26.311 43.1892 25.6077 43.0837 24.6345C42.9783 23.6614 43.6816 22.7869 44.6548 22.6815L48.3094 21.5169C47.0851 20.9576 45.8031 20.5226 44.4826 20.2209C41.5489 19.5507 38.5013 19.5563 35.5702 20.2372C32.639 20.9181 29.901 22.2565 27.5632 24.1512C25.2253 26.0459 23.3489 28.4473 22.0756 31.1739C20.8024 33.9004 20.1657 36.8808 20.2138 39.8896C20.2618 42.8985 20.9932 45.857 22.3528 48.5415C23.7124 51.2261 25.6646 53.5664 28.0617 55.3855C30.4588 57.2047 33.2381 58.455 36.1895 59.042C37.1496 59.233 37.773 60.166 37.5821 61.1261C37.3911 62.0861 36.4581 62.7096 35.498 62.5187C32.0196 61.8268 28.744 60.3532 25.9188 58.2092C23.0937 56.0653 20.7929 53.307 19.1905 50.1431C17.5882 46.9792 16.7261 43.4923 16.6695 39.9462C16.6129 36.4001 17.3633 32.8875 18.8638 29.674C20.3644 26.4606 22.576 23.6303 25.3313 21.3973C28.0866 19.1643 31.3135 17.5869 34.7681 16.7844C38.2227 15.9819 41.8145 15.9753 45.272 16.7652C47.437 17.2598 49.5139 18.0585 51.4426 19.1324L50.1337 14.1466C50.0283 13.1735 50.7316 12.2991 51.7048 12.1936C52.6779 12.0881 53.5523 12.7915 53.6578 13.7646L55.3768 22.5336Z" fill="white"/>
</svg>
