<svg width="80" height="80" viewBox="0 0 80 80" fill="none" xmlns="http://www.w3.org/2000/svg">
<rect width="80" height="80" rx="40" fill="#EE7C00"/>
<path fill-rule="evenodd" clip-rule="evenodd" d="M30.4449 24.497H30.4298C24.9332 24.497 20.4772 29.0077 20.4772 34.5719V36.1403C20.4772 36.3424 20.4164 36.5396 20.3027 36.7058C19.0406 38.5512 19.1321 41.0181 20.5271 42.7627L20.9795 43.3284C18.3208 45.1948 16.6665 48.2906 16.6665 51.6707V51.8485C16.6665 57.455 21.1563 62 26.6948 62H53.9716C59.51 62 63.9998 57.455 63.9998 51.8485V51.6707C63.9998 48.2906 62.3456 45.1948 59.6868 43.3284L60.1392 42.7627C61.5343 41.0181 61.6257 38.5512 60.3636 36.7058C60.25 36.5396 60.1891 36.3424 60.1891 36.1403V34.5719C60.1891 29.0077 55.7332 24.497 50.2365 24.497H50.2215C49.3217 20.7677 45.9991 18 42.038 18H38.6284C34.6672 18 31.3447 20.7677 30.4449 24.497ZM34.6971 24.497H38.3275V22.0708C36.741 22.179 35.3843 23.136 34.6971 24.497ZM42.3388 22.0708V24.497H45.9693C45.282 23.136 43.9253 22.179 42.3388 22.0708ZM55.8856 41.6281L57.0214 40.2077C57.2957 39.8648 57.3136 39.3799 57.0656 39.0171C56.4875 38.1719 56.1778 37.1683 56.1778 36.1403V34.5719C56.1778 31.2503 53.5178 28.5576 50.2365 28.5576H30.4298C27.1485 28.5576 24.4885 31.2503 24.4885 34.5719V36.1403C24.4885 37.1683 24.1788 38.1719 23.6008 39.0171C23.3527 39.3799 23.3707 39.8648 23.6449 40.2077L24.7808 41.6281L26.9094 40.9331C27.7378 40.6625 28.2993 39.882 28.2993 39.0008V32.2121H52.3671V39.0008C52.3671 39.882 52.9286 40.6625 53.757 40.9331L55.8856 41.6281ZM24.7439 45.9068L24.605 45.9589C22.2446 46.8439 20.6778 49.1226 20.6778 51.6707V51.8485C20.6778 55.2124 23.3717 57.9394 26.6948 57.9394H53.9716C57.2947 57.9394 59.9885 55.2124 59.9885 51.8485V51.6707C59.9885 49.1226 58.4218 46.8439 56.0614 45.9589L55.9225 45.9068L52.5255 44.7976C50.0402 43.986 48.3558 41.6443 48.3558 39.0008V36.2727H32.3106V39.0008C32.3106 41.6443 30.6261 43.986 28.1408 44.7976L24.7439 45.9068Z" fill="white"/>
</svg>
