<svg width="80" height="80" viewBox="0 0 80 80" fill="none" xmlns="http://www.w3.org/2000/svg">
<rect width="80" height="80" rx="40" fill="#EE7C00"/>
<path fill-rule="evenodd" clip-rule="evenodd" d="M32.101 28.0355C34.0306 26.2806 37.1259 27.6541 37.1195 30.2623L37.102 37.3261L30.2303 37.3354C27.6083 37.3389 26.2438 34.2139 28.0286 32.2932L28.1938 32.1154L18.7543 23.2146C17.8223 22.3358 17.774 20.8624 18.6464 19.9237C19.5188 18.9849 20.9814 18.9363 21.9134 19.815L31.3529 28.7159L32.101 28.0355Z" fill="white"/>
<path fill-rule="evenodd" clip-rule="evenodd" d="M47.8834 52.3878C45.9538 54.1427 42.8584 52.7693 42.8649 50.161L42.8824 43.0972L49.7541 43.088C52.376 43.0844 53.7406 46.2094 51.9558 48.1301L51.7906 48.3079L61.2301 57.2088C62.162 58.0875 62.2103 59.5609 61.338 60.4996C60.4656 61.4384 59.003 61.4871 58.071 60.6083L48.6315 51.7074L47.8834 52.3878Z" fill="white"/>
<path fill-rule="evenodd" clip-rule="evenodd" d="M47.9058 28.0355C45.9763 26.2806 42.8809 27.6541 42.8873 30.2623L42.9048 37.3261L49.7766 37.3354C52.3985 37.3389 53.763 34.2139 51.9782 32.2932L51.813 32.1154L61.2526 23.2146C62.1845 22.3358 62.2328 20.8624 61.3604 19.9237C60.4881 18.9849 59.0254 18.9363 58.0935 19.815L48.6539 28.7159L47.9058 28.0355Z" fill="white"/>
<path fill-rule="evenodd" clip-rule="evenodd" d="M32.0785 52.3878C34.0081 54.1428 37.1035 52.7693 37.097 50.161L37.0796 43.0972L30.2078 43.088C27.5859 43.0844 26.2213 46.2095 28.0062 48.1301L28.1714 48.3079L18.7318 57.2088C17.7999 58.0875 17.7516 59.5609 18.6239 60.4996C19.4963 61.4384 20.959 61.4871 21.8909 60.6083L31.3304 51.7074L32.0785 52.3878Z" fill="white"/>
</svg>
