<svg width="268" height="101" viewBox="0 0 268 101" fill="none" xmlns="http://www.w3.org/2000/svg">
<path d="M31.8154 9.17292C33.7655 6.71718 35.1378 3.3947 34.7767 0C31.8876 0.144455 28.3484 1.87792 26.326 4.40589C24.5204 6.50049 22.8591 9.96743 23.2925 13.2177C26.5427 13.5066 29.793 11.5564 31.8154 9.17292Z" fill="white"/>
<path d="M95.5202 44.4923H95.6647L102.599 14.59H111.916L100.215 56.5543H91.4032L83.6749 27.8077H83.5304L75.802 56.5543H67.0625L55.3616 14.59H64.6068L71.5406 44.4923H71.6851L79.1967 14.59H88.0808L95.5202 44.4923Z" fill="white"/>
<path d="M259.116 31.4191V14.59H268V56.5543H259.188V38.6418H242.07V56.5543H233.331V14.59H242.07V31.4191H259.116Z" fill="white"/>
<path d="M163.27 21.6683H150.702V14.59H184.433V21.6683H171.937V56.5543H163.27V21.6683Z" fill="white"/>
<path fill-rule="evenodd" clip-rule="evenodd" d="M113.072 56.5543L126.578 14.59H136.979L150.413 56.5543H141.096L138.135 46.0091H124.845L121.811 56.5543H113.072ZM131.417 22.824L126.65 39.5086H136.257L131.562 22.824H131.417Z" fill="white"/>
<path d="M189.777 33.2248C189.777 21.235 196.35 14.0844 207.473 14.0844C217.802 14.0844 224.086 20.6571 224.086 28.7466V29.18H215.707C215.707 25.063 213.107 21.3794 207.545 21.3794C201.551 21.3794 198.589 25.3519 198.589 33.2248V37.9196C198.589 45.8646 201.551 49.6204 207.545 49.6204C213.613 49.6204 215.707 46.2257 215.707 41.8921H224.086V42.6144C224.086 50.1983 218.524 56.9877 207.401 56.9877C196.35 56.9877 189.777 50.0538 189.777 37.9196V33.2248Z" fill="white"/>
<path d="M80.5691 97.5074C77.8967 97.5074 76.5243 96.135 76.3799 94.546V94.4738H73.0574C73.1296 97.074 74.9353 100.18 80.2802 100.18C84.7583 100.18 87.7196 98.013 87.7196 94.2571C87.7196 91.0069 85.4806 89.6345 82.6637 88.9845L79.6301 88.2622C77.8966 87.9011 77.0299 87.0343 77.0299 85.8065C77.0299 84.1452 78.4745 83.134 80.5691 83.134C82.9526 83.134 84.1805 84.5064 84.3249 86.0231H87.5752C87.5029 82.5562 84.4694 80.4616 80.6413 80.4616C76.8855 80.4616 73.7074 82.484 73.7074 86.1676C73.7074 89.3456 75.8743 90.7902 78.4022 91.368L81.4358 92.0903C83.4582 92.5236 84.3971 93.3181 84.3971 94.6905C84.3971 96.4239 82.9526 97.5074 80.5691 97.5074Z" fill="white"/>
<path d="M94.7257 99.8186H106.716V97.0018H98.0482V91.5125H106.21V88.84H98.0482V83.6396H106.716V80.8228H94.7257V99.8186Z" fill="white"/>
<path fill-rule="evenodd" clip-rule="evenodd" d="M128.023 86.7455C128.023 89.8513 126.072 91.5125 124.556 92.0904L128.384 99.891H124.628L121.233 92.6682H117.477V99.891H114.155V80.8951H121.522C126 80.8228 128.023 83.4953 128.023 86.7455ZM121.017 89.9958C123.256 89.9958 124.556 88.9123 124.556 86.8177C124.556 84.6509 123.111 83.4953 121.089 83.4953H117.477V89.9235H121.017V89.9958Z" fill="white"/>
<path d="M135.39 80.8228V99.8186H138.785V80.8228H135.39Z" fill="white"/>
<path d="M158.792 99.8186H146.802V80.8228H158.792V83.6396H150.124V88.84H158.286V91.5125H150.124V97.0018H158.792V99.8186Z" fill="white"/>
<path d="M172.371 97.5074C169.698 97.5074 168.326 96.135 168.181 94.546V94.4738H164.859C164.931 97.074 166.737 100.18 172.082 100.18C176.56 100.18 179.521 98.013 179.521 94.2571C179.521 91.0069 177.282 89.6345 174.465 88.9845L171.432 88.2622C169.698 87.9011 168.831 87.0343 168.831 85.8065C168.831 84.1452 170.276 83.134 172.371 83.134C174.754 83.134 175.982 84.5064 176.126 86.0231H179.377C179.304 82.5562 176.271 80.4616 172.443 80.4616C168.687 80.4616 165.509 82.484 165.509 86.1676C165.509 89.3456 167.676 90.7902 170.204 91.368L173.237 92.0903C175.26 92.5236 176.199 93.3181 176.199 94.6905C176.199 96.4239 174.754 97.5074 172.371 97.5074Z" fill="white"/>
<path fill-rule="evenodd" clip-rule="evenodd" d="M201.984 85.4453C201.839 84.4341 200.828 83.134 199.022 83.134C196.567 83.134 194.978 85.662 194.906 90.1401H195.05C195.556 88.84 197.145 87.3955 199.6 87.3955C202.706 87.3955 205.667 89.5623 205.667 93.6071C205.667 97.7963 202.634 100.18 198.878 100.18C196.711 100.18 194.906 99.3853 193.605 97.8685C192.305 96.3517 191.655 93.9682 191.655 90.8624C191.655 84.0008 194.617 80.4616 199.095 80.4616C202.923 80.4616 205.017 83.134 205.162 85.4453H201.984ZM198.878 97.5074C200.756 97.5074 202.417 96.2795 202.417 93.7515C202.417 91.2958 200.684 89.9957 198.878 89.9957C196.928 89.9957 195.339 91.368 195.339 93.7515C195.339 96.2073 197 97.5074 198.878 97.5074Z" fill="white"/>
<path d="M27.1119 15.5529C29.2277 14.721 31.8456 13.6917 34.7045 13.8676C36.5824 13.9398 41.855 14.5177 45.2497 19.5736C45.2329 19.5862 45.1966 19.6099 45.1432 19.6448C44.282 20.2075 38.9701 23.6785 39.0381 30.48C39.1058 38.6023 45.7067 41.6502 46.5961 42.0609C46.6558 42.0884 46.6897 42.1041 46.6943 42.1086C46.6911 42.1181 46.6859 42.1345 46.6785 42.1576C46.5178 42.6609 45.3462 46.3305 42.7217 50.1981C40.3382 53.6651 37.8825 57.132 33.91 57.2042C32.0785 57.2395 30.831 56.7079 29.5309 56.154C28.1648 55.5719 26.7408 54.9652 24.5204 54.9652C22.153 54.9652 20.6615 55.5908 19.2278 56.1921C17.9933 56.7099 16.8017 57.2096 15.1307 57.2765C11.3027 57.4209 8.41357 53.5929 6.03006 50.0537C1.04634 42.9032 -2.63727 29.9744 2.41867 21.2348C4.87441 16.9012 9.42476 14.1565 14.264 14.0843C16.4055 14.0431 18.453 14.8472 20.2326 15.5461C21.5741 16.073 22.7634 16.54 23.7258 16.54C24.6014 16.54 25.7531 16.0872 27.1119 15.5529Z" fill="white"/>
</svg>
