<svg width="268" height="58" viewBox="0 0 268 58" fill="none" xmlns="http://www.w3.org/2000/svg">
<path d="M93.1604 32.3283C93.1604 35.972 90.3099 38.6572 86.8118 38.6572C83.3134 38.6572 80.4629 35.972 80.4629 32.3283C80.4629 28.6587 83.3134 25.9995 86.8118 25.9995C90.3099 25.9995 93.1604 28.6587 93.1604 32.3283V32.3283ZM90.3813 32.3283C90.3813 30.051 88.7292 28.4933 86.8115 28.4933C84.8941 28.4933 83.2422 30.0513 83.2422 32.3281C83.2422 34.5824 84.8941 36.1631 86.8118 36.1631C88.7292 36.1631 90.3813 34.5797 90.3813 32.3283Z" fill="white"/>
<path d="M106.856 32.3283C106.856 35.972 104.005 38.6572 100.507 38.6572C97.0082 38.6572 94.1577 35.972 94.1577 32.3283C94.1577 28.6616 97.0082 25.9995 100.507 25.9995C104.005 25.9995 106.856 28.6587 106.856 32.3283V32.3283ZM104.076 32.3283C104.076 30.051 102.424 28.4933 100.507 28.4933C98.5892 28.4933 96.9368 30.0513 96.9368 32.3281C96.9368 34.5824 98.5892 36.1631 100.507 36.1631C102.424 36.1631 104.076 34.5797 104.076 32.3283H104.076Z" fill="white"/>
<path d="M119.981 26.3819V37.7441C119.981 42.4178 117.225 44.3269 113.966 44.3269C110.899 44.3269 109.053 42.2752 108.357 40.5973L110.776 39.59C111.207 40.6203 112.263 41.8358 113.963 41.8358C116.049 41.8358 117.342 40.5489 117.342 38.1262V37.2161H117.245C116.623 37.9836 115.424 38.6542 113.912 38.6542C110.748 38.6542 107.849 35.8979 107.849 32.3511C107.849 28.7786 110.748 25.9995 113.912 25.9995C115.422 25.9995 116.62 26.6699 117.245 27.4146H117.342V26.3846H119.981V26.3819ZM117.539 32.3511C117.539 30.1225 116.052 28.4933 114.16 28.4933C112.243 28.4933 110.637 30.1225 110.637 32.3511C110.637 34.5567 112.243 36.1631 114.16 36.1631C116.052 36.1631 117.539 34.5567 117.539 32.3511V32.3511Z" fill="white"/>
<path d="M124.333 19.7217V38.2688H121.622V19.7217H124.333Z" fill="white"/>
<path d="M134.896 34.4104L137.054 35.8485C136.357 36.8785 134.679 38.6533 131.78 38.6533C128.185 38.6533 125.5 35.8739 125.5 32.3244C125.5 28.5609 128.208 25.9956 131.469 25.9956C134.753 25.9956 136.36 28.6093 136.885 30.0217L137.173 30.7408L128.713 34.2448C129.36 35.5145 130.368 36.1621 131.78 36.1621C133.195 36.1621 134.177 35.4661 134.896 34.4104V34.4104ZM128.256 32.1331L133.912 29.7849C133.601 28.9946 132.665 28.4439 131.563 28.4439C130.151 28.4439 128.185 29.6909 128.256 32.1334V32.1331Z" fill="white"/>
<path d="M70.2013 30.6817V27.9968H79.2495C79.3378 28.4646 79.3833 29.0183 79.3833 29.6174C79.3833 31.632 78.8328 34.1231 77.0578 35.8978C75.3318 37.6953 73.1259 38.6541 70.2042 38.6541C64.7885 38.6541 60.2344 34.2427 60.2344 28.8272C60.2344 23.4114 64.7885 19 70.2042 19C73.2003 19 75.3344 20.1756 76.9382 21.7079L75.0436 23.6025C73.8937 22.5241 72.3354 21.6851 70.2013 21.6851C66.2464 21.6851 63.1534 24.8723 63.1534 28.8272C63.1534 32.7819 66.2464 35.969 70.2013 35.969C72.7665 35.969 74.2274 34.939 75.1632 34.0032C75.9224 33.244 76.4217 32.1599 76.6184 30.679L70.2013 30.6817Z" fill="white"/>
<path d="M38.8815 11H3.91469C1.79147 11 0.0331749 12.7583 0.0331749 14.8815V20.7204H3.91469V14.8815H38.8815V42.0853H25.2796V45.9668H38.8815C41.0047 45.9668 42.763 44.2085 42.763 42.0853V14.8815C42.7962 12.7583 41.0379 11 38.8815 11ZM0 40.1611V46H5.83886C5.83886 42.782 3.25119 40.1611 0 40.1611ZM0 32.3981V36.2796C5.37441 36.2796 9.72038 40.6256 9.72038 46H13.6019C13.6019 38.4692 7.53081 32.3981 0 32.3981ZM0 24.6351V28.5166C9.65403 28.5166 17.4834 36.346 17.4834 46H21.3649C21.3981 34.1896 11.8104 24.6351 0 24.6351Z" fill="white"/>
<path d="M162.348 26.4723L162.239 28.074H162.348C162.967 27.0183 164.423 26.0718 166.025 26.0718C168.973 26.0718 170.429 28.074 170.429 30.9498V38.0482H168.245V31.2774C168.245 28.8748 167.044 28.074 165.369 28.074C163.476 28.074 162.312 29.8941 162.312 31.6414V38.0482H160.127V21.1211H162.312V26.4723H162.348Z" fill="white"/>
<path d="M172.723 38.0483V26.4724H174.798V28.3653H174.907C175.38 27.0548 177.055 26.1812 178.256 26.1812C178.984 26.1812 179.421 26.254 179.894 26.4724L179.057 28.5109C178.729 28.4017 178.365 28.3289 177.892 28.3289C176.399 28.3289 174.87 29.5666 174.87 31.7143V38.0483H172.723Z" fill="white"/>
<path d="M191.98 32.2597C191.98 35.7907 189.505 38.4481 186.01 38.4481C182.515 38.4481 180.04 35.7907 180.04 32.2597C180.04 28.7287 182.515 26.0713 186.01 26.0713C189.505 26.0713 191.98 28.7287 191.98 32.2597ZM189.796 32.2597C189.796 29.6023 187.939 28.0734 186.01 28.0734C184.081 28.0734 182.224 29.6023 182.224 32.2597C182.224 34.9171 184.081 36.446 186.01 36.446C187.976 36.446 189.796 34.9171 189.796 32.2597Z" fill="white"/>
<path d="M193.727 26.4717H195.802V28.0734H195.911C196.566 26.9813 198.095 26.0713 199.479 26.0713C201.372 26.0713 202.573 26.9085 203.155 28.2918C203.993 26.9814 205.412 26.0713 207.196 26.0713C210.035 26.0713 211.346 28.0734 211.346 30.9492V38.0477H209.162V31.2768C209.162 28.8743 208.252 28.0734 206.577 28.0734C204.793 28.0734 203.629 29.8936 203.629 31.6409V38.0477H201.444V31.2768C201.444 28.8743 200.534 28.0734 198.86 28.0734C197.076 28.0734 195.911 29.8936 195.911 31.6409V38.0477H193.727V26.4717V26.4717Z" fill="white"/>
<path d="M212.984 32.2597C212.984 28.9835 215.277 26.0713 218.663 26.0713C222.121 26.0713 224.341 28.5103 224.341 32.2597L224.305 32.6601H215.132C215.241 35.0991 217.025 36.446 218.808 36.446C220.082 36.446 221.356 35.9363 221.975 34.4438L223.905 35.2447C223.213 36.9192 221.502 38.4117 218.845 38.4117C215.35 38.4117 212.984 35.7543 212.984 32.2597ZM218.626 28.0734C217.025 28.0734 215.75 29.1655 215.314 30.8764H222.048C221.939 29.8571 221.102 28.0734 218.626 28.0734Z" fill="white"/>
<path d="M152.374 38.3762C149.935 38.3762 147.933 37.5754 146.294 35.9373C144.656 34.2992 143.855 32.2606 143.855 29.8217C143.855 27.3827 144.656 25.3442 146.294 23.7425C147.896 22.1043 149.935 21.2671 152.374 21.2671C154.849 21.2671 156.851 22.1771 158.38 23.9609L156.888 25.417C155.723 23.9973 154.194 23.3056 152.374 23.3056C150.554 23.3056 149.061 23.9245 147.823 25.1257C146.622 26.327 146.003 27.8923 146.003 29.8217C146.003 31.751 146.622 33.3163 147.823 34.5176C149.061 35.7553 150.554 36.3377 152.374 36.3377C154.267 36.3377 155.941 35.5368 157.324 33.9351L158.853 35.4276C158.089 36.3741 157.106 37.0657 155.977 37.5754C154.885 38.1214 153.684 38.3762 152.374 38.3762Z" fill="white"/>
<path d="M225.543 32.2968C225.543 28.7658 228.018 26.1084 231.513 26.1084C234.28 26.1084 235.881 27.7465 236.609 29.4574L234.607 30.2947C234.025 28.9114 232.969 28.1105 231.367 28.1105C229.511 28.1105 227.727 29.785 227.727 32.2968C227.727 34.8086 229.547 36.4831 231.367 36.4831C232.969 36.4831 234.17 35.6458 234.716 34.2989L236.646 35.1362C235.954 36.8471 234.243 38.4852 231.513 38.4852C228.018 38.4852 225.543 35.7914 225.543 32.2968Z" fill="white"/>
<path d="M237.883 34.5904C237.883 31.9694 240.249 30.5497 242.98 30.5497C244.545 30.5497 245.673 30.9865 246.147 31.2414V30.9137C246.147 29.1664 244.727 28.1107 243.125 28.1107C241.924 28.1107 240.759 28.6932 240.359 29.7853L238.393 28.948C238.793 27.8923 240.177 26.145 243.089 26.145C245.928 26.145 248.258 27.8559 248.258 31.1321V38.1214H246.183V36.5197H246.074C245.419 37.5026 244.254 38.5218 242.252 38.5218C239.849 38.4854 237.883 37.0293 237.883 34.5904ZM246.11 33.0979C246.11 33.0979 245.164 32.3334 243.344 32.3334C241.05 32.3334 240.14 33.5711 240.14 34.6268C240.14 35.8645 241.414 36.4833 242.543 36.4833C244.29 36.4833 246.11 34.9908 246.11 33.0979Z" fill="white"/>
<path d="M249.532 35.1726L251.461 34.3718C252.08 35.8279 253.208 36.5559 254.628 36.5559C255.975 36.5559 256.921 35.9007 256.921 34.9178C256.921 34.3354 256.557 33.6801 255.356 33.3889L253.026 32.8064C251.971 32.5516 249.932 31.6052 249.932 29.5666C249.932 27.4553 252.116 26.1084 254.519 26.1084C256.521 26.1084 258.268 27.0185 258.996 28.8022L257.103 29.603C256.667 28.511 255.575 28.0741 254.446 28.0741C253.208 28.0741 252.153 28.6202 252.153 29.5666C252.153 30.2947 252.772 30.6951 253.682 30.9135L255.975 31.4596C258.268 32.0056 259.178 33.4253 259.178 34.845C259.178 36.8835 257.322 38.4852 254.592 38.4852C251.789 38.4852 250.223 36.8107 249.532 35.1726Z" fill="white"/>
<path d="M261.982 34.5901V28.5109H259.943V26.5452H261.982V23.0142H264.166V26.5452H267.005V28.5109H264.166V34.4445C264.166 35.755 264.712 36.3375 265.731 36.3375C266.132 36.3375 266.423 36.3011 266.714 36.1554L267.479 38.012C267.005 38.2304 266.459 38.3032 265.731 38.3032C263.256 38.3032 261.982 36.9563 261.982 34.5901Z" fill="white"/>
</svg>
