<svg width="144" height="58" viewBox="0 0 144 58" fill="none" xmlns="http://www.w3.org/2000/svg">
<g clip-path="url(#clip0)">
<path d="M19.7333 10C17.7667 10 15.6667 10 13.6667 10C13.6667 18.2333 13.6333 23.5667 13.6333 31.8333C11.0333 23.7667 8.43333 18.4667 5.83333 10C3.6 10 2.23333 10 0 10C0 22.8667 0 35.7667 0 48.6333C1.96667 48.3667 4.06667 48.1 6.03333 47.8333C6.03333 39.7667 6.03333 34.8 6.06667 26.7C8.76667 34.6667 10.4333 39.3333 13.1333 46.9C15.2333 46.6667 17.5667 46.3667 19.7 46.1333C19.7 34.1 19.7333 22.0667 19.7333 10Z" fill="white"/>
<path d="M42.3999 10C36.7665 10 31.2332 10 25.5999 10C25.5665 21.9 25.5665 33.7667 25.5332 45.6667C31.1665 45.1667 36.7665 44.7333 42.3999 44.4C42.3999 42.6667 42.3999 40.1667 42.3999 38.4333C38.7332 38.6667 35.2332 38.9 31.5999 39.1333C31.5999 35.9333 31.5999 33.3 31.6332 30.1C34.2999 30.0667 37.0999 30.1 39.8332 30.0333C39.8332 28.3 39.8332 25.7667 39.8332 24.0333C37.1332 24.0667 34.2999 24.1 31.6332 24.1333C31.6332 20.9333 31.6332 19.2 31.6665 16C33.3332 15.9667 34.9665 15.9667 36.5999 15.9667C36.8999 15.9667 37.1665 15.9667 37.4665 15.9667C37.7665 15.9667 38.0332 15.9667 38.3332 15.9667C39.6999 15.9667 41.0665 15.9667 42.4665 15.9667C42.4332 14.2333 42.3999 11.7333 42.3999 10Z" fill="white"/>
<path d="M65.0335 10.0332C58.8668 10.0332 52.5002 10.0332 46.3335 10.0332C46.3335 11.7665 46.3335 14.2332 46.3335 15.9665C46.6002 15.9665 46.8668 15.9665 47.1335 15.9665C47.9335 15.9665 48.7668 15.9665 49.5668 15.9665C50.3668 15.9665 51.2002 15.9665 52.0002 15.9665C52.2002 15.9665 52.4002 15.9665 52.6335 15.9665C52.6335 25.5332 52.6002 34.2999 52.6002 43.8665C54.5668 43.7999 56.7002 43.7332 58.6668 43.6665C58.6668 34.1332 58.7002 25.4332 58.7002 15.8999C60.8002 15.8999 62.9335 15.8999 65.0335 15.8665C65.0335 14.2665 65.0335 11.7332 65.0335 10.0332Z" fill="white"/>
<path d="M85.8335 10C80.2001 10 74.6001 10 68.9668 10C68.9668 21.2 68.9668 32.3667 68.9668 43.5667C69.6335 43.5667 70.2668 43.5667 70.9335 43.5667C72.2668 43.5667 73.6335 43.5667 74.9668 43.5667C74.9668 38.8333 74.9668 34.5 74.9668 29.7333C75.3001 29.7333 75.6335 29.7333 75.9668 29.7333C76.7668 29.7333 77.5335 29.7333 78.3335 29.7333C79.1335 29.7333 79.9335 29.7333 80.7335 29.7333C81.5668 29.7333 82.3668 29.7333 83.1668 29.7333C83.1668 28.0333 83.1668 25.5 83.1668 23.8C82.4001 23.8 81.6335 23.8 80.8668 23.8C80.0335 23.8 79.2001 23.8 78.3668 23.8C77.5335 23.8 76.7001 23.8 75.9001 23.8C75.6001 23.8 75.2668 23.8 74.9668 23.8C74.9668 20.7333 74.9668 19.0333 74.9668 15.9667C75.6335 15.9667 76.3001 15.9667 76.9335 15.9667C77.6001 15.9667 78.2668 15.9667 78.9335 15.9667C79.6001 15.9667 80.2668 15.9667 80.9335 15.9667C82.5668 15.9667 84.2001 15.9667 85.8335 15.9667C85.8335 14.3 85.8335 11.7 85.8335 10Z" fill="white"/>
<path d="M89.7667 10.0332C89.7667 21.3332 89.7334 32.6332 89.7334 43.8999C95.1334 44.0999 100.8 44.3332 106.167 44.6999C106.167 42.9665 106.167 40.4665 106.167 38.7332C102.767 38.5332 99.2001 38.2999 95.8001 38.1665C95.8001 28.4999 95.8334 19.7332 95.8334 10.0332C93.8334 10.0332 91.7334 10.0332 89.7667 10.0332Z" fill="white"/>
<path d="M111.133 10.0332C111.167 21.6999 111.167 33.3999 111.2 45.0665C113.167 45.2332 115.233 45.3665 117.2 45.5665C117.2 33.7332 117.233 21.8665 117.2 10.0332C115.233 10.0332 113.133 10.0332 111.133 10.0332Z" fill="white"/>
<path d="M122.4 10.0332C124.833 15.9332 127.033 21.8665 129.5 28.1332C126.933 34.1665 124.333 40.1332 121.767 45.9332C123.9 46.1332 126.067 46.4332 128.2 46.6999C129.733 42.9665 131.1 40.0999 132.633 36.2999C134.133 40.3665 135.533 43.5332 137.033 47.7332C139.133 47.9999 141.867 48.3999 144 48.6999C141.433 41.8665 138.633 34.7332 136.067 28.2999C138.633 22.2332 141.233 16.4332 143.9 10.0999C141.7 10.0999 139.467 10.0999 137.267 10.0999C135.633 14.0332 134.5 16.5332 132.933 20.2665C131.467 16.3999 130.5 13.8665 129 10.0999C126.833 10.0332 124.6 10.0332 122.4 10.0332Z" fill="white"/>
</g>
<defs>
<clipPath id="clip0">
<rect width="144" height="38.6333" fill="white" transform="translate(0 10)"/>
</clipPath>
</defs>
</svg>
