<svg width="223" height="58" viewBox="0 0 223 58" fill="none" xmlns="http://www.w3.org/2000/svg">
<g clip-path="url(#clip0)">
<path d="M12.1855 22.3213C15.802 22.3213 18.817 24.18 20.221 26.1887V22.823H25.7447V47.9328H21.9933C21.0146 47.9328 20.221 47.1406 20.221 46.1608V44.5706C18.817 46.5776 15.802 48.4349 12.1855 48.4349C5.30762 48.4349 0.0830078 42.5605 0.0830078 35.3788C0.0830078 28.1971 5.30762 22.3213 12.1855 22.3213ZM13.1904 27.3441C8.72008 27.3441 5.70651 30.8586 5.70651 35.3788C5.70651 39.8976 8.72008 43.4143 13.1904 43.4143C17.6593 43.4143 20.6743 39.8976 20.6743 35.3788C20.6743 30.8586 17.6596 27.3441 13.1904 27.3441Z" fill="white"/>
<path d="M32.0181 22.824H37.5432V26.2387C39.0484 23.7286 41.9123 22.3223 45.1767 22.3223C51.0012 22.3223 54.7688 26.4402 54.7688 32.8186V47.933H51.016C50.0376 47.933 49.2437 47.1394 49.2437 46.161V33.7226C49.2437 29.7557 47.2339 27.3451 44.0222 27.3451C40.3558 27.3451 37.5434 30.2075 37.5434 35.5799V47.933H33.789C32.8119 47.933 32.0181 47.1394 32.0181 46.161V22.824V22.824Z" fill="white"/>
<path d="M71.2418 22.3213C74.8569 22.3213 77.8719 24.18 79.2773 26.1887V10.2695H84.7996V47.9328H81.0482C80.0712 47.9328 79.2773 47.1406 79.2773 46.1608V44.5706C77.8719 46.5776 74.8569 48.4349 71.2418 48.4349C64.3608 48.4349 59.1382 42.5605 59.1382 35.3788C59.1382 28.1971 64.3611 22.3213 71.2418 22.3213ZM72.247 27.3441C67.778 27.3441 64.7645 30.8586 64.7645 35.3788C64.7645 39.8976 67.778 43.4143 72.247 43.4143C76.7142 43.4143 79.7278 39.8976 79.7278 35.3788C79.7278 30.8586 76.7142 27.3441 72.247 27.3441Z" fill="white"/>
<path d="M91.0742 22.8241H96.5979V27.2936C97.5515 24.4311 100.364 22.5732 103.228 22.5732C103.929 22.5732 104.635 22.624 105.387 22.7742V28.4485C104.431 28.1468 103.63 27.9966 102.626 27.9966C99.4618 27.9966 96.5982 30.6595 96.5982 35.6812V47.9331H92.8454C91.8684 47.9331 91.0745 47.1395 91.0745 46.1611V22.8241H91.0742Z" fill="white"/>
<path d="M120.282 48.4349C112.851 48.4349 107.125 42.6586 107.125 35.3802C107.125 28.0981 112.851 22.3213 120.282 22.3213C127.716 22.3213 133.439 28.0967 133.439 35.3802C133.439 42.6586 127.716 48.4349 120.282 48.4349ZM120.282 43.3145C124.701 43.3145 127.816 39.8477 127.816 35.3802C127.816 30.9115 124.701 27.4447 120.282 27.4447C115.813 27.4447 112.7 30.9115 112.7 35.3802C112.7 39.8477 115.813 43.3145 120.282 43.3145Z" fill="white"/>
<path d="M140.678 17.3507C138.67 17.3507 136.962 15.6952 136.962 13.6338C136.962 11.6252 138.67 9.96826 140.678 9.96826C142.736 9.96826 144.344 11.6254 144.344 13.6338C144.344 15.6952 142.736 17.3507 140.678 17.3507ZM137.918 22.8231H143.441V47.9329H139.689C138.711 47.9329 137.918 47.1376 137.918 46.1609V22.8231Z" fill="white"/>
<path d="M160.082 22.3213C163.699 22.3213 166.712 24.18 168.119 26.1887V10.2695H173.643V47.9328H169.891C168.911 47.9328 168.119 47.1406 168.119 46.1608V44.5706C166.712 46.5776 163.699 48.4349 160.082 48.4349C153.204 48.4349 147.981 42.5605 147.981 35.3788C147.981 28.1971 153.204 22.3213 160.082 22.3213ZM161.087 27.3441C156.62 27.3441 153.607 30.8586 153.607 35.3788C153.607 39.8976 156.62 43.4143 161.087 43.4143C165.558 43.4143 168.571 39.8976 168.571 35.3788C168.571 30.8586 165.558 27.3441 161.087 27.3441Z" fill="white"/>
<path d="M183.247 26.0178H177.842V22.6859H183.247V15.665H186.781V22.6859H194.155V26.0178H186.781V40.6134C186.781 43.6931 188.146 44.9048 190.973 44.9048C191.982 44.9048 193.347 44.7024 194.155 44.3504V47.5312C192.991 47.9861 191.781 48.1882 190.417 48.1882C186.125 48.1882 183.247 45.7118 183.247 40.9142V26.0178V26.0178Z" fill="white"/>
<path d="M222.89 22.6851L211.074 47.9359H208.296L196.479 22.6851H200.418L209.659 42.7336L218.901 22.6851H222.89Z" fill="white"/>
</g>
<defs>
<clipPath id="clip0">
<rect width="223" height="38.4675" fill="white" transform="translate(0 10)"/>
</clipPath>
</defs>
</svg>
