<svg width="486" height="62" viewBox="0 0 486 62" fill="none" xmlns="http://www.w3.org/2000/svg">
<path d="M91.9086 45.8379H70.1927L64.984 61.2134H55.783L76.3527 4.33594H85.9045L106.474 61.2134H97.1173L91.9086 45.8379ZM72.4461 38.7458H89.6551L81.1715 13.7948H80.9376L72.4461 38.7458Z" fill="black"/>
<path d="M111.012 8.78939C111.012 6.07241 113.219 3.90039 115.948 3.90039C118.67 3.90039 120.884 6.07241 120.884 8.78939C120.884 11.4674 118.677 13.6784 115.948 13.6784C113.227 13.6784 111.012 11.4674 111.012 8.78939ZM111.683 19.7429H120.213V61.206H111.683V19.7429Z" fill="black"/>
<path d="M129.75 19.7437H137.882V26.797H138.077C139.457 21.9469 143.169 19.0742 148.066 19.0742C149.29 19.0742 150.358 19.2688 150.99 19.3934V27.3186C150.319 27.0461 148.822 26.8437 147.161 26.8437C141.672 26.8437 138.28 30.5104 138.28 36.3803V61.2146H129.75V19.7437Z" fill="black"/>
<path d="M179.474 4.33594C190.531 4.33594 198.227 11.9419 198.227 23.02C198.227 34.137 190.375 41.7819 179.201 41.7819H166.959V61.2134H158.117V4.33594H179.474ZM166.959 34.3706H177.104C184.8 34.3706 189.182 30.229 189.182 23.0589C189.182 15.8889 184.8 11.7862 177.142 11.7862H166.959V34.3706Z" fill="black"/>
<path d="M200.738 40.4828C200.738 27.1626 208.598 19.0039 220.434 19.0039C232.271 19.0039 240.138 27.1548 240.138 40.4828C240.138 53.8419 232.325 62.0006 220.442 62.0006C208.559 62.0006 200.738 53.8419 200.738 40.4828ZM231.452 40.4828C231.452 31.2965 227.109 26.0182 220.434 26.0182C213.76 26.0182 209.416 31.2965 209.416 40.4828C209.416 49.7081 213.76 54.9863 220.434 54.9863C227.148 54.9863 231.452 49.7003 231.452 40.4828Z" fill="black"/>
<path d="M245.043 40.4818C245.043 27.3952 251.991 19.0808 262.416 19.0808C268.373 19.0808 273.114 22.078 275.445 26.6478H275.601V4.33594H284.171V61.2134H275.874V54.1601H275.718C273.27 58.8934 268.537 61.9218 262.494 61.9218C251.991 61.9218 245.043 53.5607 245.043 40.4818ZM253.768 40.4818C253.768 49.2322 257.995 54.7129 264.747 54.7129C271.297 54.7129 275.679 49.1544 275.679 40.4818C275.679 31.8872 271.297 26.2508 264.747 26.2508C257.987 26.2508 253.768 31.7704 253.768 40.4818Z" fill="black"/>
<path d="M306.393 18.9961C316.062 18.9961 322.339 24.36 322.62 32.0049H314.604C314.128 27.9878 311.173 25.4655 306.393 25.4655C301.777 25.4655 298.697 27.7153 298.697 31.024C298.697 33.6242 300.592 35.3992 305.091 36.4268L311.844 37.9604C320.335 39.93 323.571 43.2387 323.571 49.2332C323.571 56.8002 316.507 62.0006 306.713 62.0006C296.327 62.0006 290.089 56.917 289.301 49.0308H297.746C298.533 53.367 301.496 55.4923 306.705 55.4923C311.836 55.4923 314.994 53.367 314.994 49.9727C314.994 47.2947 313.458 45.7143 308.912 44.6867L302.159 43.1141C294.26 41.3002 290.354 37.5167 290.354 31.4833C290.362 24.0797 296.841 18.9961 306.393 18.9961Z" fill="black"/>
<path d="M393.397 61.2134V19.3533H393.124L375.954 61.2134H369.405L352.196 19.3533H351.923V61.2134H343.868V4.33594H354.09L372.524 49.6604H372.843L391.237 4.33594H401.499V61.2134H393.397Z" fill="black"/>
<path d="M408.181 49.4278C408.181 42.1721 413.749 37.7191 423.62 37.1664L434.989 36.4968V33.305C434.989 28.6962 431.87 25.9326 426.661 25.9326C421.726 25.9326 418.646 28.2992 417.897 32.0049H409.842C410.318 24.5157 416.712 18.9961 426.973 18.9961C437.04 18.9961 443.473 24.3133 443.473 32.6355V61.2143H435.301V54.3946H435.106C432.697 59.0034 427.449 61.9228 421.999 61.9228C413.866 61.9228 408.181 56.8781 408.181 49.4278ZM434.989 45.6832V42.4135L424.767 43.0441C419.675 43.4022 416.79 45.6443 416.79 49.1942C416.79 52.8221 419.792 55.1887 424.369 55.1887C430.334 55.1809 434.989 51.0782 434.989 45.6832Z" fill="black"/>
<path d="M467.091 45.9544L457.89 61.2053H448.65L462.35 40.5127L448.853 19.7422H458.405L467.481 34.7595H467.637L476.596 19.7422H485.992L472.37 40.2402L485.828 61.2053H476.433L467.27 45.9544H467.091Z" fill="black"/>
<path d="M34.2074 9.88699C36.3361 7.22451 37.7864 3.65118 37.4043 0C34.2853 0.155701 30.4802 2.05525 28.2735 4.71773C26.293 6.99874 24.5463 10.72 24.9986 14.2233C28.4996 14.5269 32.0007 12.4716 34.2074 9.88699Z" fill="black"/>
<path d="M37.3653 14.9013C32.2814 14.5977 27.9538 17.7817 25.5288 17.7817C23.0959 17.7817 19.3766 15.0492 15.3609 15.127C10.1288 15.2049 5.27096 18.1554 2.61202 22.8576C-2.85399 32.2619 1.16949 46.2127 6.48736 53.8654C9.06832 57.6567 12.1795 61.8294 16.2732 61.6737C20.1485 61.5258 21.6612 59.167 26.3709 59.167C31.0727 59.167 32.4373 61.6737 36.5388 61.5959C40.7884 61.518 43.4473 57.8046 46.0283 54.0133C48.9913 49.6926 50.1999 45.5198 50.2779 45.294C50.1999 45.2162 42.0828 42.11 42.0048 32.7835C41.9268 24.9751 48.3831 21.2616 48.6794 21.0281C45.0302 15.6642 39.3381 15.057 37.3653 14.9013Z" fill="black"/>
</svg>
