<svg width="46" height="46" viewBox="0 0 46 46" fill="none" xmlns="http://www.w3.org/2000/svg">
<path fill-rule="evenodd" clip-rule="evenodd" d="M40.4396 1.51648H5.56044C3.32702 1.51648 1.51648 3.32702 1.51648 5.56044V40.4396C1.51648 42.673 3.32702 44.4835 5.56044 44.4835H40.4396C42.673 44.4835 44.4835 42.673 44.4835 40.4396V5.56044C44.4835 3.32702 42.673 1.51648 40.4396 1.51648ZM5.56044 0C2.48949 0 0 2.48949 0 5.56044V40.4396C0 43.5105 2.48949 46 5.56044 46H40.4396C43.5105 46 46 43.5105 46 40.4396V5.56044C46 2.48949 43.5105 0 40.4396 0H5.56044Z" fill="white"/>
<path fill-rule="evenodd" clip-rule="evenodd" d="M9.09888 9.85718C7.56341 9.85718 6.31866 11.1019 6.31866 12.6374V16.6814C6.31866 17.6585 7.11078 18.4506 8.0879 18.4506C8.22748 18.4506 8.34064 18.5637 8.34064 18.7033V34.1209C8.34064 35.6564 9.58539 36.9011 11.1209 36.9011H35.3846C36.9201 36.9011 38.1648 35.6564 38.1648 34.1209V18.3349C39.1902 18.0128 39.934 17.0548 39.934 15.9231V12.6374C39.934 11.1019 38.6893 9.85718 37.1538 9.85718H9.09888ZM25.2747 18.4506H36.6483V34.1209C36.6483 34.8189 36.0825 35.3847 35.3846 35.3847H24.011V19.7143C24.011 19.0164 24.5768 18.4506 25.2747 18.4506ZM22.4945 19.7143V35.3847H11.1209C10.4229 35.3847 9.85713 34.8189 9.85713 34.1209V18.7033C9.85713 17.7262 9.06501 16.9341 8.0879 16.9341C7.94831 16.9341 7.83515 16.8209 7.83515 16.6814V12.6374C7.83515 11.9395 8.40094 11.3737 9.09888 11.3737H20.5165C22.7256 11.3737 24.5165 13.1645 24.5165 15.3737V17.0388C23.3495 17.3688 22.4945 18.4417 22.4945 19.7143ZM26.0329 16.9341H37.4066C37.9649 16.9341 38.4176 16.4815 38.4176 15.9231V12.6374C38.4176 11.9395 37.8518 11.3737 37.1538 11.3737H27.0439C27.0439 11.3737 25.7802 11.3737 25.2747 11.3737C25.2747 11.3737 26.0329 11.8792 26.0329 13.1429C26.0329 14.6594 26.0329 16.9341 26.0329 16.9341Z" fill="white"/>
</svg>
