<svg width="469" height="74" viewBox="0 0 469 74" fill="none" xmlns="http://www.w3.org/2000/svg">
<path d="M6.08008 15.344H13.0861L26.7881 34.378L40.4281 15.344H47.5581V58H39.9321V28.302L29.2061 43.244H24.3081L13.7061 28.302V58H6.08008V15.344Z" fill="white"/>
<path d="M57.3948 27H65.3308V58H57.3948V27ZM56.8368 18.444C56.8368 17.1213 57.2501 16.0467 58.0768 15.22C58.9448 14.352 60.0401 13.918 61.3628 13.918C62.6854 13.918 63.7601 14.352 64.5868 15.22C65.4548 16.0467 65.8888 17.1213 65.8888 18.444C65.8888 19.7667 65.4548 20.8413 64.5868 21.668C63.7601 22.4947 62.6854 22.908 61.3628 22.908C60.0401 22.908 58.9448 22.4947 58.0768 21.668C57.2501 20.8413 56.8368 19.7667 56.8368 18.444Z" fill="white"/>
<path d="M88.9886 48.39C92.9979 50.9527 96.9659 52.234 100.893 52.234C103.249 52.234 105.15 51.676 106.597 50.56C108.085 49.444 108.829 47.9767 108.829 46.158C108.829 44.7113 108.312 43.5747 107.279 42.748C106.287 41.88 105.005 41.1567 103.435 40.578C101.905 39.958 100.252 39.3793 98.4746 38.842C96.6973 38.2633 95.0233 37.4987 93.4526 36.548C91.9233 35.5973 90.6419 34.378 89.6086 32.89C88.6166 31.402 88.1206 29.418 88.1206 26.938C88.1206 25.1193 88.4926 23.466 89.2366 21.978C89.9806 20.4487 91.0139 19.1467 92.3366 18.072C93.7006 16.956 95.3126 16.1087 97.1726 15.53C99.0739 14.91 101.141 14.6 103.373 14.6C107.175 14.6 110.999 15.3853 114.843 16.956V24.334C113.024 23.2593 111.185 22.4533 109.325 21.916C107.506 21.3787 105.708 21.11 103.931 21.11C101.657 21.11 99.7973 21.6267 98.3506 22.66C96.9453 23.6933 96.2426 25.078 96.2426 26.814C96.2426 28.2193 96.7386 29.3353 97.7306 30.162C98.7639 30.9473 100.045 31.65 101.575 32.27C103.145 32.8487 104.819 33.4273 106.597 34.006C108.374 34.5433 110.027 35.308 111.557 36.3C113.127 37.2507 114.409 38.4907 115.401 40.02C116.434 41.5493 116.951 43.554 116.951 46.034C116.951 47.894 116.558 49.6093 115.773 51.18C115.029 52.7507 113.975 54.094 112.611 55.21C111.247 56.326 109.614 57.194 107.713 57.814C105.811 58.434 103.724 58.744 101.451 58.744C99.3839 58.744 97.2966 58.496 95.1886 58C93.1219 57.5453 91.0553 56.8427 88.9886 55.892V48.39Z" fill="white"/>
<path d="M123.996 27H131.932V29.48C133.296 28.364 134.702 27.558 136.148 27.062C137.636 26.5247 139.166 26.256 140.736 26.256C142.596 26.256 144.27 26.6487 145.758 27.434C147.288 28.2193 148.528 29.3767 149.478 30.906C152.578 27.806 156.009 26.256 159.77 26.256C161.3 26.256 162.684 26.5247 163.924 27.062C165.206 27.5993 166.301 28.3433 167.21 29.294C168.12 30.2447 168.822 31.3813 169.318 32.704C169.814 34.0267 170.062 35.494 170.062 37.106V58H162.126V38.346C162.126 36.858 161.672 35.6387 160.762 34.688C159.894 33.696 158.737 33.2 157.29 33.2C156.257 33.2 155.203 33.4687 154.128 34.006C153.054 34.502 152.02 35.2873 151.028 36.362V58H143.092V38.346C143.092 36.858 142.638 35.6387 141.728 34.688C140.819 33.696 139.641 33.2 138.194 33.2C137.161 33.2 136.107 33.4687 135.032 34.006C133.958 34.502 132.924 35.2873 131.932 36.362V58H123.996V27Z" fill="white"/>
<path d="M195.167 55.52C192.397 57.6693 189.421 58.744 186.239 58.744C184.792 58.744 183.469 58.5167 182.271 58.062C181.072 57.6073 180.039 56.9873 179.171 56.202C178.303 55.3753 177.621 54.404 177.125 53.288C176.629 52.1307 176.381 50.87 176.381 49.506C176.381 47.894 176.732 46.4267 177.435 45.104C178.179 43.74 179.212 42.5827 180.535 41.632C181.857 40.6813 183.428 39.9373 185.247 39.4C187.065 38.8627 189.091 38.594 191.323 38.594C191.943 38.594 192.563 38.6147 193.183 38.656C193.803 38.656 194.464 38.6767 195.167 38.718V37.292C195.167 35.8453 194.629 34.6673 193.555 33.758C192.48 32.8487 191.075 32.394 189.339 32.394C187.727 32.394 186.053 32.642 184.317 33.138C182.581 33.634 180.824 34.378 179.047 35.37V28.798C180.948 27.93 182.829 27.2893 184.689 26.876C186.549 26.4627 188.409 26.256 190.269 26.256C192.17 26.256 193.885 26.5453 195.415 27.124C196.944 27.6613 198.246 28.4467 199.321 29.48C200.395 30.472 201.222 31.6707 201.801 33.076C202.421 34.4813 202.731 36.0107 202.731 37.664V58H195.167V55.52ZM184.193 48.39C184.193 49.63 184.627 50.6427 185.495 51.428C186.363 52.2133 187.479 52.606 188.843 52.606C189.917 52.606 190.992 52.3373 192.067 51.8C193.183 51.2627 194.216 50.5187 195.167 49.568V43.492C194.051 43.368 192.893 43.306 191.695 43.306C189.463 43.306 187.644 43.7813 186.239 44.732C184.875 45.6827 184.193 46.902 184.193 48.39Z" fill="white"/>
<path d="M211.184 27H219.12V30.1C221.434 27.5373 223.977 26.256 226.746 26.256C227.201 26.256 227.634 26.2767 228.048 26.318C228.461 26.3593 228.895 26.442 229.35 26.566V33.634C228.482 33.386 227.552 33.262 226.56 33.262C225.237 33.262 223.914 33.6133 222.592 34.316C221.311 34.9773 220.153 35.9693 219.12 37.292V58H211.184V27Z" fill="white"/>
<path d="M246.294 27H255.222V33.386H246.294V47.708C246.294 48.9893 246.708 50.0433 247.534 50.87C248.361 51.6967 249.456 52.11 250.82 52.11C252.102 52.11 253.569 51.6967 255.222 50.87V57.442C252.99 58.31 250.82 58.744 248.712 58.744C247.183 58.744 245.778 58.496 244.496 58C243.256 57.504 242.182 56.822 241.272 55.954C240.363 55.0447 239.64 53.9907 239.102 52.792C238.606 51.552 238.358 50.2087 238.358 48.762V33.386H233.026V27H238.358V18.258H246.294V27Z" fill="white"/>
<path d="M286.473 51.738H294.285C296.31 51.738 297.922 51.1593 299.121 50.002C300.361 48.8447 300.981 47.3567 300.981 45.538C300.981 43.678 300.361 42.19 299.121 41.074C297.922 39.958 296.31 39.4 294.285 39.4H286.473V51.738ZM286.473 33.262H293.355C295.215 33.262 296.723 32.7247 297.881 31.65C299.079 30.5753 299.679 29.17 299.679 27.434C299.679 25.698 299.079 24.2927 297.881 23.218C296.723 22.1433 295.215 21.606 293.355 21.606H286.473V33.262ZM278.723 15.344H294.905C296.765 15.344 298.459 15.6333 299.989 16.212C301.559 16.7493 302.903 17.5347 304.019 18.568C305.135 19.56 306.003 20.7587 306.623 22.164C307.243 23.528 307.553 25.0367 307.553 26.69C307.553 28.8807 306.995 30.8233 305.879 32.518C304.804 34.1713 303.337 35.3907 301.477 36.176C303.833 36.92 305.672 38.2013 306.995 40.02C308.359 41.8387 309.041 43.926 309.041 46.282C309.041 48.018 308.71 49.6093 308.049 51.056C307.429 52.4613 306.54 53.6807 305.383 54.714C304.225 55.7473 302.841 56.5533 301.229 57.132C299.617 57.7107 297.86 58 295.959 58H278.723V15.344Z" fill="white"/>
<path d="M332.971 55.52C330.202 57.6693 327.226 58.744 324.043 58.744C322.597 58.744 321.274 58.5167 320.075 58.062C318.877 57.6073 317.843 56.9873 316.975 56.202C316.107 55.3753 315.425 54.404 314.929 53.288C314.433 52.1307 314.185 50.87 314.185 49.506C314.185 47.894 314.537 46.4267 315.239 45.104C315.983 43.74 317.017 42.5827 318.339 41.632C319.662 40.6813 321.233 39.9373 323.051 39.4C324.87 38.8627 326.895 38.594 329.127 38.594C329.747 38.594 330.367 38.6147 330.987 38.656C331.607 38.656 332.269 38.6767 332.971 38.718V37.292C332.971 35.8453 332.434 34.6673 331.359 33.758C330.285 32.8487 328.879 32.394 327.143 32.394C325.531 32.394 323.857 32.642 322.121 33.138C320.385 33.634 318.629 34.378 316.851 35.37V28.798C318.753 27.93 320.633 27.2893 322.493 26.876C324.353 26.4627 326.213 26.256 328.073 26.256C329.975 26.256 331.69 26.5453 333.219 27.124C334.749 27.6613 336.051 28.4467 337.125 29.48C338.2 30.472 339.027 31.6707 339.605 33.076C340.225 34.4813 340.535 36.0107 340.535 37.664V58H332.971V55.52ZM321.997 48.39C321.997 49.63 322.431 50.6427 323.299 51.428C324.167 52.2133 325.283 52.606 326.647 52.606C327.722 52.606 328.797 52.3373 329.871 51.8C330.987 51.2627 332.021 50.5187 332.971 49.568V43.492C331.855 43.368 330.698 43.306 329.499 43.306C327.267 43.306 325.449 43.7813 324.043 44.732C322.679 45.6827 321.997 46.902 321.997 48.39Z" fill="white"/>
<path d="M348.989 27H356.925V29.666C359.777 27.3927 362.794 26.256 365.977 26.256C367.589 26.256 369.056 26.5247 370.379 27.062C371.743 27.5993 372.921 28.364 373.913 29.356C374.905 30.348 375.669 31.526 376.207 32.89C376.744 34.254 377.013 35.7627 377.013 37.416V58H369.015V38.842C369.015 37.1887 368.498 35.8453 367.465 34.812C366.473 33.7373 365.171 33.2 363.559 33.2C361.203 33.2 358.991 34.2953 356.925 36.486V58H348.989V27Z" fill="white"/>
<path d="M391.391 42.5C391.391 45.3107 392.094 47.584 393.499 49.32C394.905 51.056 396.744 51.924 399.017 51.924C401.291 51.924 403.337 50.994 405.155 49.134V35.866C403.337 34.006 401.291 33.076 399.017 33.076C396.744 33.076 394.905 33.944 393.499 35.68C392.094 37.416 391.391 39.6893 391.391 42.5ZM413.153 58H405.155V55.83C402.717 57.7727 400.092 58.744 397.281 58.744C395.215 58.744 393.313 58.3513 391.577 57.566C389.883 56.7393 388.415 55.6233 387.175 54.218C385.935 52.7713 384.964 51.056 384.261 49.072C383.6 47.088 383.269 44.8973 383.269 42.5C383.269 40.1027 383.6 37.912 384.261 35.928C384.964 33.944 385.935 32.2493 387.175 30.844C388.415 29.3973 389.883 28.2813 391.577 27.496C393.313 26.6693 395.215 26.256 397.281 26.256C400.051 26.256 402.675 27.2067 405.155 29.108V13.422H413.153V58Z" fill="white"/>
<path d="M460.082 15.344C456.486 18.1133 453.448 20.9653 450.968 23.9C448.529 26.8347 446.649 29.7487 445.326 32.642C447.475 31.154 449.811 30.41 452.332 30.41C454.316 30.41 456.114 30.7407 457.726 31.402C459.338 32.0633 460.723 32.9933 461.88 34.192C463.037 35.3907 463.926 36.8373 464.546 38.532C465.207 40.1853 465.538 42.004 465.538 43.988C465.538 46.1787 465.166 48.1833 464.422 50.002C463.678 51.7793 462.624 53.3293 461.26 54.652C459.896 55.9333 458.263 56.946 456.362 57.69C454.502 58.3927 452.456 58.744 450.224 58.744C448.033 58.744 446.029 58.3513 444.21 57.566C442.433 56.7393 440.903 55.6233 439.622 54.218C438.341 52.7713 437.328 51.056 436.584 49.072C435.881 47.0467 435.53 44.8147 435.53 42.376C435.53 37.788 436.77 33.1793 439.25 28.55C441.73 23.9207 445.305 19.5187 449.976 15.344H460.082ZM443.714 40.268C443.59 40.764 443.507 41.2807 443.466 41.818C443.425 42.314 443.404 42.8307 443.404 43.368C443.404 45.8893 444.045 47.956 445.326 49.568C446.649 51.1387 448.343 51.924 450.41 51.924C452.518 51.924 454.254 51.2213 455.618 49.816C456.982 48.3693 457.664 46.53 457.664 44.298C457.664 42.19 457.023 40.454 455.742 39.09C454.461 37.726 452.766 37.044 450.658 37.044C448.178 37.044 445.863 38.1187 443.714 40.268Z" fill="white"/>
</svg>
