<svg width="47" height="46" viewBox="0 0 47 46" fill="none" xmlns="http://www.w3.org/2000/svg">
<path fill-rule="evenodd" clip-rule="evenodd" d="M24.7986 15.7562C25.1884 15.3698 25.817 15.3699 26.2067 15.7565L29.1047 18.6308C29.4791 19.0021 29.5008 19.6004 29.1542 19.9979L12.3632 39.2574C11.9836 39.6928 11.3153 39.717 10.9052 39.3103L6.68816 35.1276C6.29368 34.7364 6.29378 34.0985 6.68838 33.7074L24.7986 15.7562Z" stroke="black" stroke-width="2"/>
<path d="M30.8056 8.93113C30.9127 8.82018 31.0592 8.75591 31.2134 8.75226C32.5115 8.7215 33.6785 9.13254 34.5349 9.95962C35.391 10.7863 35.8425 11.9376 35.8575 13.2352C35.8592 13.3894 35.8002 13.5381 35.693 13.6491L32.8157 16.6292C32.4321 17.0265 31.799 17.0376 31.4017 16.6539L27.954 13.3245C27.5568 12.9409 27.5457 12.3079 27.9292 11.9106L30.8056 8.93113Z" fill="black"/>
<path fill-rule="evenodd" clip-rule="evenodd" d="M39.7183 9.32692C39.3898 8.9653 38.7444 8.63387 37.7822 8.33264C38.4884 8.14298 39.0501 7.86734 39.4674 7.50572C39.8846 7.1441 40.2507 6.4822 40.5656 5.52002C40.9204 6.43841 41.3225 7.10031 41.772 7.50572C42.2214 7.91113 42.7315 8.18677 43.3022 8.33264C42.5667 8.63387 41.9903 8.9653 41.573 9.32692C41.1557 9.68854 40.8199 10.2596 40.5656 11.04C40.3293 10.2596 40.0469 9.68854 39.7183 9.32692Z" fill="black" stroke="black"/>
<path opacity="0.2" fill-rule="evenodd" clip-rule="evenodd" d="M30.1483 29.789C30.0388 29.6684 29.8237 29.558 29.5029 29.4576C29.7383 29.3943 29.9256 29.3025 30.0646 29.1819C30.2037 29.0614 30.3258 28.8407 30.4307 28.52C30.549 28.8261 30.683 29.0468 30.8328 29.1819C30.9826 29.3171 31.1527 29.4089 31.3429 29.4576C31.0978 29.558 30.9056 29.6684 30.7665 29.789C30.6274 29.9095 30.5155 30.0999 30.4307 30.36C30.3519 30.0999 30.2578 29.9095 30.1483 29.789Z" fill="black" stroke="black" stroke-width="0.5"/>
<path opacity="0.2" fill-rule="evenodd" clip-rule="evenodd" d="M37.2331 22.7782C37.0141 22.5371 36.5839 22.3161 35.9424 22.1153C36.4132 21.9889 36.7876 21.8051 37.0658 21.564C37.344 21.323 37.588 20.8817 37.7979 20.2402C38.0345 20.8525 38.3026 21.2938 38.6022 21.564C38.9018 21.8343 39.2419 22.0181 39.6224 22.1153C39.132 22.3161 38.7478 22.5371 38.4696 22.7782C38.1914 23.0192 37.9675 23.3999 37.7979 23.9202C37.6404 23.3999 37.4521 23.0192 37.2331 22.7782Z" fill="black" stroke="black" stroke-width="0.9"/>
</svg>
