<svg width="46" height="46" viewBox="0 0 46 46" fill="none" xmlns="http://www.w3.org/2000/svg">
<g opacity="0.2">
<path fill-rule="evenodd" clip-rule="evenodd" d="M24.7361 15.7567C25.1259 15.3703 25.7545 15.3704 26.1442 15.757L29.0422 18.6313C29.4166 19.0026 29.4383 19.6009 29.0917 19.9984L12.3007 39.2579C11.9211 39.6932 11.2528 39.7175 10.8427 39.3108L6.62566 35.1281C6.23118 34.7369 6.23128 34.099 6.62588 33.7079L24.7361 15.7567Z" stroke="black"/>
<path d="M29.8236 9.85129C29.9308 9.74034 30.0773 9.67608 30.2314 9.67243C31.5295 9.64167 32.6965 10.0527 33.553 10.8798C34.4091 11.7065 34.8606 12.8577 34.8755 14.1554C34.8773 14.3096 34.8182 14.4583 34.7111 14.5693L31.8338 17.5493C31.4502 17.9467 30.8171 17.9577 30.4198 17.5741L26.9721 14.2447C26.5748 13.8611 26.5637 13.2281 26.9473 12.8308L29.8236 9.85129Z" fill="black"/>
</g>
<path opacity="0.2" fill-rule="evenodd" clip-rule="evenodd" d="M38.7359 10.2468C38.4074 9.88522 37.762 9.55379 36.7998 9.25256C37.506 9.0629 38.0677 8.78726 38.485 8.42564C38.9022 8.06402 39.2683 7.40212 39.5831 6.43994C39.938 7.35833 40.3401 8.02023 40.7895 8.42564C41.239 8.83105 41.749 9.1067 42.3198 9.25256C41.5843 9.55379 41.0079 9.88522 40.5906 10.2468C40.1733 10.6085 39.8375 11.1795 39.5831 11.9599C39.3468 11.1795 39.0644 10.6085 38.7359 10.2468Z" fill="black" stroke="black"/>
<path opacity="0.2" fill-rule="evenodd" clip-rule="evenodd" d="M30.0853 29.789C29.9758 29.6684 29.7607 29.558 29.4399 29.4576C29.6753 29.3943 29.8626 29.3025 30.0017 29.1819C30.1407 29.0614 30.2628 28.8407 30.3677 28.52C30.486 28.8261 30.62 29.0468 30.7699 29.1819C30.9197 29.3171 31.0897 29.4089 31.2799 29.4576C31.0348 29.558 30.8426 29.6684 30.7035 29.789C30.5644 29.9095 30.4525 30.0999 30.3677 30.36C30.289 30.0999 30.1948 29.9095 30.0853 29.789Z" fill="black" stroke="black" stroke-width="0.5"/>
<path opacity="0.2" fill-rule="evenodd" clip-rule="evenodd" d="M37.1706 22.7779C36.9516 22.5368 36.5214 22.3159 35.8799 22.1151C36.3507 21.9886 36.7251 21.8049 37.0033 21.5638C37.2815 21.3227 37.5255 20.8814 37.7354 20.24C37.972 20.8522 38.2401 21.2935 38.5397 21.5638C38.8393 21.8341 39.1794 22.0178 39.5599 22.1151C39.0695 22.3159 38.6853 22.5368 38.4071 22.7779C38.1289 23.019 37.905 23.3997 37.7354 23.92C37.5779 23.3997 37.3896 23.019 37.1706 22.7779Z" fill="black" stroke="black" stroke-width="0.9"/>
</svg>
