<svg width="47" height="46" viewBox="0 0 47 46" fill="none" xmlns="http://www.w3.org/2000/svg">
<path opacity="0.1" fill-rule="evenodd" clip-rule="evenodd" d="M23.0621 41.4001C33.2241 41.4001 41.4621 33.1621 41.4621 23.0001C41.4621 12.8381 33.2241 4.6001 23.0621 4.6001C12.9001 4.6001 4.66211 12.8381 4.66211 23.0001C4.66211 33.1621 12.9001 41.4001 23.0621 41.4001Z" stroke="black" stroke-width="3" stroke-dasharray="2"/>
<path opacity="0.2" fill-rule="evenodd" clip-rule="evenodd" d="M23.0628 37.7198C31.1924 37.7198 37.7828 31.1294 37.7828 22.9998C37.7828 14.8702 31.1924 8.27979 23.0628 8.27979C14.9331 8.27979 8.34277 14.8702 8.34277 22.9998C8.34277 31.1294 14.9331 37.7198 23.0628 37.7198Z" stroke="black" stroke-width="2"/>
<path fill-rule="evenodd" clip-rule="evenodd" d="M23.0624 33.1199C28.6515 33.1199 33.1824 28.589 33.1824 22.9999C33.1824 17.4108 28.6515 12.8799 23.0624 12.8799C17.4733 12.8799 12.9424 17.4108 12.9424 22.9999C12.9424 28.589 17.4733 33.1199 23.0624 33.1199Z" stroke="black" stroke-width="2"/>
</svg>
