<svg width="46" height="46" viewBox="0 0 46 46" fill="none" xmlns="http://www.w3.org/2000/svg">
<path opacity="0.2" fill-rule="evenodd" clip-rule="evenodd" d="M23.0001 41.4001C33.1621 41.4001 41.4001 33.1621 41.4001 23.0001C41.4001 12.8381 33.1621 4.6001 23.0001 4.6001C12.8381 4.6001 4.6001 12.8381 4.6001 23.0001C4.6001 33.1621 12.8381 41.4001 23.0001 41.4001Z" stroke="black" stroke-width="3" stroke-dasharray="2"/>
<path opacity="0.2" fill-rule="evenodd" clip-rule="evenodd" d="M22.9998 37.72C31.1294 37.72 37.7198 31.1297 37.7198 23C37.7198 14.8704 31.1294 8.28003 22.9998 8.28003C14.8702 8.28003 8.27979 14.8704 8.27979 23C8.27979 31.1297 14.8702 37.72 22.9998 37.72Z" stroke="black" stroke-width="2"/>
<path opacity="0.2" fill-rule="evenodd" clip-rule="evenodd" d="M22.9999 33.1199C28.589 33.1199 33.1199 28.589 33.1199 22.9999C33.1199 17.4108 28.589 12.8799 22.9999 12.8799C17.4108 12.8799 12.8799 17.4108 12.8799 22.9999C12.8799 28.589 17.4108 33.1199 22.9999 33.1199Z" stroke="black" stroke-width="2"/>
</svg>
