<svg width="50" height="46" viewBox="0 0 50 46" fill="none" xmlns="http://www.w3.org/2000/svg">
<path fill-rule="evenodd" clip-rule="evenodd" d="M12.5961 33.4152C7.35702 30.8882 3.74219 25.5264 3.74219 19.3202C3.74219 10.6824 10.7445 3.68018 19.3822 3.68018C25.801 3.68018 31.3167 7.54696 33.7269 13.0782C32.8964 12.685 32.0384 12.3691 31.1636 12.1305C28.7391 8.16593 24.3696 5.52018 19.3822 5.52018C11.7607 5.52018 5.58219 11.6986 5.58219 19.3202C5.58219 24.1188 8.0314 28.3453 11.7479 30.818C11.953 31.7018 12.2357 32.5712 12.5961 33.4152Z" fill="black" fill-opacity="0.2"/>
<path fill-rule="evenodd" clip-rule="evenodd" d="M38.031 16.1982C31.9227 10.0899 22.02 10.0908 15.9127 16.1982C9.80534 22.3055 9.80439 32.2082 15.9127 38.3165C22.0209 44.4247 31.9236 44.4238 38.031 38.3165C44.1383 32.2091 44.1392 22.3065 38.031 16.1982ZM17.2108 37.0183C11.821 31.6285 11.8218 22.8891 17.2127 17.4982C22.6035 12.1073 31.343 12.1065 36.7328 17.4963L36.7344 17.4979L17.2124 37.0199L17.2108 37.0183ZM35.9425 31.2801L26.7425 31.2801V33.1201L35.9425 33.1201L35.9425 31.2801Z" fill="black"/>
<path fill-rule="evenodd" clip-rule="evenodd" d="M23.9829 21.1605V17.4805H22.1429V21.1605H18.4629V23.0005H22.1429V26.6805H23.9829V23.0005H27.6629V21.1605H23.9829Z" fill="black"/>
</svg>
