<svg width="50" height="50" viewBox="0 0 50 50" fill="none" xmlns="http://www.w3.org/2000/svg">
<path fill-rule="evenodd" clip-rule="evenodd" d="M12.5341 33.415C7.29502 30.888 3.68018 25.5261 3.68018 19.3199C3.68018 10.6822 10.6824 3.67993 19.3202 3.67993C25.739 3.67993 31.2547 7.54671 33.6649 13.078C32.8344 12.6848 31.9764 12.3689 31.1016 12.1302C28.6771 8.16568 24.3076 5.51993 19.3202 5.51993C11.6986 5.51993 5.52018 11.6984 5.52018 19.3199C5.52018 24.1185 7.9694 28.3451 11.6859 30.8177C11.891 31.7016 12.1737 32.5709 12.5341 33.415Z" fill="black" fill-opacity="0.2"/>
<g opacity="0.2">
<path fill-rule="evenodd" clip-rule="evenodd" d="M37.9685 16.1982C31.8602 10.0899 21.9575 10.0908 15.8502 16.1982C9.74284 22.3055 9.74189 32.2082 15.8502 38.3165C21.9584 44.4247 31.8611 44.4238 37.9685 38.3165C44.0758 32.2091 44.0767 22.3065 37.9685 16.1982ZM17.1483 37.0183C11.7585 31.6285 11.7593 22.8891 17.1502 17.4982C22.541 12.1073 31.2805 12.1065 36.6703 17.4963L36.6719 17.4979L17.1499 37.0199L17.1483 37.0183ZM35.8799 31.2801H26.6799V33.1201L35.8799 33.1201L35.8799 31.2801Z" fill="black"/>
</g>
<path opacity="0.2" fill-rule="evenodd" clip-rule="evenodd" d="M23.9199 21.16V17.48H22.0799V21.16H18.3999V23H22.0799V26.68H23.9199V23H27.5999V21.16H23.9199Z" fill="black"/>
</svg>
