<svg width="50" height="50" viewBox="0 0 50 50" fill="none" xmlns="http://www.w3.org/2000/svg">
<path fill-rule="evenodd" clip-rule="evenodd" d="M33.5154 12C35.2135 12 36.6051 12.5424 37.7418 13.5353C38.8537 14.5066 39.6662 15.86 40.3195 17.3938C41.2558 19.5919 41.9499 22.3929 42.6847 25.3575C42.9576 26.4585 43.236 27.582 43.5346 28.7057C44.5614 32.5704 43.8163 35.426 42.0147 36.9333C40.2478 38.4116 37.7585 38.3139 35.9832 36.8847C35.3659 36.3877 34.7526 35.6102 34.2026 34.8048C33.6399 33.9811 33.0925 33.0514 32.6163 32.1874C32.1388 31.3211 31.7258 30.5078 31.4324 29.9117C31.3608 29.7662 31.2962 29.6334 31.2394 29.5157H17.7606C17.7038 29.6334 17.6392 29.7662 17.5676 29.9117C17.2742 30.5078 16.8612 31.3211 16.3837 32.1874C15.9075 33.0514 15.36 33.9811 14.7974 34.8048C14.2474 35.6102 13.634 36.3877 13.0167 36.8847C11.2415 38.3139 8.75219 38.4116 6.9853 36.9333C5.18372 35.426 4.43858 32.5704 5.46543 28.7057C5.76406 27.5816 6.0426 26.4577 6.31554 25.3564C7.05014 22.3922 7.74419 19.5917 8.68029 17.3938C9.33355 15.86 10.146 14.5066 11.258 13.5353C12.3947 12.5424 13.7863 12 15.4846 12H33.5154ZM32.7559 28.0284C32.5904 27.6678 32.2412 27.4382 31.8579 27.4382H17.1421C16.7588 27.4382 16.4096 27.6678 16.2441 28.0284L16.2374 28.043L16.227 28.0654L16.2153 28.0906C16.1956 28.1329 16.1661 28.196 16.1276 28.2772C16.0506 28.4398 15.9379 28.6749 15.7963 28.9626C15.5128 29.5388 15.1151 30.3217 14.6576 31.1517C14.1989 31.984 13.6871 32.8506 13.1759 33.5992C12.6521 34.366 12.1769 34.9368 11.8004 35.2399C10.6854 36.1375 9.21654 36.1371 8.23096 35.3126C7.28007 34.517 6.47844 32.6697 7.38422 29.2606C7.71209 28.0266 8.00717 26.8362 8.28892 25.6995C9.00528 22.8095 9.63555 20.2668 10.4999 18.2374C11.0907 16.8502 11.7498 15.8152 12.5362 15.1283C13.2978 14.463 14.2314 14.0775 15.4846 14.0775H33.5154C34.7684 14.0775 35.7019 14.463 36.4636 15.1283C37.2499 15.8152 37.909 16.8502 38.4999 18.2375C39.3644 20.2671 39.9948 22.8102 40.7114 25.7008C40.993 26.8371 41.288 28.027 41.6158 29.2606C42.5216 32.6696 41.7199 34.517 40.769 35.3126C39.7835 36.1371 38.3146 36.1375 37.1996 35.2399C36.8231 34.9368 36.3479 34.366 35.8241 33.5992C35.3129 32.8506 34.8011 31.984 34.3424 31.1517C33.8849 30.3217 33.4872 29.5388 33.2037 28.9626C33.0621 28.6749 32.9494 28.4398 32.8724 28.2772C32.8339 28.196 32.8044 28.1329 32.7847 28.0906C32.7749 28.0695 32.7675 28.0535 32.7626 28.043L32.7573 28.0315L32.7559 28.0284Z" fill="white"/>
<path fill-rule="evenodd" clip-rule="evenodd" d="M16.216 16.9078C16.7682 16.9078 17.216 17.3555 17.216 17.9078V24.2429C17.216 24.7952 16.7682 25.2429 16.216 25.2429C15.6637 25.2429 15.216 24.7952 15.216 24.2429V17.9078C15.216 17.3555 15.6637 16.9078 16.216 16.9078Z" fill="white"/>
<path fill-rule="evenodd" clip-rule="evenodd" d="M12.0487 21.0752C12.0487 20.5229 12.4964 20.0752 13.0487 20.0752H19.3838C19.9361 20.0752 20.3838 20.5229 20.3838 21.0752C20.3838 21.6275 19.9361 22.0752 19.3838 22.0752H13.0487C12.4964 22.0752 12.0487 21.6275 12.0487 21.0752Z" fill="white"/>
<path fill-rule="evenodd" clip-rule="evenodd" d="M28.996 21.9091C29.5482 21.9091 29.996 21.4614 29.996 20.9091C29.996 20.3569 29.5482 19.9091 28.996 19.9091C28.4437 19.9091 27.996 20.3569 27.996 20.9091C27.996 21.4614 28.4437 21.9091 28.996 21.9091Z" fill="white"/>
<path fill-rule="evenodd" clip-rule="evenodd" d="M35.602 21.9091C36.1543 21.9091 36.602 21.4614 36.602 20.9091C36.602 20.3569 36.1543 19.9091 35.602 19.9091C35.0497 19.9091 34.602 20.3569 34.602 20.9091C34.602 21.4614 35.0497 21.9091 35.602 21.9091Z" fill="white"/>
<path fill-rule="evenodd" clip-rule="evenodd" d="M32.299 18.6061C32.8513 18.6061 33.299 18.1584 33.299 17.6061C33.299 17.0538 32.8513 16.6061 32.299 16.6061C31.7467 16.6061 31.299 17.0538 31.299 17.6061C31.299 18.1584 31.7467 18.6061 32.299 18.6061Z" fill="white"/>
<path fill-rule="evenodd" clip-rule="evenodd" d="M32.2989 25.2121C32.8512 25.2121 33.2989 24.7644 33.2989 24.2121C33.2989 23.6599 32.8512 23.2121 32.2989 23.2121C31.7466 23.2121 31.2989 23.6599 31.2989 24.2121C31.2989 24.7644 31.7466 25.2121 32.2989 25.2121Z" fill="white"/>
</svg>
