<svg width="50" height="50" viewBox="0 0 50 50" fill="none" xmlns="http://www.w3.org/2000/svg">
<path fill-rule="evenodd" clip-rule="evenodd" d="M37.5161 36.4557C37.4459 36.5334 37.3752 36.6093 37.3039 36.6841C37.2325 36.7591 37.1605 36.833 37.0875 36.9069C37.0146 36.9809 36.9408 37.0548 36.8659 37.1296C36.7909 37.2045 36.7149 37.2801 36.6374 37.3578C36.5205 37.4724 36.403 37.5884 36.2857 37.7063C36.1683 37.8243 36.0511 37.9441 35.9345 38.0665C35.818 38.189 35.7021 38.314 35.5874 38.4421C35.4728 38.5702 35.3595 38.7013 35.2479 38.8362C35.0661 39.0359 34.8761 39.2092 34.676 39.3568C34.4758 39.5044 34.2654 39.6264 34.0426 39.7234C33.8199 39.8203 33.5847 39.8924 33.335 39.9402C33.0853 39.9881 32.8212 40.0116 32.5403 40.0116C32.5134 40.0116 32.4859 40.0116 32.4582 40.0115C32.4305 40.0114 32.4026 40.0111 32.3748 40.0107C32.3469 40.0103 32.3189 40.0096 32.2913 40.0085C32.2636 40.0075 32.2361 40.0062 32.2092 40.0043C31.6746 39.9693 31.1494 39.8893 30.6391 39.7778C30.1287 39.6662 29.6333 39.5229 29.158 39.3613C28.6828 39.1996 28.2278 39.0193 27.7985 38.8339C27.3691 38.6483 26.9654 38.4576 26.5928 38.2746C25.5739 37.7682 24.5861 37.2086 23.6309 36.5972C22.6758 35.9858 21.7535 35.3226 20.8655 34.6087C19.9776 33.8949 19.1241 33.1304 18.3067 32.3166C17.4893 31.5029 16.708 30.6399 15.9646 29.7287C15.3508 28.9691 14.7879 28.2239 14.2717 27.4861C13.7555 26.7483 13.2861 26.018 12.8595 25.2885C12.4329 24.559 12.049 23.8301 11.7038 23.0951C11.3587 22.3602 11.0523 21.619 10.7805 20.8651C10.613 20.4049 10.4721 19.9701 10.3567 19.5557C10.2412 19.1412 10.1512 18.747 10.0855 18.3682C10.0198 17.9893 9.97838 17.6257 9.96017 17.2723C9.94196 16.9188 9.94691 16.5756 9.97387 16.2374C9.99194 16.0211 10.0256 15.814 10.0755 15.6156C10.1253 15.4171 10.1912 15.2272 10.2735 15.0452C10.3559 14.8631 10.4547 14.689 10.5702 14.522C10.6858 14.3549 10.818 14.1951 10.9675 14.0417L13.4229 11.5206C13.5111 11.4357 13.6006 11.3603 13.6911 11.2953C13.7816 11.2301 13.8729 11.1751 13.9646 11.1308C14.0565 11.0864 14.1488 11.0527 14.241 11.0301C14.3333 11.0074 14.4256 10.9959 14.5174 10.9959C14.6309 10.9959 14.7388 11.0135 14.8406 11.0435C14.9424 11.0735 15.038 11.1161 15.1267 11.166C15.2153 11.216 15.297 11.2733 15.371 11.3329C15.4448 11.3925 15.5111 11.4544 15.5688 11.5135L15.5741 11.519L15.5848 11.53L15.5901 11.5355C15.7001 11.6409 15.8086 11.7472 15.9163 11.8547C16.0242 11.9621 16.1313 12.0706 16.2384 12.1807C16.3455 12.2906 16.4526 12.4019 16.5603 12.5149C16.6682 12.6278 16.7766 12.7424 16.8864 12.8588C16.9423 12.918 16.9986 12.9772 17.0551 13.0364C17.1117 13.0957 17.1687 13.155 17.2258 13.2147C17.2829 13.2743 17.3403 13.3341 17.3978 13.3943C17.4552 13.4545 17.5128 13.5151 17.5704 13.576L19.5361 15.5942C19.7269 15.7901 19.87 15.9823 19.9654 16.1727C20.0608 16.3631 20.1086 16.5516 20.1086 16.7401C20.1086 16.9286 20.0608 17.1171 19.9654 17.3074C19.87 17.4978 19.7269 17.69 19.5361 17.8859C19.4839 17.9395 19.4321 17.9931 19.3806 18.0467C19.3291 18.1001 19.2778 18.1535 19.2265 18.2066C19.1752 18.2598 19.1239 18.3127 19.0724 18.3652C19.0208 18.4177 18.9691 18.4699 18.9169 18.5216C18.7657 18.6805 18.6163 18.8367 18.4675 18.9905C18.3186 19.1444 18.1704 19.2959 18.0214 19.4456C17.8724 19.5954 17.7228 19.7433 17.5712 19.8897C17.4197 20.0362 17.2663 20.1812 17.1097 20.3254C17.1062 20.329 17.1025 20.3323 17.099 20.3353C17.0956 20.3383 17.0922 20.3411 17.0891 20.3438C17.0859 20.3467 17.0829 20.3494 17.0803 20.3524C17.0777 20.3554 17.0754 20.3585 17.0735 20.3622C16.9188 20.5211 16.8099 20.6792 16.7357 20.8334C16.6614 20.9877 16.6218 21.1381 16.6056 21.2818C16.5895 21.4255 16.5966 21.5624 16.616 21.6898C16.6353 21.8172 16.6667 21.9349 16.699 22.0403L16.71 22.0736L16.7154 22.0904L16.7209 22.1071C16.8487 22.4249 16.9896 22.7381 17.146 23.0515C17.3025 23.3648 17.4747 23.6783 17.6651 23.9967C17.8554 24.315 18.064 24.6383 18.2934 24.9711C18.5228 25.3038 18.773 25.6462 19.0466 26.0029L19.0484 26.0047L19.0502 26.0065L19.052 26.0083L19.0538 26.0101C19.5506 26.6384 20.0542 27.2321 20.5663 27.7927C21.0783 28.3534 21.5987 28.8808 22.1293 29.3766C22.6599 29.8723 23.2005 30.3365 23.7531 30.7705C24.3056 31.2045 24.8699 31.6083 25.4477 31.9834C25.5216 32.0315 25.5959 32.0773 25.6702 32.1212C25.7446 32.1652 25.8191 32.2071 25.8933 32.2478C25.9676 32.2884 26.0416 32.3277 26.1151 32.366C26.1885 32.4044 26.2614 32.4417 26.3335 32.4786C26.3982 32.5119 26.4622 32.5448 26.525 32.5773C26.5876 32.6099 26.649 32.6423 26.7088 32.6746C26.7687 32.707 26.827 32.7393 26.8833 32.7719C26.9397 32.8045 26.9942 32.8373 27.0464 32.8706C27.0535 32.8743 27.0608 32.8785 27.068 32.8829C27.0753 32.8873 27.0825 32.8918 27.0897 32.8965C27.0968 32.9011 27.1041 32.9057 27.1112 32.9101C27.1185 32.9144 27.1257 32.9186 27.1329 32.9223C27.194 32.9537 27.2543 32.9809 27.3141 33.0041C27.3738 33.0273 27.4329 33.0465 27.4919 33.0617C27.5508 33.077 27.6095 33.0883 27.6684 33.0958C27.7272 33.1034 27.7861 33.1071 27.8456 33.1071C27.995 33.1071 28.1305 33.083 28.2516 33.045C28.3726 33.007 28.4793 32.9551 28.5711 32.8992C28.6629 32.8432 28.7399 32.7834 28.8015 32.7297C28.8631 32.676 28.9095 32.6285 28.94 32.5971L31.4026 30.0688C31.4639 30.0059 31.5341 29.9398 31.6121 29.876C31.6901 29.8123 31.7759 29.7508 31.8681 29.6972C31.9604 29.6437 32.0592 29.5979 32.1633 29.5657C32.2673 29.5333 32.3767 29.5143 32.4901 29.5143C32.6018 29.5143 32.7084 29.5324 32.8091 29.5633C32.9097 29.5942 33.0044 29.6381 33.0922 29.6899C33.18 29.7416 33.2608 29.8012 33.3335 29.8636C33.4063 29.926 33.471 29.9911 33.5269 30.054L37.5087 34.1419C37.6942 34.3304 37.8333 34.5204 37.9261 34.7115C38.019 34.9025 38.0655 35.0948 38.066 35.2879C38.0665 35.481 38.0208 35.6751 37.9291 35.8698C37.8374 36.0646 37.6998 36.2599 37.5161 36.4557ZM34.9382 28.6716C34.7636 28.4849 34.5799 28.32 34.3887 28.1776C34.1976 28.0352 33.9989 27.9153 33.7941 27.8187C33.5894 27.7222 33.3786 27.649 33.1631 27.5999C32.9477 27.5508 32.7277 27.5259 32.5045 27.5259C32.2831 27.5259 32.0639 27.5504 31.8483 27.5987C31.6327 27.6471 31.4208 27.7194 31.2138 27.815C31.0067 27.9107 30.8047 28.0296 30.6089 28.1714C30.4132 28.3132 30.2238 28.4777 30.042 28.6644L27.7665 30.9929C27.7195 30.967 27.6727 30.9416 27.6261 30.9165C27.5794 30.8914 27.5328 30.8667 27.4865 30.8422C27.4401 30.8178 27.3939 30.7935 27.3482 30.7694C27.3024 30.7453 27.257 30.7213 27.2119 30.6973C27.1472 30.664 27.0833 30.6312 27.0206 30.5986C26.958 30.566 26.8965 30.5337 26.8366 30.5013C26.7768 30.469 26.7185 30.4366 26.662 30.404C26.6057 30.3714 26.5512 30.3386 26.4989 30.3053C25.9661 29.9579 25.4455 29.5841 24.9352 29.1822C24.4248 28.7804 23.9248 28.3504 23.4334 27.8907C22.942 27.431 22.4591 26.9415 21.9829 26.4204C21.5068 25.8993 21.0374 25.3467 20.573 24.7609C20.348 24.4688 20.1414 24.1883 19.9513 23.9164C19.7612 23.6443 19.5874 23.3807 19.4281 23.1224C19.2689 22.8641 19.1239 22.6112 18.9915 22.3605C18.8589 22.1097 18.7388 21.8613 18.629 21.6119C18.7765 21.4733 18.9215 21.3332 19.0641 21.1925C19.2068 21.0518 19.3472 20.9104 19.4858 20.769C19.6244 20.6276 19.7612 20.4861 19.8966 20.3454C20.0321 20.2047 20.1662 20.0647 20.2994 19.9261C20.3498 19.8744 20.4003 19.8222 20.4507 19.7698C20.5011 19.7174 20.5515 19.6647 20.602 19.6121C20.6523 19.5594 20.7027 19.5067 20.7531 19.4542C20.8036 19.4017 20.854 19.3495 20.9045 19.2977C21.2824 18.9097 21.5659 18.4929 21.7549 18.0619C21.9439 17.6308 22.0384 17.1854 22.0384 16.7401C22.0384 16.2946 21.9439 15.8492 21.7549 15.4181C21.5659 14.987 21.2824 14.5702 20.9045 14.1821L18.9384 12.1639C18.8826 12.1066 18.8264 12.0489 18.7701 11.9908C18.7137 11.9327 18.6573 11.8742 18.601 11.8156C18.5448 11.7569 18.4888 11.6981 18.4332 11.639C18.3778 11.5801 18.3229 11.521 18.269 11.4619C18.161 11.3473 18.0516 11.2317 17.941 11.116C17.8304 11.0002 17.7186 10.8842 17.6056 10.7687C17.4926 10.6532 17.3786 10.5381 17.2635 10.4242C17.1484 10.3103 17.0323 10.1975 16.9154 10.0866C16.7406 9.90918 16.5575 9.75255 16.3672 9.61746C16.1769 9.48229 15.9796 9.36867 15.7766 9.27719C15.5736 9.18578 15.365 9.11644 15.1522 9.07006C14.9395 9.02361 14.7227 9.00012 14.5031 9.00012C14.2834 9.00012 14.0656 9.02361 13.8511 9.07006C13.6366 9.11644 13.4256 9.18578 13.2195 9.27719C13.0135 9.36867 12.8123 9.48229 12.6177 9.61746C12.4231 9.75255 12.235 9.90918 12.0549 10.0866L12.0406 10.1013L9.59209 12.6372C9.36171 12.8737 9.15603 13.1232 8.97534 13.3853C8.79465 13.6473 8.63902 13.922 8.50846 14.2089C8.37796 14.4958 8.27261 14.795 8.19276 15.1061C8.1129 15.4171 8.05841 15.7401 8.02955 16.0746C7.98642 16.6143 7.99276 17.1447 8.03392 17.6573C8.07509 18.17 8.15115 18.6648 8.24755 19.1333C8.34379 19.6018 8.46037 20.044 8.58255 20.4512C8.70481 20.8585 8.8326 21.2309 8.95144 21.5598C9.24295 22.3674 9.57059 23.1603 9.9386 23.9454C10.3066 24.7306 10.715 25.508 11.1682 26.2846C11.6214 27.0613 12.1194 27.8373 12.6666 28.6196C13.2138 29.402 13.81 30.1907 14.4599 30.9929C15.2483 31.9595 16.0768 32.8752 16.9438 33.7388C17.8108 34.6023 18.7162 35.4136 19.6586 36.1713C20.6009 36.929 21.5802 37.6332 22.5949 38.2823C23.6094 38.9315 24.6594 39.5257 25.743 40.0635C26.1571 40.265 26.6058 40.4756 27.0844 40.6808C27.5632 40.8861 28.072 41.0859 28.6062 41.2656C29.1404 41.4453 29.7 41.605 30.2803 41.7299C30.8608 41.8546 31.462 41.9447 32.0794 41.9853C32.1172 41.9872 32.1556 41.9891 32.194 41.9908C32.2324 41.9926 32.2709 41.9942 32.3092 41.9956C32.3474 41.9969 32.3854 41.9981 32.4229 41.9988C32.4603 41.9997 32.4973 42.0001 32.5333 42.0001C32.9491 42.0001 33.3483 41.9617 33.7303 41.8852C34.1123 41.8087 34.4771 41.6939 34.824 41.541C35.171 41.388 35.5002 41.1971 35.811 40.9679C36.1219 40.7389 36.4144 40.4718 36.6881 40.1667C36.6898 40.1631 36.692 40.1599 36.6945 40.1568C36.697 40.1538 36.6997 40.1511 36.7024 40.1483C36.7051 40.1456 36.7078 40.1429 36.7103 40.1399C36.7128 40.1369 36.7151 40.1337 36.7169 40.13C36.8105 40.0135 36.9077 39.8999 37.0079 39.7879C37.1082 39.6758 37.2114 39.5653 37.3172 39.4554C37.4229 39.3454 37.5311 39.2359 37.6413 39.1257C37.7514 39.0155 37.8636 38.9046 37.977 38.7919C38.0544 38.7161 38.1322 38.6394 38.2102 38.5617C38.2883 38.4842 38.3666 38.4056 38.4448 38.3262C38.5232 38.2467 38.6014 38.1663 38.6796 38.085C38.7576 38.0036 38.8354 37.9214 38.9129 37.8382C39.0912 37.6479 39.2482 37.4497 39.3836 37.2453C39.5189 37.0408 39.6326 36.8301 39.7239 36.6148C39.8152 36.3995 39.8842 36.1796 39.9304 35.9566C39.9766 35.7337 40 35.5077 40 35.2805C40 35.0514 39.9762 34.8245 39.929 34.6016C39.882 34.3786 39.8115 34.1596 39.7185 33.9461C39.6253 33.7326 39.5094 33.5246 39.3714 33.3239C39.2334 33.1231 39.0732 32.9294 38.8915 32.7446L34.9382 28.6716Z" fill="white"/>
<path fill-rule="evenodd" clip-rule="evenodd" d="M29.275 14.4026C29.9617 14.5336 31.1631 14.7628 32.3325 15.9633C33.5959 17.2604 33.8146 18.5167 33.9538 19.3163C33.9556 19.3267 33.9574 19.3371 33.9592 19.3474L32.0426 19.6995C32.0411 19.6912 32.0397 19.683 32.0383 19.6747C31.9169 18.9779 31.7866 18.2298 30.9557 17.3768C30.2257 16.6273 29.5668 16.497 28.9153 16.3683C28.834 16.3522 28.7528 16.3361 28.6717 16.3189L29.0657 14.3613C29.1286 14.3747 29.1986 14.388 29.275 14.4026Z" fill="white"/>
<path fill-rule="evenodd" clip-rule="evenodd" d="M31.3312 10.7372C32.7044 11.2146 33.9938 12.0151 35.086 13.1364C36.186 14.2657 36.9691 15.6004 37.4328 17.0214C37.5659 17.4295 37.6727 17.8445 37.7532 18.2637L35.8428 18.6501C35.7785 18.3146 35.693 17.9826 35.5866 17.6565C35.2164 16.5221 34.5914 15.4556 33.7092 14.5499C32.8333 13.6506 31.8029 13.0116 30.7068 12.6306C30.3868 12.5194 30.061 12.4301 29.7317 12.3627L30.1121 10.4023C30.5236 10.4864 30.9309 10.5981 31.3312 10.7372Z" fill="white"/>
</svg>
