<svg width="50" height="50" viewBox="0 0 50 50" fill="none" xmlns="http://www.w3.org/2000/svg">
<path fill-rule="evenodd" clip-rule="evenodd" d="M38.9769 16.6345L19.8412 19.8914L19.8334 14.2145L38.9518 11.1492L38.9769 16.2366V16.6345ZM36.1619 35.315C35.134 35.6828 34.0576 35.7113 33.1317 35.3956C32.2777 35.1038 31.6606 34.5498 31.394 33.834C31.1267 33.1184 31.2336 32.3053 31.6945 31.5436C32.1941 30.7174 33.0358 30.0597 34.0641 29.6919C34.6311 29.489 35.2047 29.3929 35.7504 29.3929C37.1786 29.3929 38.4144 30.0512 38.833 31.1725C39.4114 32.7228 38.2133 34.5811 36.1619 35.315ZM17.3017 36.8756C16.8021 37.7014 15.9607 38.3591 14.9321 38.727C13.9032 39.0945 12.8271 39.1239 11.9015 38.8076C11.0475 38.5159 10.4304 37.9615 10.1638 37.2463C9.89625 36.5308 10.0034 35.7173 10.4643 34.9559C10.9639 34.1298 11.8053 33.4718 12.8342 33.1042C13.3897 32.9054 13.9587 32.8055 14.5109 32.8055C14.9808 32.8055 15.4385 32.8779 15.8645 33.0236C16.7185 33.3147 17.3356 33.8694 17.6022 34.5846V34.5852C17.8698 35.3004 17.7626 36.1139 17.3017 36.8756ZM40.9944 16.267V10.198C40.9944 10.1136 40.9805 10.033 40.9601 9.95495C40.9505 9.67652 40.8239 9.41388 40.6061 9.23342C40.3805 9.04695 40.0832 8.96605 39.7915 9.01314L18.6605 12.4015C18.226 12.4713 17.8965 12.807 17.8294 13.221C17.7765 13.3408 17.7474 13.4719 17.7474 13.6103V31.7571C17.3804 31.5159 16.9757 31.3115 16.529 31.1588C15.1654 30.6933 13.6069 30.7252 12.1422 31.2492C10.6776 31.7732 9.46567 32.7321 8.72883 33.9492C7.95424 35.2304 7.7906 36.6428 8.26892 37.9244C8.74723 39.2069 9.80165 40.1832 11.2376 40.6737C11.8772 40.8918 12.5602 41.0005 13.2557 41.0005C14.0429 41.0005 14.8465 40.8611 15.6244 40.583C17.089 40.0587 18.3009 39.1001 19.0378 37.8827C19.5529 37.0306 19.7917 36.1211 19.7568 35.2301C19.7588 35.2058 19.7646 35.1827 19.7646 35.1574V21.9094L38.9772 18.6399V28.3536C37.4903 27.3754 35.3895 27.1156 33.3726 27.8365C31.908 28.3612 30.6954 29.3197 29.9593 30.5368C29.184 31.8181 29.0204 33.2302 29.499 34.5124C29.9776 35.7946 31.0321 36.7712 32.468 37.261C33.1077 37.4797 33.7903 37.5885 34.4855 37.5885C35.2727 37.5885 36.0773 37.4488 36.8545 37.171C39.4216 36.2522 41.0492 34.0367 40.985 31.8393C40.9879 31.808 40.9944 31.7776 40.9944 31.7457V17.5284C40.996 17.5056 41.0008 17.4835 41.0005 17.4601L40.9944 16.267Z" fill="white"/>
</svg>
