<svg width="50" height="50" viewBox="0 0 50 50" fill="none" xmlns="http://www.w3.org/2000/svg">
<path fill-rule="evenodd" clip-rule="evenodd" d="M6.60913 15.6413C6.86568 13.5717 8.59452 12 10.6512 12H39.3561C41.4034 12 43.1311 13.5515 43.3884 15.6211C44.2039 22.1808 44.2039 28.8192 43.3884 35.3789C43.1311 37.4485 41.4034 39 39.3561 39H10.6348C8.5922 39 6.86822 37.4524 6.61083 35.3877C5.7952 28.8451 5.79815 22.1834 6.60913 15.6413ZM10.6512 14.0769C9.6309 14.0769 8.76043 14.8606 8.63139 15.9016C7.84176 22.2714 7.83903 28.7578 8.63292 35.126C8.76097 36.1532 9.61863 36.9231 10.6348 36.9231H39.3561C40.3767 36.9231 41.238 36.1496 41.3662 35.1179C42.1601 28.7315 42.1601 22.2685 41.3662 15.8821C41.238 14.8504 40.3767 14.0769 39.3561 14.0769H10.6512Z" fill="white"/>
<path fill-rule="evenodd" clip-rule="evenodd" d="M30.87 25.0015L21.0859 29.9862V20.0169L30.87 25.0015Z" fill="white"/>
</svg>
