<svg width="50" height="50" viewBox="0 0 50 50" fill="none" xmlns="http://www.w3.org/2000/svg">
<path fill-rule="evenodd" clip-rule="evenodd" d="M25 32C21.1342 32 18 28.8657 18 25C18 21.1342 21.1342 17.9999 25 17.9999C28.8657 17.9999 32 21.1342 32 25C32 28.8657 28.8657 32 25 32ZM25 16C20.0297 16 16 20.0297 16 25C16 29.9703 20.0297 34 25 34C29.9703 34 34 29.9703 34 25C34 20.0297 29.9703 16 25 16Z" fill="white"/>
<path fill-rule="evenodd" clip-rule="evenodd" d="M39.9999 33C39.9999 36.8659 36.866 39.9999 33 39.9999H17C13.134 39.9999 10 36.8659 10 33V17C10 13.134 13.134 10.0001 17 10.0001H33C36.866 10.0001 39.9999 13.134 39.9999 17V33ZM33 8H17C12.0294 8 8 12.0294 8 17V33C8 37.9706 12.0294 42 17 42H33C37.9706 42 42 37.9706 42 33V17C42 12.0294 37.9706 8 33 8Z" fill="white"/>
<path fill-rule="evenodd" clip-rule="evenodd" d="M34.7551 13.3827C33.6508 13.3827 32.7551 14.2784 32.7551 15.3826C32.7551 16.4869 33.6508 17.3826 34.7551 17.3826C35.8593 17.3826 36.755 16.4869 36.755 15.3826C36.755 14.2784 35.8593 13.3827 34.7551 13.3827Z" fill="white"/>
</svg>
