<svg width="241" height="21" viewBox="0 0 241 21" fill="none" xmlns="http://www.w3.org/2000/svg">
<path d="M13.1921 0.171875V8.44974H4.04875V0.171875H0V20.6923H4.04875V12.3582H13.1921V20.6923H17.2409V0.171875H13.1921Z" fill="black"/>
<path d="M36.0019 11.916C36.0019 15.2512 34.3912 17.0349 31.4648 17.0349C28.5239 17.0349 26.9023 15.2024 26.9023 11.7736V0.183117H22.8535V11.916C22.8535 17.6869 25.973 20.9996 31.4102 20.9996C36.9021 20.9996 40.0507 17.627 40.0507 11.7474V0.171875H36.0019V11.916Z" fill="black"/>
<path d="M82.8006 14.2804L78.2672 0.167969H74.9655L70.4321 14.2804L66.0262 0.179211H61.7151L68.6683 20.6921H72.0246L76.5617 7.21671L81.0988 20.6921H84.4806L91.4156 0.179211H87.2175L82.8006 14.2804Z" fill="black"/>
<path d="M98.6745 11.8642H106.04V8.12436H98.6745V3.92359H109.367V0.1875H94.6804V20.6817H109.753V16.9418H98.6745V11.8642Z" fill="black"/>
<path d="M118.576 0.171875H114.582V20.6661H118.576V0.171875Z" fill="black"/>
<path d="M57.1894 16.4091L58.9824 20.681H63.228L54.4636 0.171875H50.8958L42.1023 20.681H46.2349L48.0533 16.4091H57.1894ZM52.6123 5.36568L55.6844 12.7105H49.5621L52.6123 5.36568Z" fill="black"/>
<path d="M130.573 0.28125H133.179L136.444 13.0147C136.867 14.6148 137.158 16.0238 137.326 17.2492C137.694 15.5854 138.08 14.0302 138.485 12.58L141.881 0.28125H144.436L148.003 12.7899C148.521 14.5474 148.863 16.0351 149.031 17.2492C149.144 16.6609 149.283 16.0425 149.439 15.3905C149.596 14.7422 149.767 14.064 149.953 13.3632C149.96 13.3257 149.982 13.2358 150.019 13.0971L153.258 0.28125H155.773L150.376 20.5881H147.836L144.465 8.62657C144.166 7.58106 143.918 6.65547 143.721 5.84979C143.525 5.04786 143.339 4.20471 143.16 3.32409C142.748 5.16778 142.318 6.89155 141.87 8.49916L138.539 20.5881H136.01L130.573 0.28125Z" fill="black"/>
<path d="M167.981 14.6823H159.862L157.756 20.5881H155.15L162.77 0.28125H165.022L172.828 20.5881H170.157L167.981 14.6823ZM160.624 12.5238H167.18L164.822 6.01842C164.603 5.46756 164.341 4.70311 164.031 3.73255L163.874 3.27162C163.626 4.11103 163.335 5.01414 162.992 5.9772L160.624 12.5238Z" fill="black"/>
<path d="M176.764 2.5259H170.772L171.064 0.28125H185.24L184.938 2.5259H179.238V20.5881H176.764V2.5259Z" fill="black"/>
<path d="M189.715 19.6398C188.345 18.8229 187.31 17.65 186.607 16.1285C185.904 14.6034 185.554 12.7972 185.554 10.7024C185.554 8.57016 185.911 6.70024 186.621 5.08513C187.332 3.47378 188.363 2.22217 189.715 1.33405C191.067 0.442186 192.671 0 194.533 0C195.575 0 196.563 0.134904 197.496 0.404712C198.425 0.674521 199.267 1.03052 200.021 1.4727L199.245 3.55997C198.454 3.12153 197.689 2.78802 196.942 2.55568C196.195 2.3271 195.419 2.21093 194.613 2.21093C193.236 2.21093 192.062 2.54819 191.093 3.21896C190.124 3.89348 189.391 4.84905 188.895 6.09317C188.4 7.33728 188.152 8.79875 188.152 10.4813C188.152 12.1001 188.393 13.5166 188.877 14.7383C189.362 15.9599 190.109 16.9155 191.122 17.605C192.135 18.2982 193.407 18.643 194.934 18.643C195.739 18.643 196.53 18.5418 197.303 18.3357C198.075 18.1296 198.873 17.8223 199.697 17.4101L200.327 19.4861C199.522 19.9171 198.666 20.2544 197.762 20.4942C196.858 20.7378 195.841 20.8577 194.708 20.8577C192.747 20.8652 191.086 20.4567 189.715 19.6398Z" fill="black"/>
<path d="M202.788 0.28125H205.262V8.91886H215.517V0.28125H217.977V20.5881H215.517V11.1485H205.262V20.5881H202.788V0.28125Z" fill="black"/>
<path d="M230.72 20.4225C229.674 20.1039 228.752 19.643 227.954 19.0322L228.716 16.8175C229.434 17.4171 230.239 17.8893 231.132 18.2415C232.021 18.5938 232.929 18.7661 233.851 18.7661C234.736 18.7661 235.491 18.6087 236.107 18.2902C236.726 17.9717 237.193 17.5295 237.513 16.9562C237.834 16.3866 237.994 15.7308 237.994 14.9926C237.994 13.8159 237.586 12.8903 236.77 12.2158C235.953 11.5413 234.769 11.2078 233.217 11.2078H231.216V9.11675H232.586C233.515 9.11675 234.324 8.95186 235.013 8.62584C235.702 8.29983 236.234 7.84265 236.606 7.25807C236.977 6.67348 237.167 6.00271 237.167 5.24575C237.167 4.29392 236.879 3.53322 236.3 2.97486C235.72 2.41276 234.937 2.13171 233.945 2.13171C233.067 2.13171 232.233 2.33407 231.438 2.74253C230.644 3.15099 229.991 3.6194 229.481 4.15153L228.65 2.24788C229.31 1.61083 230.108 1.08246 231.052 0.662756C231.996 0.243054 233.042 0.0332031 234.19 0.0332031C235.294 0.0332031 236.263 0.239307 237.098 0.651514C237.932 1.06372 238.574 1.64456 239.026 2.39028C239.477 3.13974 239.703 3.99788 239.703 4.97219C239.703 6.21631 239.343 7.26931 238.617 8.13494C237.892 9.00058 236.934 9.59266 235.742 9.91118C237.156 10.136 238.304 10.6869 239.186 11.5675C240.068 12.4444 240.509 13.6323 240.509 15.1275C240.509 16.2779 240.235 17.2897 239.692 18.1628C239.149 19.0359 238.377 19.7142 237.375 20.1901C236.376 20.666 235.214 20.9059 233.887 20.9059C232.819 20.8984 231.763 20.741 230.72 20.4225Z" fill="black"/>
</svg>
