<svg width="376" height="32" viewBox="0 0 376 32" fill="none" xmlns="http://www.w3.org/2000/svg">
<path d="M20.5914 0.261719V12.8756H6.31963V0.261719H0V31.5309H6.31963V18.8314H20.5914V31.5309H26.9111V0.261719H20.5914Z" fill="black"/>
<path d="M56.1949 18.1576C56.1949 23.2397 53.6807 25.9577 49.1131 25.9577C44.5227 25.9577 41.9914 23.1654 41.9914 17.9406V0.278849H35.6718V18.1576C35.6718 26.9513 40.5409 31.9992 49.0277 31.9992C57.5999 31.9992 62.5146 26.86 62.5146 17.9006V0.261719H56.1949V18.1576Z" fill="black"/>
<path d="M129.242 21.7616L122.166 0.256836H117.013L109.936 21.7616L103.059 0.273967H96.3301L107.183 31.5317H112.422L119.504 10.9978L126.586 31.5317H131.865L142.689 0.273967H136.136L129.242 21.7616Z" fill="black"/>
<path d="M154.02 18.0782H165.516V12.3794H154.02V5.97825H170.709V0.285156H147.785V31.5144H171.312V25.8156H154.02V18.0782Z" fill="black"/>
<path d="M185.084 0.261719H178.85V31.491H185.084V0.261719Z" fill="black"/>
<path d="M89.2662 25.0041L92.0648 31.5138H98.6916L85.0114 0.261719H79.4426L65.7169 31.5138H72.1674L75.0058 25.0041H89.2662ZM82.1218 8.17609L86.917 19.3681H77.3607L82.1218 8.17609Z" fill="black"/>
<path d="M203.809 0.428711H207.877L212.973 19.8321C213.633 22.2703 214.088 24.4174 214.35 26.2846C214.924 23.7493 215.527 21.3795 216.159 19.1697L221.46 0.428711H225.448L231.016 19.4894C231.824 22.1675 232.359 24.4345 232.62 26.2846C232.797 25.3881 233.013 24.4459 233.258 23.4523C233.502 22.4645 233.769 21.4309 234.06 20.3631C234.071 20.306 234.105 20.169 234.162 19.9577L239.219 0.428711H243.144L234.719 31.3724H230.755L225.493 13.1454C225.027 11.5522 224.64 10.1418 224.333 8.91411C224.026 7.69212 223.735 6.40732 223.457 5.06542C222.814 7.87485 222.143 10.5016 221.443 12.9512L216.244 31.3724H212.296L203.809 0.428711Z" fill="black"/>
<path d="M262.199 22.3731H249.526L246.238 31.3724H242.171L254.065 0.428711H257.581L269.765 31.3724H265.595L262.199 22.3731ZM250.715 19.084H260.948L257.268 9.17107C256.926 8.33166 256.517 7.16678 256.033 5.68783L255.789 4.98547C255.402 6.26456 254.947 7.64073 254.412 9.10826L250.715 19.084Z" fill="black"/>
<path d="M275.908 3.84914H266.556L267.011 0.428711H289.139L288.667 3.84914H279.77V31.3724H275.908V3.84914Z" fill="black"/>
<path d="M296.124 29.9273C293.985 28.6825 292.37 26.8952 291.272 24.5768C290.174 22.2528 289.628 19.5004 289.628 16.3084C289.628 13.0593 290.186 10.2099 291.295 7.74878C292.404 5.29338 294.014 3.38616 296.124 2.03284C298.235 0.673807 300.737 0 303.644 0C305.271 0 306.812 0.205568 308.269 0.616704C309.719 1.02784 311.033 1.57031 312.211 2.24412L310.999 5.42472C309.765 4.75662 308.57 4.24841 307.404 3.89437C306.238 3.54605 305.026 3.36903 303.769 3.36903C301.619 3.36903 299.787 3.88295 298.274 4.90508C296.761 5.93293 295.618 7.38903 294.844 9.28483C294.071 11.1806 293.684 13.4076 293.684 15.9715C293.684 18.4383 294.059 20.5968 294.816 22.4583C295.572 24.3199 296.739 25.776 298.32 26.8266C299.901 27.883 301.886 28.4084 304.27 28.4084C305.527 28.4084 306.761 28.2542 307.967 27.9401C309.173 27.6261 310.419 27.1578 311.704 26.5297L312.688 29.6932C311.431 30.3499 310.095 30.8638 308.684 31.2292C307.273 31.6004 305.686 31.7831 303.917 31.7831C300.857 31.7945 298.263 31.1721 296.124 29.9273Z" fill="black"/>
<path d="M316.529 0.428711H320.391V13.5908H336.398V0.428711H340.237V31.3724H336.398V16.9884H320.391V31.3724H316.529V0.428711Z" fill="black"/>
<path d="M360.128 31.1201C358.496 30.6348 357.056 29.9324 355.811 29.0016L357 25.6269C358.12 26.5405 359.377 27.26 360.771 27.7968C362.159 28.3335 363.575 28.5962 365.014 28.5962C366.397 28.5962 367.574 28.3564 368.535 27.871C369.502 27.3856 370.23 26.7118 370.731 25.8382C371.232 24.9702 371.482 23.9709 371.482 22.846C371.482 21.053 370.845 19.6426 369.571 18.6147C368.296 17.5869 366.448 17.0787 364.025 17.0787H360.902V13.8924H363.04C364.491 13.8924 365.754 13.6411 366.829 13.1443C367.904 12.6475 368.734 11.9509 369.315 11.0601C369.895 10.1693 370.191 9.14717 370.191 7.99371C370.191 6.54331 369.741 5.38413 368.837 4.53331C367.932 3.67678 366.709 3.24851 365.162 3.24851C363.791 3.24851 362.489 3.55686 361.249 4.17928C360.009 4.80169 358.99 5.51547 358.194 6.32632L356.897 3.42553C357.927 2.45479 359.172 1.64964 360.646 1.0101C362.119 0.370554 363.751 0.0507812 365.543 0.0507812C367.267 0.0507812 368.78 0.364844 370.082 0.992969C371.385 1.62109 372.386 2.50618 373.092 3.64251C373.797 4.78456 374.15 6.0922 374.15 7.57686C374.15 9.47266 373.586 11.0772 372.455 12.3963C371.323 13.7154 369.827 14.6176 367.966 15.1029C370.174 15.4456 371.965 16.285 373.342 17.6269C374.718 18.9631 375.407 20.7732 375.407 23.0516C375.407 24.8046 374.98 26.3464 374.133 27.6769C373.285 29.0073 372.079 30.0409 370.515 30.7661C368.956 31.4913 367.142 31.8567 365.071 31.8567C363.404 31.8453 361.755 31.6055 360.128 31.1201Z" fill="black"/>
</svg>
