<svg width="424" height="44" viewBox="0 0 424 44" fill="none" xmlns="http://www.w3.org/2000/svg">
<g clip-path="url(#clip0)">
<path d="M26.6064 19.2917H8.16263V3H0V43.3958H8.16263V27H26.6064V43.3958H34.7898V3H26.6064V19.2917Z" fill="black"/>
<path d="M72.6329 26.125C72.6329 32.6875 69.3928 36.1875 63.4733 36.1875C57.5331 36.1875 54.2722 32.5833 54.2722 25.8333V3.04167H46.1095V26.125C46.1095 37.4792 52.4029 44 63.3695 44C74.4399 44 80.7955 37.3542 80.7955 25.7917V3H72.6329V26.125Z" fill="black"/>
<path d="M167.033 30.7708L157.894 3H151.227L142.088 30.7708L133.198 3.02083H124.496L138.536 43.3958H145.287L154.446 16.875L163.606 43.3958H170.418L184.417 3.02083H175.943L167.033 30.7708Z" fill="black"/>
<path d="M199.06 26.0202H213.911V18.666H199.06V10.3952H220.62V3.04102H191.001V43.3535H221.409V35.9993H199.06V26.0202Z" fill="black"/>
<path d="M239.209 3H231.15V43.3333H239.209V3Z" fill="black"/>
<path d="M115.357 34.9583L118.971 43.3542H127.528L109.874 3H102.666L84.9288 43.3542H93.2576L96.9339 34.9583H115.357ZM106.135 13.2292L112.324 27.6875H99.9663L106.135 13.2292Z" fill="black"/>
<path d="M284.093 23.2497C285.443 24.1455 286.523 25.333 287.291 26.7913C288.06 28.2497 288.455 29.958 288.455 31.8747C288.455 34.1038 287.935 36.083 286.897 37.7913C285.858 39.4997 284.321 40.8538 282.307 41.7913C280.292 42.7497 277.883 43.2288 275.058 43.2288H263.489V2.95801H274.227C278.173 2.95801 281.164 3.77051 283.179 5.39551C285.214 7.02051 286.211 9.27051 286.211 12.1455C286.211 14.458 285.588 16.4372 284.342 18.0413C283.096 19.6455 281.434 20.7913 279.378 21.4788C281.185 21.7497 282.743 22.3538 284.093 23.2497ZM268.453 19.7913H273.334C274.913 19.7913 276.283 19.458 277.488 18.8122C278.693 18.1663 279.607 17.2913 280.25 16.1872C280.894 15.083 281.206 13.8747 281.206 12.5622C281.206 10.7497 280.562 9.37467 279.274 8.47884C277.986 7.56217 276.096 7.12467 273.646 7.12467H268.474V19.7913H268.453ZM281.227 37.1872C282.701 35.9163 283.449 34.083 283.449 31.708C283.449 29.1663 282.618 27.2288 280.957 25.8955C279.295 24.5622 276.906 23.8955 273.812 23.8955H268.453V39.1247H274.476C277.509 39.1038 279.752 38.4788 281.227 37.1872Z" fill="black"/>
<path d="M312.818 43.2493C312.631 42.3118 312.486 40.9368 312.382 39.1035C311.302 40.416 309.91 41.541 308.186 42.4369C306.462 43.3535 304.551 43.791 302.474 43.791C300.813 43.791 299.317 43.4577 298.009 42.791C296.68 42.1244 295.641 41.1243 294.873 39.8118C294.104 38.4993 293.73 36.8952 293.73 34.9993C293.73 32.1243 294.727 29.8118 296.721 28.0827C298.715 26.3535 302.038 25.4785 306.691 25.4785C308.456 25.4785 310.305 25.6035 312.236 25.8743V25.1243C312.236 22.041 311.634 19.8743 310.45 18.6452C309.245 17.3952 307.584 16.7702 305.424 16.7702C303.991 16.7702 302.516 16.9785 300.958 17.416C299.421 17.8327 298.05 18.3535 296.846 18.9368L295.994 15.0202C297.053 14.4785 298.507 13.9785 300.356 13.4993C302.204 13.0202 304.136 12.791 306.151 12.791C308.477 12.791 310.45 13.1868 312.049 13.9785C313.669 14.7702 314.916 16.1243 315.829 18.041C316.723 19.9577 317.18 22.541 317.18 25.7702V37.5827C317.18 38.8327 317.242 40.7077 317.387 43.2285H312.818V43.2493ZM308.456 38.5618C310.055 37.7285 311.302 36.7285 312.216 35.5618V29.1035C310.429 28.8952 308.768 28.791 307.251 28.791C304.053 28.791 301.83 29.3327 300.605 30.3952C299.359 31.4785 298.736 32.916 298.736 34.7285C298.736 36.4577 299.172 37.7285 300.065 38.541C300.958 39.3535 302.142 39.7702 303.637 39.7702C305.258 39.8118 306.857 39.3952 308.456 38.5618Z" fill="black"/>
<path d="M323.764 21.0205C323.764 18.2288 323.701 15.6663 323.556 13.3955H328.105C328.209 14.0205 328.312 14.8122 328.395 15.7705C328.479 16.708 328.541 17.4788 328.582 18.083C330.036 16.4788 331.552 15.1872 333.131 14.2497C334.71 13.3122 336.579 12.833 338.718 12.833C341.584 12.833 343.745 13.7913 345.219 15.708C346.694 17.6247 347.421 20.4372 347.421 24.1663V43.2913H342.498V24.4997C342.498 19.5205 340.733 17.0413 337.223 17.0413C335.644 17.0413 334.17 17.4997 332.757 18.4163C331.345 19.333 329.995 20.5413 328.707 22.0413V43.2705H323.784V21.0205H323.764Z" fill="black"/>
<path d="M373.093 43.25C372.885 42.1042 372.719 40.8542 372.573 39.5208C371.473 40.8333 370.164 41.875 368.669 42.6458C367.173 43.4167 365.491 43.7917 363.601 43.7917C361.586 43.7917 359.758 43.2917 358.117 42.3125C356.477 41.3125 355.147 39.75 354.15 37.5833C353.153 35.4167 352.655 32.6667 352.655 29.3333C352.655 25.9792 353.174 23.0417 354.233 20.5625C355.293 18.0833 356.809 16.1667 358.803 14.8125C360.797 13.4583 363.164 12.7917 365.906 12.7917C366.986 12.7917 368.129 12.8958 369.292 13.125C370.455 13.3542 371.493 13.6042 372.407 13.8958V0.5625L377.35 0V35.7083C377.35 38.1667 377.413 40.6667 377.558 43.25H373.093ZM369.105 38.4375C370.517 37.6458 371.618 36.7292 372.428 35.6667V17.8333C371.473 17.5208 370.434 17.25 369.333 17.0417C368.232 16.8333 367.235 16.7292 366.342 16.7292C364.598 16.7292 363.081 17.2083 361.794 18.125C360.527 19.0625 359.53 20.4583 358.824 22.3125C358.117 24.1667 357.785 26.4375 357.785 29.125C357.785 32.7708 358.429 35.4375 359.696 37.1042C360.963 38.7708 362.624 39.6042 364.639 39.6042C366.197 39.6042 367.692 39.2083 369.105 38.4375Z" fill="black"/>
<path d="M404.372 41.3962C402.295 39.9378 400.696 37.7503 399.533 34.8337C398.391 31.9378 397.809 28.3962 397.809 24.2087C397.809 19.6045 398.453 15.7295 399.761 12.5837C401.07 9.41699 402.918 7.04199 405.307 5.43783C407.696 3.83366 410.52 3.04199 413.781 3.04199C417.354 3.04199 420.345 3.93783 422.795 5.70866L421.445 9.68783C420.511 8.89616 419.348 8.25033 417.977 7.77116C416.606 7.29199 415.214 7.06283 413.781 7.06283C410.541 7.06283 407.966 8.29199 406.055 10.7503C404.144 13.2087 403.085 16.8962 402.856 21.8337C403.998 20.6253 405.473 19.6462 407.28 18.8962C409.087 18.167 410.998 17.792 413.013 17.792C415.194 17.792 417.125 18.2712 418.787 19.2295C420.448 20.1878 421.715 21.5837 422.629 23.417C423.543 25.2503 423.979 27.417 423.979 29.9378C423.979 32.6878 423.46 35.0837 422.422 37.1253C421.383 39.1878 419.929 40.7712 418.039 41.8753C416.17 43.0003 414.01 43.542 411.58 43.542C408.859 43.5837 406.449 42.8545 404.372 41.3962ZM415.36 38.4587C416.461 37.7295 417.312 36.6462 417.956 35.2295C418.6 33.8128 418.911 32.0837 418.911 30.042C418.911 27.3337 418.309 25.292 417.125 23.9378C415.921 22.5837 414.176 21.8962 411.85 21.8962C410.043 21.8962 408.339 22.2712 406.761 23.042C405.182 23.8128 403.895 24.7295 402.898 25.8128C402.918 28.8545 403.313 31.417 404.123 33.4795C404.912 35.542 405.972 37.0628 407.301 38.0628C408.63 39.0628 410.084 39.542 411.683 39.542C413.013 39.5628 414.259 39.1878 415.36 38.4587Z" fill="black"/>
</g>
<defs>
<clipPath id="clip0">
<rect width="424" height="44" fill="white"/>
</clipPath>
</defs>
</svg>
