<svg width="223" height="39" viewBox="0 0 223 39" fill="none" xmlns="http://www.w3.org/2000/svg">
<g clip-path="url(#clip0)">
<path d="M12.1855 12.3213C15.802 12.3213 18.817 14.18 20.221 16.1887V12.823H25.7447V37.9328H21.9933C21.0146 37.9328 20.221 37.1406 20.221 36.1608V34.5706C18.817 36.5776 15.802 38.4349 12.1855 38.4349C5.30762 38.4349 0.0830078 32.5605 0.0830078 25.3788C0.0830078 18.1971 5.30762 12.3213 12.1855 12.3213ZM13.1904 17.3441C8.72008 17.3441 5.70651 20.8586 5.70651 25.3788C5.70651 29.8976 8.72008 33.4143 13.1904 33.4143C17.6593 33.4143 20.6743 29.8976 20.6743 25.3788C20.6743 20.8586 17.6596 17.3441 13.1904 17.3441Z" fill="white"/>
<path d="M32.0181 12.824H37.5432V16.2387C39.0484 13.7286 41.9123 12.3223 45.1767 12.3223C51.0012 12.3223 54.7688 16.4402 54.7688 22.8186V37.933H51.016C50.0376 37.933 49.2437 37.1394 49.2437 36.161V23.7226C49.2437 19.7557 47.2339 17.3451 44.0222 17.3451C40.3558 17.3451 37.5434 20.2075 37.5434 25.5799V37.933H33.789C32.8119 37.933 32.0181 37.1394 32.0181 36.161V12.824Z" fill="white"/>
<path d="M71.2418 12.3213C74.8569 12.3213 77.8719 14.18 79.2773 16.1887V0.269531H84.7996V37.9328H81.0482C80.0712 37.9328 79.2773 37.1406 79.2773 36.1608V34.5706C77.8719 36.5776 74.8569 38.4349 71.2418 38.4349C64.3608 38.4349 59.1382 32.5605 59.1382 25.3788C59.1382 18.1971 64.3611 12.3213 71.2418 12.3213ZM72.247 17.3441C67.778 17.3441 64.7645 20.8586 64.7645 25.3788C64.7645 29.8976 67.778 33.4143 72.247 33.4143C76.7142 33.4143 79.7278 29.8976 79.7278 25.3788C79.7278 20.8586 76.7142 17.3441 72.247 17.3441Z" fill="white"/>
<path d="M91.0742 12.8241H96.5979V17.2936C97.5515 14.4311 100.364 12.5732 103.228 12.5732C103.929 12.5732 104.635 12.624 105.387 12.7742V18.4485C104.431 18.1468 103.63 17.9966 102.626 17.9966C99.4618 17.9966 96.5982 20.6595 96.5982 25.6812V37.9331H92.8454C91.8684 37.9331 91.0745 37.1395 91.0745 36.1611V12.8241H91.0742Z" fill="white"/>
<path d="M120.282 38.4349C112.851 38.4349 107.125 32.6586 107.125 25.3802C107.125 18.0981 112.851 12.3213 120.282 12.3213C127.716 12.3213 133.439 18.0967 133.439 25.3802C133.439 32.6586 127.716 38.4349 120.282 38.4349ZM120.282 33.3145C124.701 33.3145 127.816 29.8477 127.816 25.3802C127.816 20.9115 124.701 17.4447 120.282 17.4447C115.813 17.4447 112.7 20.9115 112.7 25.3802C112.7 29.8477 115.813 33.3145 120.282 33.3145Z" fill="white"/>
<path d="M140.678 7.35068C138.67 7.35068 136.962 5.69518 136.962 3.63382C136.962 1.62515 138.67 -0.0317383 140.678 -0.0317383C142.736 -0.0317383 144.344 1.62543 144.344 3.63382C144.344 5.69518 142.736 7.35068 140.678 7.35068ZM137.918 12.8231H143.441V37.9329H139.689C138.711 37.9329 137.918 37.1376 137.918 36.1609V12.8231Z" fill="white"/>
<path d="M160.082 12.3213C163.699 12.3213 166.712 14.18 168.119 16.1887V0.269531H173.643V37.9328H169.891C168.911 37.9328 168.119 37.1406 168.119 36.1608V34.5706C166.712 36.5776 163.699 38.4349 160.082 38.4349C153.204 38.4349 147.981 32.5605 147.981 25.3788C147.981 18.1971 153.204 12.3213 160.082 12.3213ZM161.087 17.3441C156.62 17.3441 153.607 20.8586 153.607 25.3788C153.607 29.8976 156.62 33.4143 161.087 33.4143C165.558 33.4143 168.571 29.8976 168.571 25.3788C168.571 20.8586 165.558 17.3441 161.087 17.3441Z" fill="white"/>
<path d="M183.247 16.0178H177.842V12.6859H183.247V5.66504H186.781V12.6859H194.155V16.0178H186.781V30.6134C186.781 33.6931 188.146 34.9048 190.973 34.9048C191.982 34.9048 193.347 34.7024 194.155 34.3504V37.5312C192.991 37.9861 191.781 38.1882 190.417 38.1882C186.125 38.1882 183.247 35.7118 183.247 30.9142V16.0178Z" fill="white"/>
<path d="M222.89 12.6851L211.074 37.9359H208.296L196.479 12.6851H200.418L209.659 32.7336L218.901 12.6851H222.89Z" fill="white"/>
</g>
<defs>
<clipPath id="clip0">
<rect width="223" height="38.4675" fill="white"/>
</clipPath>
</defs>
</svg>
