<svg width="144" height="39" viewBox="0 0 144 39" fill="none" xmlns="http://www.w3.org/2000/svg">
<g clip-path="url(#clip0)">
<path d="M19.7333 0C17.7667 0 15.6667 0 13.6667 0C13.6667 8.23333 13.6333 13.5667 13.6333 21.8333C11.0333 13.7667 8.43333 8.46667 5.83333 0C3.6 0 2.23333 0 0 0C0 12.8667 0 25.7667 0 38.6333C1.96667 38.3667 4.06667 38.1 6.03333 37.8333C6.03333 29.7667 6.03333 24.8 6.06667 16.7C8.76667 24.6667 10.4333 29.3333 13.1333 36.9C15.2333 36.6667 17.5667 36.3667 19.7 36.1333C19.7 24.1 19.7333 12.0667 19.7333 0Z" fill="white"/>
<path d="M42.3999 0C36.7665 0 31.2332 0 25.5999 0C25.5665 11.9 25.5665 23.7667 25.5332 35.6667C31.1665 35.1667 36.7665 34.7333 42.3999 34.4C42.3999 32.6667 42.3999 30.1667 42.3999 28.4333C38.7332 28.6667 35.2332 28.9 31.5999 29.1333C31.5999 25.9333 31.5999 23.3 31.6332 20.1C34.2999 20.0667 37.0999 20.1 39.8332 20.0333C39.8332 18.3 39.8332 15.7667 39.8332 14.0333C37.1332 14.0667 34.2999 14.1 31.6332 14.1333C31.6332 10.9333 31.6332 9.2 31.6665 6C33.3332 5.96667 34.9665 5.96667 36.5999 5.96667C36.8999 5.96667 37.1665 5.96667 37.4665 5.96667C37.7665 5.96667 38.0332 5.96667 38.3332 5.96667C39.6999 5.96667 41.0665 5.96667 42.4665 5.96667C42.4332 4.23333 42.3999 1.73333 42.3999 0Z" fill="white"/>
<path d="M65.0335 0.0332031C58.8668 0.0332031 52.5002 0.0332031 46.3335 0.0332031C46.3335 1.76654 46.3335 4.2332 46.3335 5.96654C46.6002 5.96654 46.8668 5.96654 47.1335 5.96654C47.9335 5.96654 48.7668 5.96654 49.5668 5.96654C50.3668 5.96654 51.2002 5.96654 52.0002 5.96654C52.2002 5.96654 52.4002 5.96654 52.6335 5.96654C52.6335 15.5332 52.6002 24.2999 52.6002 33.8665C54.5668 33.7999 56.7002 33.7332 58.6668 33.6665C58.6668 24.1332 58.7002 15.4332 58.7002 5.89987C60.8002 5.89987 62.9335 5.89987 65.0335 5.86654C65.0335 4.26654 65.0335 1.7332 65.0335 0.0332031Z" fill="white"/>
<path d="M85.8335 0C80.2001 0 74.6001 0 68.9668 0C68.9668 11.2 68.9668 22.3667 68.9668 33.5667C69.6335 33.5667 70.2668 33.5667 70.9335 33.5667C72.2668 33.5667 73.6335 33.5667 74.9668 33.5667C74.9668 28.8333 74.9668 24.5 74.9668 19.7333C75.3001 19.7333 75.6335 19.7333 75.9668 19.7333C76.7668 19.7333 77.5335 19.7333 78.3335 19.7333C79.1335 19.7333 79.9335 19.7333 80.7335 19.7333C81.5668 19.7333 82.3668 19.7333 83.1668 19.7333C83.1668 18.0333 83.1668 15.5 83.1668 13.8C82.4001 13.8 81.6335 13.8 80.8668 13.8C80.0335 13.8 79.2001 13.8 78.3668 13.8C77.5335 13.8 76.7001 13.8 75.9001 13.8C75.6001 13.8 75.2668 13.8 74.9668 13.8C74.9668 10.7333 74.9668 9.03333 74.9668 5.96667C75.6335 5.96667 76.3001 5.96667 76.9335 5.96667C77.6001 5.96667 78.2668 5.96667 78.9335 5.96667C79.6001 5.96667 80.2668 5.96667 80.9335 5.96667C82.5668 5.96667 84.2001 5.96667 85.8335 5.96667C85.8335 4.3 85.8335 1.7 85.8335 0Z" fill="white"/>
<path d="M89.7667 0.0332031C89.7667 11.3332 89.7334 22.6332 89.7334 33.8999C95.1334 34.0999 100.8 34.3332 106.167 34.6999C106.167 32.9665 106.167 30.4665 106.167 28.7332C102.767 28.5332 99.2001 28.2999 95.8001 28.1665C95.8001 18.4999 95.8334 9.7332 95.8334 0.0332031C93.8334 0.0332031 91.7334 0.0332031 89.7667 0.0332031Z" fill="white"/>
<path d="M111.133 0.0332031C111.167 11.6999 111.167 23.3999 111.2 35.0665C113.167 35.2332 115.233 35.3665 117.2 35.5665C117.2 23.7332 117.233 11.8665 117.2 0.0332031C115.233 0.0332031 113.133 0.0332031 111.133 0.0332031Z" fill="white"/>
<path d="M122.4 0.0332031C124.833 5.9332 127.033 11.8665 129.5 18.1332C126.933 24.1665 124.333 30.1332 121.767 35.9332C123.9 36.1332 126.067 36.4332 128.2 36.6999C129.733 32.9665 131.1 30.0999 132.633 26.2999C134.133 30.3665 135.533 33.5332 137.033 37.7332C139.133 37.9999 141.867 38.3999 144 38.6999C141.433 31.8665 138.633 24.7332 136.067 18.2999C138.633 12.2332 141.233 6.4332 143.9 0.0998698C141.7 0.0998698 139.467 0.0998698 137.267 0.0998698C135.633 4.0332 134.5 6.5332 132.933 10.2665C131.467 6.39987 130.5 3.86654 129 0.0998698C126.833 0.0332031 124.6 0.0332031 122.4 0.0332031Z" fill="white"/>
</g>
<defs>
<clipPath id="clip0">
<rect width="144" height="38.6333" fill="white"/>
</clipPath>
</defs>
</svg>
