<svg width="294" height="58" viewBox="0 0 294 58" fill="none" xmlns="http://www.w3.org/2000/svg">
<path d="M17.236 34.472C26.7552 34.472 34.472 26.7552 34.472 17.236C34.472 7.71682 26.7552 0 17.236 0C7.71682 0 0 7.71682 0 17.236C0 26.7552 7.71682 34.472 17.236 34.472Z" fill="white"/>
<path d="M62.9655 15.5831C62.9655 17.9368 61.0571 19.8444 58.7042 19.8444C56.3512 19.8444 54.4429 17.9368 54.4429 15.5831C54.4429 13.2294 56.3512 11.3218 58.7042 11.3218C61.0571 11.3218 62.9655 13.2294 62.9655 15.5831Z" fill="white"/>
<path d="M54.443 25.854C54.443 30.6133 50.585 34.4718 45.8251 34.4718C41.0648 34.4718 37.207 30.6133 37.207 25.854C37.207 21.0944 41.065 17.2358 45.8251 17.2358C50.5851 17.2358 54.443 21.0945 54.443 25.854Z" fill="white"/>
<path d="M56.2875 47.5746C56.2875 53.2652 51.6752 57.8779 45.9842 57.8779C40.2932 57.8779 35.6807 53.2652 35.6807 47.5746C35.6807 41.8842 40.293 37.271 45.9842 37.271C51.6752 37.271 56.2875 41.8842 56.2875 47.5746Z" fill="white"/>
<path d="M120.203 32.8387C120.203 37.4962 116.559 40.9284 112.088 40.9284C107.616 40.9284 103.972 37.4962 103.972 32.8387C103.972 28.1481 107.616 24.749 112.088 24.749C116.559 24.749 120.203 28.1481 120.203 32.8387ZM116.65 32.8387C116.65 29.9278 114.538 27.9367 112.087 27.9367C109.636 27.9367 107.525 29.9281 107.525 32.8384C107.525 35.7199 109.636 37.7405 112.088 37.7405C114.538 37.7405 116.65 35.7165 116.65 32.8387Z" fill="white"/>
<path d="M137.71 32.8387C137.71 37.4962 134.066 40.9284 129.594 40.9284C125.123 40.9284 121.479 37.4962 121.479 32.8387C121.479 28.1518 125.123 24.749 129.594 24.749C134.066 24.749 137.71 28.1481 137.71 32.8387ZM134.157 32.8387C134.157 29.9278 132.045 27.9367 129.594 27.9367C127.144 27.9367 125.031 29.9281 125.031 32.8384C125.031 35.7199 127.144 37.7405 129.594 37.7405C132.045 37.7405 134.157 35.7165 134.157 32.8387H134.157Z" fill="white"/>
<path d="M154.487 25.2378V39.7613C154.487 45.7354 150.964 48.1757 146.798 48.1757C142.878 48.1757 140.518 45.5531 139.628 43.4084L142.721 42.1209C143.271 43.4378 144.621 44.9914 146.795 44.9914C149.461 44.9914 151.113 43.3465 151.113 40.2498V39.0865H150.989C150.194 40.0675 148.662 40.9247 146.729 40.9247C142.684 40.9247 138.979 37.4015 138.979 32.8678C138.979 28.3013 142.684 24.749 146.729 24.749C148.658 24.749 150.191 25.6059 150.989 26.5578H151.113V25.2412H154.487V25.2378ZM151.365 32.8678C151.365 30.0191 149.465 27.9367 147.046 27.9367C144.595 27.9367 142.542 30.0191 142.542 32.8678C142.542 35.6871 144.595 37.7405 147.046 37.7405C149.465 37.7405 151.365 35.6871 151.365 32.8678Z" fill="white"/>
<path d="M160.05 16.7246V40.4321H156.584V16.7246H160.05Z" fill="white"/>
<path d="M173.551 35.5002L176.309 37.3384C175.419 38.655 173.274 40.9236 169.569 40.9236C164.973 40.9236 161.541 37.3709 161.541 32.8339C161.541 28.0231 165.002 24.7441 169.171 24.7441C173.369 24.7441 175.422 28.085 176.094 29.8904L176.462 30.8095L165.648 35.2885C166.476 36.9115 167.763 37.7393 169.569 37.7393C171.378 37.7393 172.632 36.8496 173.551 35.5002ZM165.064 32.5893L172.293 29.5877C171.896 28.5776 170.699 27.8736 169.291 27.8736C167.486 27.8736 164.973 29.4676 165.064 32.5896V32.5893Z" fill="white"/>
<path d="M90.8562 30.7337V27.3018H102.422C102.535 27.8997 102.593 28.6074 102.593 29.3733C102.593 31.9483 101.889 35.1326 99.6205 37.4011C97.4142 39.6987 94.5946 40.9243 90.86 40.9243C83.9374 40.9243 78.1162 35.2855 78.1162 28.3632C78.1162 21.4406 83.9374 15.8018 90.86 15.8018C94.6897 15.8018 97.4176 17.3044 99.4676 19.2631L97.0458 21.6848C95.576 20.3063 93.5842 19.234 90.8562 19.234C85.8009 19.234 81.8474 23.3079 81.8474 28.3632C81.8474 33.4182 85.8009 37.4921 90.8562 37.4921C94.1352 37.4921 96.0025 36.1755 97.1987 34.9793C98.1691 34.0089 98.8074 32.6232 99.0588 30.7303L90.8562 30.7337Z" fill="white"/>
<path d="M194.16 34.5653H186.116L184.31 39.5761H181.699L189.03 20.377H191.246L198.59 39.5761H195.993L194.16 34.5653ZM186.881 32.4818H193.408L190.138 23.502L186.881 32.4818Z" fill="white"/>
<path d="M209.1 35.7933C209.1 35.134 208.849 34.6241 208.348 34.2636C207.856 33.8944 206.99 33.5779 205.751 33.3142C204.52 33.0504 203.54 32.7339 202.81 32.3647C202.089 31.9955 201.553 31.556 201.201 31.0462C200.859 30.5364 200.687 29.9298 200.687 29.2265C200.687 28.0572 201.179 27.0683 202.164 26.2596C203.157 25.4508 204.423 25.0464 205.962 25.0464C207.579 25.0464 208.889 25.464 209.891 26.2991C210.902 27.1342 211.408 28.2023 211.408 29.5034H208.955C208.955 28.8353 208.669 28.2595 208.098 27.7761C207.535 27.2926 206.823 27.0509 205.962 27.0509C205.074 27.0509 204.379 27.2443 203.878 27.631C203.377 28.0178 203.127 28.5232 203.127 29.1472C203.127 29.7363 203.36 30.1803 203.825 30.4792C204.291 30.7782 205.131 31.0639 206.344 31.3363C207.566 31.6088 208.555 31.934 209.311 32.312C210.067 32.69 210.625 33.1472 210.986 33.6835C211.355 34.211 211.539 34.8571 211.539 35.6219C211.539 36.8965 211.03 37.9206 210.01 38.6943C208.99 39.4589 207.667 39.8412 206.041 39.8412C204.898 39.8412 203.887 39.6391 203.008 39.235C202.129 38.8305 201.439 38.2678 200.938 37.5469C200.445 36.8174 200.199 36.0307 200.199 35.1868H202.639C202.683 36.0042 203.008 36.6547 203.615 37.1384C204.23 37.6129 205.039 37.8501 206.041 37.8501C206.964 37.8501 207.702 37.6656 208.256 37.2966C208.819 36.9186 209.1 36.4175 209.1 35.7933Z" fill="white"/>
<path d="M222.727 35.7933C222.727 35.134 222.476 34.6241 221.975 34.2636C221.483 33.8944 220.617 33.5779 219.378 33.3142C218.147 33.0504 217.167 32.7339 216.437 32.3647C215.716 31.9955 215.18 31.556 214.828 31.0462C214.486 30.5364 214.314 29.9298 214.314 29.2265C214.314 28.0572 214.806 27.0683 215.791 26.2596C216.784 25.4508 218.05 25.0464 219.589 25.0464C221.206 25.0464 222.516 25.464 223.518 26.2991C224.529 27.1342 225.034 28.2023 225.034 29.5034H222.582C222.582 28.8353 222.296 28.2595 221.725 27.7761C221.162 27.2926 220.45 27.0509 219.589 27.0509C218.701 27.0509 218.006 27.2443 217.505 27.631C217.004 28.0178 216.754 28.5232 216.754 29.1472C216.754 29.7363 216.987 30.1803 217.452 30.4792C217.918 30.7782 218.758 31.0639 219.971 31.3363C221.193 31.6088 222.182 31.934 222.938 32.312C223.694 32.69 224.252 33.1472 224.613 33.6835C224.982 34.211 225.166 34.8571 225.166 35.6219C225.166 36.8965 224.656 37.9206 223.637 38.6943C222.617 39.4589 221.294 39.8412 219.668 39.8412C218.525 39.8412 217.514 39.6391 216.635 39.235C215.756 38.8305 215.066 38.2678 214.565 37.5469C214.072 36.8174 213.826 36.0307 213.826 35.1868H216.266C216.31 36.0042 216.635 36.6547 217.242 37.1384C217.857 37.6129 218.666 37.8501 219.668 37.8501C220.591 37.8501 221.329 37.6656 221.883 37.2966C222.446 36.9186 222.727 36.4175 222.727 35.7933Z" fill="white"/>
<path d="M242.603 35.7933C242.603 35.134 242.352 34.6241 241.851 34.2636C241.359 33.8944 240.493 33.5779 239.254 33.3142C238.023 33.0504 237.043 32.7339 236.313 32.3647C235.592 31.9955 235.056 31.556 234.704 31.0462C234.362 30.5364 234.19 29.9298 234.19 29.2265C234.19 28.0572 234.682 27.0683 235.667 26.2596C236.66 25.4508 237.926 25.0464 239.465 25.0464C241.082 25.0464 242.392 25.464 243.394 26.2991C244.405 27.1342 244.91 28.2023 244.91 29.5034H242.458C242.458 28.8353 242.172 28.2595 241.601 27.7761C241.038 27.2926 240.326 27.0509 239.465 27.0509C238.577 27.0509 237.882 27.2443 237.381 27.631C236.88 28.0178 236.63 28.5232 236.63 29.1472C236.63 29.7363 236.862 30.1803 237.328 30.4792C237.794 30.7782 238.634 31.0639 239.847 31.3363C241.069 31.6088 242.058 31.934 242.814 32.312C243.57 32.69 244.128 33.1472 244.489 33.6835C244.858 34.211 245.042 34.8571 245.042 35.6219C245.042 36.8965 244.532 37.9206 243.513 38.6943C242.493 39.4589 241.17 39.8412 239.544 39.8412C238.401 39.8412 237.39 39.6391 236.511 39.235C235.632 38.8305 234.942 38.2678 234.441 37.5469C233.948 36.8174 233.702 36.0307 233.702 35.1868H236.142C236.186 36.0042 236.511 36.6547 237.118 37.1384C237.733 37.6129 238.542 37.8501 239.544 37.8501C240.467 37.8501 241.205 37.6656 241.759 37.2966C242.322 36.9186 242.603 36.4175 242.603 35.7933Z" fill="white"/>
<path d="M231.292 39.5772H228.853V25.3096H231.292V39.5772ZM228.655 21.5252C228.655 21.1294 228.774 20.7954 229.011 20.5231C229.257 20.2505 229.618 20.1143 230.092 20.1143C230.567 20.1143 230.927 20.2505 231.174 20.5231C231.42 20.7956 231.543 21.1296 231.543 21.5252C231.543 21.9209 231.42 22.2505 231.174 22.5141C230.927 22.7779 230.567 22.9098 230.092 22.9098C229.618 22.9098 229.257 22.7779 229.011 22.5141C228.774 22.2504 228.655 21.9207 228.655 21.5252H228.655Z" fill="white"/>
<path d="M252.417 21.8552V25.3099H255.081V27.1954H252.417V36.0436C252.417 36.6148 252.536 37.0455 252.773 37.3358C253.01 37.6171 253.415 37.7577 253.986 37.7577C254.267 37.7577 254.654 37.7049 255.146 37.5993V39.5774C254.505 39.7533 253.881 39.8412 253.274 39.8412C252.184 39.8412 251.362 39.5115 250.808 38.8522C250.254 38.1929 249.977 37.2567 249.977 36.0436V27.1956H247.38V25.3099H249.977V21.855L252.417 21.8552Z" fill="white"/>
<path d="M291.271 21.8552V25.3099H293.934V27.1954H291.271V36.0436C291.271 36.6148 291.389 37.0455 291.626 37.3358C291.864 37.6171 292.268 37.7577 292.84 37.7577C293.121 37.7577 293.508 37.7049 294 37.5993V39.5774C293.358 39.7533 292.734 39.8412 292.128 39.8412C291.038 39.8412 290.216 39.5115 289.662 38.8522C289.108 38.1929 288.831 37.2567 288.831 36.0436V27.1956H286.233V25.3099H288.831V21.855L291.271 21.8552Z" fill="white"/>
<path d="M266.724 39.5777C266.583 39.2964 266.469 38.7953 266.381 38.0744C265.247 39.2524 263.893 39.8415 262.32 39.8415C260.913 39.8415 259.757 39.4458 258.852 38.6546C257.955 37.8547 257.507 36.8438 257.507 35.6219C257.507 34.1362 258.069 32.9846 259.195 32.167C260.329 31.3406 261.92 30.9275 263.968 30.9275H266.342V29.8066C266.342 28.9539 266.087 28.2771 265.577 27.7761C265.067 27.2661 264.315 27.0111 263.322 27.0111C262.452 27.0111 261.722 27.2309 261.133 27.6705C260.544 28.1101 260.249 28.6419 260.249 29.266H257.797C257.797 28.554 258.047 27.8684 258.548 27.2091C259.058 26.5408 259.744 26.0133 260.606 25.6265C261.476 25.2398 262.43 25.0464 263.467 25.0464C265.111 25.0464 266.399 25.4596 267.331 26.2859C268.262 27.1035 268.746 28.2331 268.781 29.6747V36.2418C268.781 37.5515 268.948 38.5931 269.282 39.3669V39.5777H266.724ZM262.676 37.7185C263.441 37.7185 264.166 37.5207 264.851 37.1249C265.537 36.7294 266.034 36.2151 266.342 35.5821V32.655H264.43C261.441 32.655 259.946 33.5298 259.946 35.2792C259.946 36.0438 260.201 36.6415 260.711 37.0723C261.221 37.5031 261.876 37.7185 262.676 37.7185ZM274.939 25.3101L275.018 27.1035C276.108 25.7321 277.532 25.0464 279.291 25.0464C282.306 25.0464 283.827 26.7475 283.853 30.1496V39.5777H281.414V30.1365C281.405 29.1078 281.167 28.3473 280.702 27.855C280.244 27.3626 279.528 27.1164 278.552 27.1164C277.761 27.1164 277.067 27.3274 276.469 27.7495C275.871 28.1715 275.405 28.7254 275.071 29.411V39.5777H272.631V25.3101H274.939Z" fill="white"/>
</svg>
