<svg width="268" height="35" viewBox="0 0 268 35" fill="none" xmlns="http://www.w3.org/2000/svg">
<path d="M93.1604 21.3283C93.1604 24.972 90.3099 27.6572 86.8118 27.6572C83.3134 27.6572 80.4629 24.972 80.4629 21.3283C80.4629 17.6587 83.3134 14.9995 86.8118 14.9995C90.3099 14.9995 93.1604 17.6587 93.1604 21.3283ZM90.3813 21.3283C90.3813 19.051 88.7292 17.4933 86.8115 17.4933C84.8941 17.4933 83.2422 19.0513 83.2422 21.3281C83.2422 23.5824 84.8941 25.1631 86.8118 25.1631C88.7292 25.1631 90.3813 23.5797 90.3813 21.3283Z" fill="white"/>
<path d="M106.856 21.3283C106.856 24.972 104.005 27.6572 100.507 27.6572C97.0082 27.6572 94.1577 24.972 94.1577 21.3283C94.1577 17.6616 97.0082 14.9995 100.507 14.9995C104.005 14.9995 106.856 17.6587 106.856 21.3283ZM104.076 21.3283C104.076 19.051 102.424 17.4933 100.507 17.4933C98.5892 17.4933 96.9368 19.0513 96.9368 21.3281C96.9368 23.5824 98.5892 25.1631 100.507 25.1631C102.424 25.1631 104.076 23.5797 104.076 21.3283H104.076Z" fill="white"/>
<path d="M119.981 15.3819V26.7441C119.981 31.4178 117.225 33.3269 113.966 33.3269C110.899 33.3269 109.053 31.2752 108.357 29.5973L110.776 28.59C111.207 29.6203 112.263 30.8358 113.963 30.8358C116.049 30.8358 117.342 29.5489 117.342 27.1262V26.2161H117.245C116.623 26.9836 115.424 27.6542 113.912 27.6542C110.748 27.6542 107.849 24.8979 107.849 21.3511C107.849 17.7786 110.748 14.9995 113.912 14.9995C115.422 14.9995 116.62 15.6699 117.245 16.4146H117.342V15.3846H119.981V15.3819ZM117.539 21.3511C117.539 19.1225 116.052 17.4933 114.16 17.4933C112.243 17.4933 110.637 19.1225 110.637 21.3511C110.637 23.5567 112.243 25.1631 114.16 25.1631C116.052 25.1631 117.539 23.5567 117.539 21.3511Z" fill="white"/>
<path d="M124.333 8.72168V27.2688H121.622V8.72168H124.333Z" fill="white"/>
<path d="M134.896 23.4104L137.054 24.8485C136.357 25.8785 134.679 27.6533 131.78 27.6533C128.185 27.6533 125.5 24.8739 125.5 21.3244C125.5 17.5609 128.208 14.9956 131.469 14.9956C134.753 14.9956 136.36 17.6093 136.885 19.0217L137.173 19.7408L128.713 23.2448C129.36 24.5145 130.368 25.1621 131.78 25.1621C133.195 25.1621 134.177 24.4661 134.896 23.4104ZM128.256 21.1331L133.912 18.7849C133.601 17.9946 132.665 17.4439 131.563 17.4439C130.151 17.4439 128.185 18.6909 128.256 21.1334V21.1331Z" fill="white"/>
<path d="M70.2013 19.6817V16.9968H79.2495C79.3378 17.4646 79.3833 18.0183 79.3833 18.6174C79.3833 20.632 78.8328 23.1231 77.0578 24.8978C75.3318 26.6953 73.1259 27.6541 70.2042 27.6541C64.7885 27.6541 60.2344 23.2427 60.2344 17.8272C60.2344 12.4114 64.7885 8 70.2042 8C73.2003 8 75.3344 9.17558 76.9382 10.7079L75.0436 12.6025C73.8937 11.5241 72.3354 10.6851 70.2013 10.6851C66.2464 10.6851 63.1534 13.8723 63.1534 17.8272C63.1534 21.7819 66.2464 24.969 70.2013 24.969C72.7665 24.969 74.2274 23.939 75.1632 23.0032C75.9224 22.244 76.4217 21.1599 76.6184 19.679L70.2013 19.6817Z" fill="white"/>
<path d="M38.8815 0H3.91469C1.79147 0 0.0331749 1.7583 0.0331749 3.88152V9.72039H3.91469V3.88152H38.8815V31.0853H25.2796V34.9668H38.8815C41.0047 34.9668 42.763 33.2085 42.763 31.0853V3.88152C42.7962 1.7583 41.0379 0 38.8815 0ZM0 29.1611V35H5.83886C5.83886 31.782 3.25119 29.1611 0 29.1611ZM0 21.3981V25.2796C5.37441 25.2796 9.72038 29.6256 9.72038 35H13.6019C13.6019 27.4692 7.53081 21.3981 0 21.3981ZM0 13.6351V17.5166C9.65403 17.5166 17.4834 25.346 17.4834 35H21.3649C21.3981 23.1896 11.8104 13.6351 0 13.6351Z" fill="white"/>
<path d="M162.348 15.4723L162.239 17.074H162.348C162.967 16.0183 164.423 15.0718 166.025 15.0718C168.973 15.0718 170.429 17.074 170.429 19.9498V27.0482H168.245V20.2774C168.245 17.8748 167.044 17.074 165.369 17.074C163.476 17.074 162.312 18.8941 162.312 20.6414V27.0482H160.127V10.1211H162.312V15.4723H162.348Z" fill="white"/>
<path d="M172.723 27.0483V15.4724H174.798V17.3653H174.907C175.38 16.0548 177.055 15.1812 178.256 15.1812C178.984 15.1812 179.421 15.254 179.894 15.4724L179.057 17.5109C178.729 17.4017 178.365 17.3289 177.892 17.3289C176.399 17.3289 174.87 18.5666 174.87 20.7143V27.0483H172.723Z" fill="white"/>
<path d="M191.98 21.2597C191.98 24.7907 189.505 27.4481 186.01 27.4481C182.515 27.4481 180.04 24.7907 180.04 21.2597C180.04 17.7287 182.515 15.0713 186.01 15.0713C189.505 15.0713 191.98 17.7287 191.98 21.2597ZM189.796 21.2597C189.796 18.6023 187.939 17.0734 186.01 17.0734C184.081 17.0734 182.224 18.6023 182.224 21.2597C182.224 23.9171 184.081 25.446 186.01 25.446C187.976 25.446 189.796 23.9171 189.796 21.2597Z" fill="white"/>
<path d="M193.727 15.4717H195.802V17.0734H195.911C196.566 15.9813 198.095 15.0713 199.479 15.0713C201.372 15.0713 202.573 15.9085 203.155 17.2918C203.993 15.9814 205.412 15.0713 207.196 15.0713C210.035 15.0713 211.346 17.0734 211.346 19.9492V27.0477H209.162V20.2768C209.162 17.8743 208.252 17.0734 206.577 17.0734C204.793 17.0734 203.629 18.8936 203.629 20.6409V27.0477H201.444V20.2768C201.444 17.8743 200.534 17.0734 198.86 17.0734C197.076 17.0734 195.911 18.8936 195.911 20.6409V27.0477H193.727V15.4717Z" fill="white"/>
<path d="M212.984 21.2597C212.984 17.9835 215.277 15.0713 218.663 15.0713C222.121 15.0713 224.341 17.5103 224.341 21.2597L224.305 21.6601H215.132C215.241 24.0991 217.025 25.446 218.808 25.446C220.082 25.446 221.356 24.9363 221.975 23.4438L223.905 24.2447C223.213 25.9192 221.502 27.4117 218.845 27.4117C215.35 27.4117 212.984 24.7543 212.984 21.2597ZM218.626 17.0734C217.025 17.0734 215.75 18.1655 215.314 19.8764H222.048C221.939 18.8571 221.102 17.0734 218.626 17.0734Z" fill="white"/>
<path d="M152.374 27.3762C149.935 27.3762 147.933 26.5754 146.294 24.9373C144.656 23.2992 143.855 21.2606 143.855 18.8217C143.855 16.3827 144.656 14.3442 146.294 12.7425C147.896 11.1043 149.935 10.2671 152.374 10.2671C154.849 10.2671 156.851 11.1771 158.38 12.9609L156.888 14.417C155.723 12.9973 154.194 12.3056 152.374 12.3056C150.554 12.3056 149.061 12.9245 147.823 14.1257C146.622 15.327 146.003 16.8923 146.003 18.8217C146.003 20.751 146.622 22.3163 147.823 23.5176C149.061 24.7553 150.554 25.3377 152.374 25.3377C154.267 25.3377 155.941 24.5368 157.324 22.9351L158.853 24.4276C158.089 25.3741 157.106 26.0657 155.977 26.5754C154.885 27.1214 153.684 27.3762 152.374 27.3762Z" fill="white"/>
<path d="M225.543 21.2968C225.543 17.7658 228.018 15.1084 231.513 15.1084C234.28 15.1084 235.881 16.7465 236.609 18.4574L234.607 19.2947C234.025 17.9114 232.969 17.1105 231.367 17.1105C229.511 17.1105 227.727 18.785 227.727 21.2968C227.727 23.8086 229.547 25.4831 231.367 25.4831C232.969 25.4831 234.17 24.6458 234.716 23.2989L236.646 24.1362C235.954 25.8471 234.243 27.4852 231.513 27.4852C228.018 27.4852 225.543 24.7914 225.543 21.2968Z" fill="white"/>
<path d="M237.883 23.5904C237.883 20.9694 240.249 19.5497 242.98 19.5497C244.545 19.5497 245.673 19.9865 246.147 20.2414V19.9137C246.147 18.1664 244.727 17.1107 243.125 17.1107C241.924 17.1107 240.759 17.6932 240.359 18.7853L238.393 17.948C238.793 16.8923 240.177 15.145 243.089 15.145C245.928 15.145 248.258 16.8559 248.258 20.1321V27.1214H246.183V25.5197H246.074C245.419 26.5026 244.254 27.5218 242.252 27.5218C239.849 27.4854 237.883 26.0293 237.883 23.5904ZM246.11 22.0979C246.11 22.0979 245.164 21.3334 243.344 21.3334C241.05 21.3334 240.14 22.5711 240.14 23.6268C240.14 24.8645 241.414 25.4833 242.543 25.4833C244.29 25.4833 246.11 23.9908 246.11 22.0979Z" fill="white"/>
<path d="M249.532 24.1726L251.461 23.3718C252.08 24.8279 253.208 25.5559 254.628 25.5559C255.975 25.5559 256.921 24.9007 256.921 23.9178C256.921 23.3354 256.557 22.6801 255.356 22.3889L253.026 21.8064C251.971 21.5516 249.932 20.6052 249.932 18.5666C249.932 16.4553 252.116 15.1084 254.519 15.1084C256.521 15.1084 258.268 16.0185 258.996 17.8022L257.103 18.603C256.667 17.511 255.575 17.0741 254.446 17.0741C253.208 17.0741 252.153 17.6202 252.153 18.5666C252.153 19.2947 252.772 19.6951 253.682 19.9135L255.975 20.4596C258.268 21.0056 259.178 22.4253 259.178 23.845C259.178 25.8835 257.322 27.4852 254.592 27.4852C251.789 27.4852 250.223 25.8107 249.532 24.1726Z" fill="white"/>
<path d="M261.982 23.5901V17.5109H259.943V15.5452H261.982V12.0142H264.166V15.5452H267.005V17.5109H264.166V23.4445C264.166 24.755 264.712 25.3375 265.731 25.3375C266.132 25.3375 266.423 25.3011 266.714 25.1554L267.479 27.012C267.005 27.2304 266.459 27.3032 265.731 27.3032C263.256 27.3032 261.982 25.9563 261.982 23.5901Z" fill="white"/>
</svg>
