<svg width="263" height="73" viewBox="0 0 263 73" fill="none" xmlns="http://www.w3.org/2000/svg">
<path fill-rule="evenodd" clip-rule="evenodd" d="M51.8898 42.7271C48.8817 42.2073 45.79 41.937 42.6357 41.937C38.2489 41.937 34.0083 42.4776 29.9348 43.5171C25.9031 44.5567 21.6208 45.1181 17.2548 45.1181C15.6881 45.1181 14.1841 45.0557 12.68 44.9102L29.9348 15.2619L40.3587 33.1423C36.7657 33.3087 33.3189 33.8076 29.9348 34.6601C27.4907 35.2838 24.984 35.7204 22.3937 35.9699L19.2602 41.3756C22.9159 41.2301 26.5089 40.6895 29.9348 39.8371C34.0083 38.7975 38.228 38.257 42.6357 38.257C44.9544 38.257 47.2941 38.4025 49.5502 38.7144L29.9348 5.03259L4.53308 48.6526C8.58566 49.7545 12.8471 50.2743 17.234 50.2743C21.6208 50.2743 25.9031 49.7337 29.9139 48.6526C33.9874 47.6546 38.2071 47.0724 42.6148 47.0724C46.9807 47.0724 51.2422 47.6546 55.3157 48.6526L51.8898 42.7271Z" fill="#2E70B3"/>
<path d="M88.6137 33.5788V22.0812H84.5193V33.3501C84.5193 34.2233 84.5611 35.0342 84.6655 35.7827C84.77 36.5311 85.0415 37.2588 85.5011 37.9865C85.9398 38.7142 86.4829 39.2756 87.1096 39.7122C87.7572 40.1488 88.4048 40.4815 89.0523 40.7102C89.6999 40.9389 90.3475 41.1052 90.9951 41.1676C91.6427 41.23 92.1858 41.2715 92.6663 41.2715C93.6272 41.2715 94.609 41.1468 95.5908 40.8973C96.5726 40.6686 97.45 40.2528 98.2647 39.6706C99.0585 39.0885 99.7269 38.34 100.228 37.3836C100.751 36.4272 101.001 35.2629 101.001 33.8491V22.0812H97.0322V33.3501C97.0322 33.8075 97.0113 34.2233 96.9904 34.556C96.9848 34.6029 96.9797 34.6487 96.9747 34.6935C96.971 34.727 96.9674 34.76 96.9639 34.7923L96.9638 34.7932L96.9637 34.7936C96.9366 35.0431 96.9131 35.2588 96.8651 35.45C96.8024 35.6995 96.7397 35.9282 96.677 36.0945C96.5935 36.2816 96.5099 36.4272 96.4055 36.5727C96.1339 36.9678 95.8415 37.2796 95.4863 37.5083C95.1312 37.737 94.7761 37.9034 94.421 38.0073C94.0658 38.1113 93.7316 38.1736 93.4183 38.1944C93.1259 38.2152 92.8961 38.2152 92.729 38.2152C91.7472 38.2152 90.9533 38.0697 90.4102 37.7786C89.8461 37.5083 89.4492 37.1341 89.1777 36.6767C88.927 36.2193 88.7599 35.7203 88.6972 35.1797C88.6346 34.6391 88.6137 34.0986 88.6137 33.5788Z" fill="black"/>
<path d="M91.8933 19.7942H89.2195V16.7171H91.8933V19.7942Z" fill="black"/>
<path d="M96.4055 19.7942H93.7316V16.7171H96.4055V19.7942Z" fill="black"/>
<path d="M66.1991 25.1791H71.8602V40.9389H75.9336V25.1791H81.5947V22.102H66.1991V25.1791Z" fill="black"/>
<path d="M108.396 22.102L113.368 36.9469L118.36 22.102H122.371L115.373 40.9389H110.945L103.947 22.102H108.396Z" fill="black"/>
<path fill-rule="evenodd" clip-rule="evenodd" d="M132.712 22.102H125.902V40.9389H128.534V32.4352H131.834C132.628 32.4352 133.276 32.4976 133.777 32.6016C134.299 32.7263 134.696 32.9134 134.989 33.1837C135.281 33.454 135.49 33.8075 135.636 34.2649C135.761 34.7223 135.887 35.2836 135.97 35.9698C136.009 36.1863 136.039 36.4261 136.072 36.6799C136.092 36.8404 136.113 37.0065 136.138 37.1756C136.169 37.4043 136.2 37.6278 136.231 37.8513C136.263 38.0748 136.294 38.2983 136.326 38.5271C136.388 38.9637 136.472 39.4211 136.555 39.8369C136.639 40.2527 136.743 40.627 136.848 40.9389H139.668C139.48 40.4191 139.313 39.9201 139.208 39.4419C139.192 39.3691 139.176 39.2968 139.161 39.2248L139.161 39.2246L139.161 39.2242C139.072 38.8236 138.987 38.4333 138.916 38.0281C138.811 37.5499 138.749 37.0717 138.686 36.5935C138.623 36.1153 138.561 35.5955 138.498 35.0342C138.435 34.452 138.331 33.953 138.185 33.5372C138.059 33.1214 137.871 32.7887 137.642 32.5184C137.412 32.2481 137.14 32.0194 136.806 31.8531C136.472 31.6868 136.075 31.5412 135.615 31.4165C135.929 31.3333 136.263 31.2086 136.66 31.0422C137.057 30.8759 137.454 30.5848 137.85 30.1898C138.268 29.774 138.602 29.275 138.832 28.6928C139.062 28.1315 139.187 27.5077 139.187 26.8424C139.187 26.0731 138.999 25.3454 138.665 24.6801C138.331 24.0148 137.788 23.4534 137.078 22.996C136.722 22.7673 136.346 22.601 135.95 22.4762C135.553 22.3515 135.135 22.2683 134.738 22.206L134.675 22.1994C134.301 22.1601 133.946 22.1228 133.61 22.1228C133.255 22.102 132.962 22.102 132.712 22.102ZM128.513 30.2522V24.3059H132.649C132.921 24.3059 133.276 24.3267 133.693 24.3683C134.132 24.389 134.55 24.5138 134.947 24.7009C135.344 24.888 135.699 25.1791 135.991 25.5949C136.284 26.0108 136.43 26.5929 136.43 27.3622C136.43 27.7572 136.388 28.1107 136.284 28.381C136.179 28.672 136.075 28.9007 135.929 29.1087C135.782 29.3166 135.636 29.4829 135.49 29.5868C135.395 29.6678 135.309 29.7225 135.237 29.7679C135.199 29.7925 135.164 29.8145 135.135 29.8363C134.947 29.9403 134.738 30.0235 134.487 30.0858C134.237 30.1482 133.986 30.1898 133.735 30.2106L133.672 30.2158C133.446 30.2347 133.237 30.2522 133.046 30.2522H128.513Z" fill="black"/>
<path d="M145.642 22.102V29.774C146.039 29.0879 146.624 28.5473 147.397 28.173C148.17 27.7988 149.005 27.6117 149.946 27.6117C150.301 27.6117 150.677 27.6533 151.074 27.7156C151.47 27.778 151.867 27.9028 152.264 28.0483C152.64 28.2146 152.995 28.4225 153.33 28.6928C153.664 28.9631 153.915 29.2958 154.103 29.6908L154.291 30.1274C154.353 30.273 154.395 30.4601 154.416 30.7096C154.458 30.9383 154.479 31.2294 154.499 31.562C154.52 31.8947 154.541 32.2897 154.541 32.7679V40.9597H152.014V33.2045C152.014 32.9583 151.999 32.6674 151.981 32.3318L151.981 32.3304L151.981 32.3269L151.979 32.2862C151.977 32.2397 151.974 32.1923 151.972 32.1442C151.951 31.7283 151.846 31.3125 151.658 30.9383C151.47 30.5432 151.199 30.2106 150.802 29.9403C150.405 29.67 149.862 29.5245 149.173 29.5245C148.713 29.5245 148.316 29.5868 147.961 29.7116C147.606 29.8363 147.313 29.9819 147.063 30.169C146.812 30.3561 146.603 30.5432 146.436 30.7512C146.269 30.9591 146.165 31.1254 146.06 31.2917C145.851 31.666 145.726 32.1026 145.684 32.6432C145.642 33.1837 145.621 33.6619 145.621 34.057V41.0012H143.115V22.102H145.642Z" fill="black"/>
<path fill-rule="evenodd" clip-rule="evenodd" d="M160.495 36.7183C160.349 36.1361 160.286 35.5124 160.307 34.847V34.8678H169.77V33.5996C169.77 33.1006 169.728 32.56 169.624 32.0194C169.54 31.4581 169.373 30.9383 169.143 30.3977C168.913 29.8779 168.579 29.3997 168.161 28.9631C167.743 28.5265 167.179 28.1939 166.511 27.9236C165.842 27.6533 165.007 27.5285 164.025 27.5285C163.837 27.5285 163.586 27.5285 163.315 27.5493C163.043 27.5701 162.751 27.6117 162.417 27.6741C162.082 27.7572 161.748 27.8404 161.414 27.9652C161.08 28.0899 160.745 28.2562 160.432 28.4849C159.409 29.1918 158.719 30.0651 158.364 31.1254C158.009 32.1858 157.842 33.3501 157.842 34.6391C157.842 36.7183 158.343 38.34 159.346 39.5459C160.349 40.7518 161.894 41.3547 163.983 41.3547C164.652 41.3547 165.237 41.2923 165.738 41.1676C166.239 41.0428 166.657 40.8973 167.033 40.731C167.409 40.5438 167.702 40.3567 167.952 40.1488C168.203 39.9409 168.391 39.7746 168.537 39.6082C169.018 39.1093 169.31 38.6103 169.436 38.1113C169.561 37.6123 169.624 37.1965 169.665 36.8638H167.2C167.096 37.7994 166.762 38.4647 166.177 38.9013C165.613 39.338 164.923 39.5459 164.109 39.5459C163.419 39.5459 162.834 39.4211 162.354 39.1924C161.873 38.9637 161.477 38.631 161.163 38.2152C160.85 37.7786 160.641 37.2796 160.495 36.7183ZM167.263 33.1214C167.263 33.1076 167.263 33.0938 167.263 33.0798L167.263 33.1214ZM167.263 33.0798C167.261 32.7764 167.239 32.4151 167.179 31.9779C167.117 31.5412 166.991 31.1046 166.762 30.7096C166.553 30.3146 166.218 29.9611 165.78 29.67C165.341 29.379 164.735 29.2334 163.983 29.2334C163.586 29.2334 163.169 29.2958 162.751 29.4205C162.333 29.5453 161.957 29.774 161.602 30.0651C161.268 30.3769 160.975 30.772 160.745 31.2502C160.516 31.7284 160.39 32.3521 160.369 33.0798H167.263Z" fill="black"/>
<path d="M172.903 24.8049H175.87V22.1228H172.903V24.8049Z" fill="black"/>
<path d="M173.154 40.9389H175.619V27.8404H173.154V40.9389Z" fill="black"/>
<path d="M180.006 27.8404L180.027 29.3581V40.9388H182.492V33.3916C182.492 32.7263 182.596 32.1441 182.784 31.6659C182.993 31.1877 183.244 30.7719 183.557 30.4393C183.87 30.1066 184.225 29.8779 184.643 29.7116C185.04 29.566 185.479 29.4829 185.938 29.4829C186.356 29.4829 186.774 29.566 187.192 29.7116C187.589 29.8571 187.965 30.0858 188.278 30.3769C188.591 30.668 188.779 31.0214 188.863 31.3957C188.946 31.7699 188.988 32.1857 188.988 32.6223V40.9388H191.516V32.0402C191.516 31.0422 191.307 30.2314 190.931 29.6492C190.555 29.0463 190.095 28.6096 189.573 28.2978C189.051 28.0067 188.529 27.7988 187.985 27.7156C187.442 27.6325 187.025 27.5909 186.732 27.5909C185.98 27.5909 185.333 27.674 184.831 27.8819C184.309 28.0691 183.912 28.2978 183.578 28.5681C183.264 28.8383 183.014 29.0878 182.847 29.3581C182.81 29.4172 182.776 29.4723 182.743 29.5239L182.742 29.5252C182.627 29.7089 182.54 29.8476 182.492 29.9611L182.471 27.8404H180.006Z" fill="black"/>
<path d="M198.138 22.102H195.673V40.9181H198.138V22.102Z" fill="black"/>
<path fill-rule="evenodd" clip-rule="evenodd" d="M210.4 39.9825C210.442 40.2943 210.504 40.6062 210.588 40.9389V40.8973H212.761C212.698 40.5646 212.656 40.232 212.635 39.8577C212.593 39.4835 212.573 39.1508 212.573 38.8389C212.573 38.6722 212.566 38.5174 212.561 38.3744V38.3711C212.556 38.2479 212.552 38.1336 212.552 38.0281C212.531 37.7994 212.531 37.6746 212.531 37.6123L212.635 31.3541C212.635 31.0422 212.614 30.7512 212.573 30.4185C212.531 30.1066 212.405 29.7324 212.197 29.3374C212.008 29.0255 211.758 28.7344 211.424 28.4849C211.089 28.2354 210.713 28.0483 210.296 27.882C209.878 27.7156 209.418 27.6117 208.938 27.5285C208.457 27.4454 207.977 27.4038 207.496 27.4038C207.141 27.4038 206.765 27.4246 206.368 27.4661C205.992 27.5077 205.595 27.5909 205.219 27.6948C204.843 27.7988 204.488 27.9443 204.133 28.1315C203.778 28.3186 203.486 28.5473 203.235 28.8176C202.838 29.2542 202.608 29.7116 202.504 30.1274C202.42 30.564 202.358 30.9383 202.316 31.2917H204.781C204.781 31.167 204.802 30.9799 204.843 30.7304C204.885 30.4809 205.01 30.2314 205.178 29.9819C205.366 29.7324 205.616 29.5245 205.971 29.3374C206.327 29.1502 206.828 29.0671 207.455 29.0671C207.81 29.0671 208.227 29.1294 208.687 29.2542C209.147 29.3789 209.502 29.6076 209.752 29.9403C209.878 30.0858 209.961 30.2522 210.024 30.4185C210.087 30.5848 210.128 30.7927 210.149 31.0007C210.191 31.2294 210.212 31.4789 210.212 31.7907C210.233 32.1026 210.233 32.456 210.233 32.8511C209.857 32.8095 209.544 32.7887 209.293 32.7887C209.063 32.7679 208.771 32.7679 208.457 32.7679C208.186 32.7679 207.872 32.7679 207.496 32.7887C207.12 32.8095 206.723 32.8511 206.306 32.9134C205.888 32.9758 205.47 33.0798 205.052 33.1837C204.634 33.2877 204.258 33.454 203.903 33.6411C203.402 33.9322 203.005 34.2441 202.713 34.5767C202.42 34.9094 202.19 35.2629 202.023 35.5955C201.856 35.9282 201.752 36.2608 201.689 36.5935C201.626 36.9262 201.605 37.2172 201.605 37.4875C201.605 38.0281 201.689 38.5271 201.898 39.0053C202.107 39.4835 202.399 39.8785 202.796 40.232C203.193 40.5854 203.674 40.8557 204.258 41.0636C204.843 41.2507 205.512 41.3547 206.264 41.3547C206.556 41.3547 206.87 41.3339 207.204 41.2923C207.538 41.2507 207.893 41.1468 208.269 40.9804C208.624 40.8349 209 40.5854 209.356 40.2735C209.711 39.9409 210.045 39.5251 210.337 38.9845C210.337 39.3379 210.358 39.6706 210.4 39.9825ZM209.648 34.5144C209.857 34.5144 210.066 34.5352 210.296 34.5767L210.291 34.6707C210.272 35.0884 210.255 35.4522 210.275 35.7618C210.254 36.0945 210.233 36.3856 210.191 36.6559C210.149 36.9261 210.108 37.1549 210.024 37.3628C209.94 37.5707 209.836 37.7786 209.69 38.0073C209.063 38.9429 208.123 39.4211 206.87 39.4211C206.327 39.4211 205.867 39.3587 205.512 39.1924C205.157 39.0469 204.885 38.8389 204.676 38.6102C204.467 38.3607 204.342 38.132 204.258 37.8618C204.175 37.5915 204.133 37.3628 204.133 37.1549C204.133 36.4895 204.342 35.9905 204.739 35.6163C205.136 35.2629 205.595 34.9926 206.139 34.8262C206.661 34.6599 207.204 34.556 207.726 34.5352C207.879 34.5291 208.019 34.523 208.147 34.5175L208.147 34.5174C208.458 34.504 208.698 34.4936 208.875 34.4936C209.048 34.4936 209.201 34.4999 209.339 34.5055C209.452 34.5102 209.554 34.5144 209.648 34.5144Z" fill="black"/>
<path d="M216.855 29.3581L216.834 27.8404H219.299L219.32 29.9611C219.369 29.8475 219.456 29.7087 219.571 29.5247C219.604 29.4729 219.638 29.4175 219.675 29.3581C219.842 29.0878 220.093 28.8383 220.406 28.5681C220.74 28.2978 221.137 28.0691 221.659 27.8819C222.161 27.674 222.808 27.5909 223.56 27.5909C223.853 27.5909 224.271 27.6325 224.814 27.7156C225.357 27.7988 225.879 28.0067 226.401 28.2978C226.924 28.6096 227.383 29.0463 227.759 29.6492C228.135 30.2314 228.344 31.0422 228.344 32.0402V40.9388H225.816V32.6223C225.816 32.1857 225.775 31.7699 225.691 31.3957C225.608 31.0214 225.42 30.668 225.106 30.3769C224.793 30.0858 224.417 29.8571 224.02 29.7116C223.602 29.566 223.184 29.4829 222.767 29.4829C222.307 29.4829 221.868 29.566 221.471 29.7116C221.054 29.8779 220.699 30.1066 220.385 30.4393C220.072 30.7719 219.821 31.1877 219.612 31.6659C219.424 32.1441 219.32 32.7263 219.32 33.3916V40.9388H216.855V29.3581Z" fill="black"/>
<path fill-rule="evenodd" clip-rule="evenodd" d="M244.053 22.102H241.609V29.5661C241.525 29.4205 241.4 29.2334 241.233 28.9839C241.066 28.7344 240.815 28.5057 240.502 28.2562C240.188 28.0067 239.771 27.7988 239.29 27.6117C238.789 27.4246 238.204 27.3414 237.494 27.3414C236.721 27.3414 235.969 27.4869 235.259 27.7572C234.548 28.0275 233.901 28.4641 233.358 29.0463C232.794 29.6284 232.355 30.3769 232.021 31.2709C231.686 32.165 231.519 33.2461 231.519 34.4936C231.519 35.949 231.728 37.0925 232.167 37.9657C232.606 38.8389 233.107 39.5043 233.713 39.9825C234.298 40.4399 234.924 40.7517 235.572 40.9181C236.219 41.0636 236.763 41.1468 237.201 41.1468C237.661 41.1468 238.183 41.0844 238.768 40.9389C239.353 40.8141 239.917 40.5646 240.46 40.1904C240.815 39.9409 241.066 39.7122 241.233 39.4627C241.379 39.234 241.525 39.0053 241.63 38.8181L241.693 40.8973H244.158L244.157 40.8967C244.137 40.7097 244.116 40.5228 244.116 40.3151C244.116 40.2112 244.11 40.1124 244.105 40.0136C244.1 39.9149 244.095 39.8161 244.095 39.7122C244.095 39.6159 244.089 39.5195 244.084 39.4261L244.084 39.4251C244.079 39.3373 244.074 39.252 244.074 39.1716C244.053 39.0053 244.053 38.8805 244.053 38.8181V22.102ZM241.379 31.9155C241.567 32.4768 241.672 33.2461 241.672 34.2025C241.672 34.452 241.651 34.8886 241.567 35.45C241.525 36.0321 241.379 36.6143 241.149 37.2172C240.92 37.8202 240.544 38.34 240 38.7974C239.457 39.2548 238.705 39.4835 237.744 39.4835C236.992 39.4835 236.387 39.3379 235.906 39.0261C235.426 38.7142 235.071 38.3192 234.799 37.841C234.527 37.3628 234.36 36.8222 234.256 36.2192C234.151 35.6163 234.11 35.0341 234.11 34.452C234.11 34.4046 234.113 34.3422 234.116 34.2649L234.116 34.2636L234.117 34.2625V34.2618C234.123 34.1358 234.131 33.9705 234.131 33.7659C234.151 33.4332 234.193 33.0798 234.256 32.6847C234.339 32.2897 234.444 31.8947 234.59 31.4789C234.757 31.063 234.945 30.6888 235.217 30.3561C235.467 30.0235 235.802 29.7324 236.219 29.5245C236.637 29.2958 237.159 29.1918 237.765 29.1918C238.476 29.1918 239.06 29.3374 239.541 29.6076C240.042 29.8779 240.397 30.1898 240.669 30.5432C240.941 30.8967 241.191 31.3541 241.379 31.9155Z" fill="black"/>
<path fill-rule="evenodd" clip-rule="evenodd" d="M253.412 22.6218C253.516 22.6218 253.662 22.6218 253.871 22.6426C254.08 22.6634 254.289 22.7049 254.498 22.7881C254.707 22.8713 254.895 23.0168 255.041 23.2039C255.208 23.391 255.271 23.6613 255.271 23.994C255.271 24.0356 255.271 24.1187 255.25 24.2227C255.25 24.3266 255.208 24.4514 255.125 24.5969C255.062 24.7425 254.958 24.8672 254.811 24.992C254.665 25.1375 254.477 25.2207 254.226 25.3038C254.519 25.3662 254.728 25.491 254.832 25.6365C254.937 25.782 255.02 26.0315 255.062 26.3642C255.104 26.6968 255.146 27.0087 255.187 27.279C255.229 27.5493 255.292 27.8196 255.396 28.0899H254.602C254.582 28.0067 254.561 27.9235 254.519 27.8404C254.498 27.7572 254.477 27.674 254.456 27.5701C254.435 27.4661 254.414 27.3414 254.394 27.1958C254.389 27.1616 254.384 27.125 254.378 27.0863C254.362 26.961 254.342 26.8142 254.31 26.6553C254.289 26.4474 254.268 26.281 254.206 26.1355C254.164 26.0107 254.101 25.886 254.017 25.8028C253.934 25.7197 253.809 25.6573 253.662 25.6365C253.516 25.5949 253.328 25.5949 253.098 25.5949H252.137V28.0691H251.385V22.6218H253.412ZM252.221 24.9712H253.391C253.474 24.9712 253.6 24.9712 253.725 24.9504C253.85 24.9504 253.976 24.9088 254.08 24.8464C254.185 24.7841 254.289 24.7009 254.373 24.5969C254.456 24.493 254.498 24.3266 254.498 24.1187C254.498 23.9108 254.456 23.7445 254.373 23.6197C254.289 23.495 254.206 23.4118 254.101 23.3703C253.997 23.3079 253.871 23.2871 253.746 23.2663C253.68 23.2663 253.621 23.2606 253.564 23.2552C253.511 23.2502 253.462 23.2455 253.412 23.2455H252.221V24.9712Z" fill="black"/>
<path fill-rule="evenodd" clip-rule="evenodd" d="M253.328 20.3139C254.038 20.3139 254.707 20.4387 255.334 20.709C255.96 20.9793 256.503 21.3327 256.963 21.7901C257.422 22.2475 257.799 22.7881 258.07 23.4118C258.342 24.0356 258.488 24.7009 258.488 25.4078C258.488 26.1355 258.342 26.8008 258.07 27.4245C257.799 28.0483 257.422 28.5889 256.963 29.0463C256.503 29.5037 255.96 29.8779 255.334 30.1482C254.707 30.4185 254.038 30.5432 253.349 30.5432C252.66 30.5432 251.991 30.4185 251.365 30.1482C250.738 29.8779 250.195 29.5245 249.735 29.0463C249.276 28.5889 248.9 28.0483 248.628 27.4245C248.356 26.8008 248.21 26.1355 248.21 25.4078C248.21 24.7009 248.356 24.0356 248.628 23.4118C248.9 22.7881 249.276 22.2475 249.756 21.7901C250.236 21.3327 250.78 20.9793 251.385 20.709C251.97 20.4387 252.639 20.3139 253.328 20.3139ZM253.328 20.9169C252.701 20.9169 252.137 21.0416 251.573 21.2703C251.03 21.499 250.55 21.8317 250.132 22.2267C249.714 22.6426 249.401 23.1 249.15 23.6405C248.9 24.1811 248.795 24.7633 248.795 25.387C248.795 26.0315 248.92 26.6137 249.15 27.175C249.38 27.7156 249.714 28.1938 250.132 28.6096C250.55 29.0255 251.03 29.3373 251.573 29.566C252.117 29.7947 252.701 29.9195 253.328 29.9195C253.955 29.9195 254.54 29.7947 255.083 29.566C255.626 29.3373 256.106 29.0047 256.524 28.5889C256.942 28.173 257.255 27.6948 257.506 27.1543C257.736 26.6137 257.861 26.0107 257.861 25.387C257.861 24.7841 257.736 24.2019 257.506 23.6613C257.276 23.1208 256.963 22.6426 256.545 22.2267C256.127 21.8109 255.647 21.499 255.104 21.2495C254.54 21.0416 253.955 20.9169 253.328 20.9169Z" fill="black"/>
<path fill-rule="evenodd" clip-rule="evenodd" d="M70.6486 51.1681H66.1991V64.329H68.0374V58.5282H70.5441C72.9882 58.4866 75.2443 57.5926 75.2443 54.8482C75.2443 51.979 73.1136 51.0642 70.6486 51.1681ZM70.9501 56.9691C70.938 56.969 70.9279 56.9689 70.9201 56.9689H68.0374V52.7275H70.9201C70.9271 52.7275 70.9362 52.7273 70.9474 52.7272C71.2712 52.7231 73.3016 52.6975 73.3016 54.8482C73.3016 56.9973 71.2936 56.9732 70.9501 56.9691Z" fill="black"/>
<path d="M79.276 64.3498H77.5213V55.2017H79.276V56.9689H79.3178C79.5685 55.7214 80.7592 55.0769 82.0126 55.0769C82.1302 55.0769 82.2314 55.0824 82.3302 55.0877C82.4244 55.0928 82.5164 55.0977 82.6184 55.0977V56.7402C82.3886 56.657 82.0961 56.657 81.8663 56.657C79.652 56.7402 79.276 57.9045 79.276 59.8381V64.3498Z" fill="black"/>
<path fill-rule="evenodd" clip-rule="evenodd" d="M88.0706 63.3518C86.2949 63.3518 85.6265 61.6886 85.7518 60.0876H92.2694V59.2352C92.2694 56.6987 90.9533 54.973 88.1959 54.9106C85.2714 54.9106 83.9135 57.1561 83.9135 59.8381C83.9135 62.541 85.0833 64.6201 88.0497 64.6201C90.2431 64.6201 91.8725 63.5806 92.144 61.5014H90.3057C90.1177 62.8321 89.4284 63.3518 88.0706 63.3518ZM88.0497 56.1581C89.7417 56.1581 90.452 57.3432 90.4102 58.8817H85.7309C85.7309 57.3848 86.5874 56.1581 88.0497 56.1581Z" fill="black"/>
<path d="M99.9567 58.1332C99.8731 56.9897 99.3091 56.1788 98.0557 56.1788C96.3846 56.1788 95.737 57.6134 95.737 59.7757C95.737 61.9172 96.3846 63.3726 98.0557 63.3726C99.2047 63.3726 99.9358 62.6241 100.019 61.3142H101.774C101.628 63.3726 100.082 64.6408 98.0349 64.6408C95.0685 64.6408 93.8987 62.5617 93.8987 59.8588C93.8987 57.1768 95.2565 54.9313 98.1811 54.9313C100.124 54.9313 101.607 56.158 101.691 58.1332H99.9567Z" fill="black"/>
<path d="M105.973 53.0601H103.905V51.1889H105.973V53.0601Z" fill="black"/>
<path d="M105.827 64.3498H104.072V55.2016H105.827V64.3498Z" fill="black"/>
<path d="M112.094 54.9106C113.848 54.9106 115.812 55.6383 115.687 57.7174H113.848C113.911 56.5531 113.013 56.1581 112.01 56.1581C111.07 56.1581 110.318 56.5947 110.318 57.6135C110.318 58.4389 111.36 58.6502 112.1 58.8001C112.273 58.8352 112.43 58.867 112.553 58.9025C112.785 58.9796 113.023 59.0489 113.258 59.1177C114.613 59.5132 115.916 59.8937 115.916 61.647C115.916 63.8924 113.702 64.5785 111.822 64.5785C109.9 64.5785 108.271 63.7053 108.292 61.5846H110.13C110.172 62.7073 110.945 63.3103 112.01 63.3103C113.034 63.3103 114.078 62.9152 114.078 61.7301C114.078 60.8522 113.039 60.6344 111.856 60.3863C110.293 60.0587 108.48 59.6785 108.48 57.6551C108.459 55.7631 110.422 54.9106 112.094 54.9106Z" fill="black"/>
<path fill-rule="evenodd" clip-rule="evenodd" d="M121.786 63.3518C120.011 63.3518 119.342 61.6886 119.468 60.0876H125.985V59.2352C125.985 56.6987 124.669 54.973 121.912 54.9106C118.987 54.9106 117.629 57.1561 117.629 59.8381C117.629 62.541 118.799 64.6201 121.765 64.6201C123.959 64.6201 125.588 63.5806 125.86 61.5014H124.022C123.834 62.8321 123.144 63.3518 121.786 63.3518ZM121.765 56.1581C123.458 56.1581 124.168 57.3432 124.126 58.8817H119.447C119.447 57.3848 120.303 56.1581 121.765 56.1581Z" fill="black"/>
<path d="M130.351 51.1682H128.596V64.329H130.351V51.1682Z" fill="black"/>
<path d="M134.759 67.8427H136.534L141.966 55.1809H140.086L137.14 62.4162L134.257 55.1809H132.315L136.158 64.3082L134.759 67.8427Z" fill="black"/>
<path fill-rule="evenodd" clip-rule="evenodd" d="M150.76 58.4243V64.3498H148.922V51.1889H153.664C155.878 51.1889 158.176 51.875 158.176 54.4947C158.176 56.0748 157.215 57.3015 155.669 57.6758V57.7174C157.278 58.0916 157.487 58.944 157.696 60.4202C157.732 60.6518 157.767 60.8866 157.803 61.123L157.803 61.1259C157.967 62.226 158.136 63.3617 158.531 64.3705H156.567C156.523 64.1584 156.473 63.9418 156.423 63.7231C156.288 63.1272 156.148 62.5159 156.087 61.938C156.062 61.7339 156.041 61.5329 156.021 61.3367C155.923 60.3934 155.836 59.5607 155.335 59.0272C154.876 58.5181 154.284 58.4833 153.67 58.4473L153.67 58.4473C153.557 58.4406 153.443 58.434 153.33 58.4243H150.76ZM150.739 56.8233H153.768C155.815 56.7402 156.275 55.8253 156.275 54.7858C156.275 53.7462 155.815 52.8314 153.768 52.7482H150.739V56.8233Z" fill="black"/>
<path d="M163.21 53.0601H161.142V51.1889H163.21V53.0601Z" fill="black"/>
<path d="M163.064 64.3498H161.309V55.2016H163.064V64.3498Z" fill="black"/>
<path fill-rule="evenodd" clip-rule="evenodd" d="M172.736 55.1808H174.533C174.47 55.7214 174.428 56.2828 174.428 56.8233V63.2686C174.428 66.616 172.966 67.9882 169.582 67.9882C167.597 67.9882 166.177 67.1566 166.156 65.0359H167.994C168.078 66.2625 168.913 66.7407 170.146 66.7407C172.592 66.7407 172.631 64.7683 172.671 62.7443L172.673 62.6449H172.611C172.068 63.7468 170.71 64.1834 169.582 64.1834C166.762 64.1834 165.654 62.2083 165.654 59.6509C165.654 57.0104 167.138 54.9313 169.937 54.9313C170.835 54.9313 171.838 55.3056 172.402 56.1372C172.417 56.1523 172.457 56.2299 172.501 56.3169C172.58 56.4705 172.673 56.6535 172.673 56.5738L172.736 55.1808ZM170.083 62.9152C171.984 62.9152 172.673 61.3142 172.673 59.547C172.673 57.7797 171.984 56.1788 170.083 56.1788C168.036 56.1788 167.493 58.1124 167.493 59.547C167.493 60.9816 168.057 62.9152 170.083 62.9152Z" fill="black"/>
<path d="M177.603 51.1889V64.329H179.337V59.6301C179.337 59.5448 179.334 59.456 179.331 59.3631C179.316 58.8902 179.298 58.3087 179.63 57.5094C179.943 56.761 181.029 56.2204 181.719 56.2412C183.369 56.2828 183.787 57.3223 183.787 58.9232V64.3498H185.541V58.154C185.541 56.5115 184.789 54.9313 182.387 54.9313C181.05 54.9313 180.068 55.4095 179.4 56.4283H179.358V51.1889H177.603Z" fill="black"/>
<path d="M188.925 55.1809V53.2265L190.68 52.6859V55.1809L192.811 55.1185V56.4075L190.68 56.3868V62.2915C190.68 62.9568 191.202 63.2479 191.829 63.2479C192.101 63.2479 192.477 63.2063 192.748 63.1439V64.4745C192.578 64.4835 192.408 64.5038 192.238 64.5242C192.011 64.5513 191.784 64.5785 191.558 64.5785C191.14 64.5785 190.806 64.5577 190.388 64.4953C190.116 64.433 189.657 64.2874 189.364 63.8924C189.354 63.8782 189.344 63.8644 189.334 63.851L189.313 63.8217C189.042 63.4473 188.967 63.3447 188.967 62.1875V56.366L187.38 56.3868V55.0977L188.925 55.1809Z" fill="black"/>
<path d="M194.795 62.1459H196.926V64.329H194.795V62.1459Z" fill="black"/>
</svg>
