<svg width="50" height="50" viewBox="0 0 50 50" fill="none" xmlns="http://www.w3.org/2000/svg">
<path fill-rule="evenodd" clip-rule="evenodd" d="M5 25C5 20.0294 9.02944 16 14 16H36C40.9706 16 45 20.0294 45 25C45 29.9706 40.9706 34 36 34H14C9.02944 34 5 29.9706 5 25ZM14 18C10.134 18 7 21.134 7 25C7 28.866 10.134 32 14 32H36C39.866 32 43 28.866 43 25C43 21.134 39.866 18 36 18H14Z" fill="white"/>
<path d="M12 25C12 23.3431 13.3431 22 15 22H35C36.6569 22 38 23.3431 38 25C38 26.6569 36.6569 28 35 28H15C13.3431 28 12 26.6569 12 25Z" fill="white"/>
</svg>
