<svg width="315" height="130" viewBox="0 0 315 130" fill="none" xmlns="http://www.w3.org/2000/svg">
<g clip-path="url(#clip0)">
<path fill-rule="evenodd" clip-rule="evenodd" d="M125.855 44.2933C105.952 78.2454 103.415 114.929 120.586 126.442C135.221 136.198 159.612 123.905 178.929 98.5385H131.123V91.7091L160.782 36.6833H130.928L125.855 44.2933Z" fill="#00A651"/>
<path fill-rule="evenodd" clip-rule="evenodd" d="M187.712 85.4653C207.81 51.5133 210.152 14.8294 192.981 3.31695C178.541 -6.24426 154.736 5.46335 135.613 29.8542H180.883V36.0983L151.223 91.7094H183.81L187.712 85.4653Z" fill="#ED1C24"/>
<path fill-rule="evenodd" clip-rule="evenodd" d="M46.6353 88.1969C46.6353 88.1969 34.1472 88.9774 28.4885 88.9774C18.9273 88.9774 11.7076 86.6359 6.82944 82.148C2.34152 77.8552 0 72.1965 0 64.7817C0 57.562 2.53665 51.7082 7.80507 47.0252C13.2686 42.147 20.6834 39.6104 30.2446 39.6104C35.1228 39.6104 39.6107 40.9762 43.7084 43.708C47.6109 46.4398 49.7573 49.7569 49.7573 53.4644H41.7571C41.7571 50.7326 40.9766 48.3911 39.2205 46.6349C37.4643 44.6836 34.5374 43.708 31.2203 43.708C28.8788 43.708 26.9275 43.9031 25.3665 44.2934C23.8055 44.6837 22.6347 45.6593 21.8542 47.0252C20.2932 49.5618 19.5127 55.4156 19.5127 64.7817C19.5127 76.2942 21.0737 82.7334 24.3908 83.709C25.5616 84.0993 26.9275 84.2944 28.4885 84.2944C33.3667 84.2944 40.1961 82.3431 40.1961 78.4406V64.3915H31.2203V60.0987H58.1478L46.6353 88.1969Z" fill="black"/>
<path fill-rule="evenodd" clip-rule="evenodd" d="M103.024 88.3922H85.0721L81.3647 77.8554H62.8277L58.9251 88.3922H52.0957L70.2425 39.8057H85.8526L103.024 88.3922ZM79.8037 72.9772L72.584 51.5133L64.7789 72.9772H79.8037Z" fill="black"/>
<path fill-rule="evenodd" clip-rule="evenodd" d="M256.591 88.5874H210.736V39.8057H252.689V44.6838H229.468V59.9037H248.006V64.1965H229.468V83.9043H256.591V88.5874Z" fill="black"/>
<path fill-rule="evenodd" clip-rule="evenodd" d="M314.544 88.5874H294.251C294.251 88.5874 291.714 68.8796 290.739 67.5137C289.373 65.9527 287.031 64.977 283.714 64.977H280.592V88.3922H262.445V39.8057H289.373C295.617 39.8057 300.885 40.7813 304.983 42.5374C310.056 44.879 312.788 48.1961 312.788 52.4889C312.788 58.5378 308.3 62.2452 299.324 64.0014C302.056 64.7819 304.202 65.5624 305.373 65.9527C307.91 67.1234 309.471 68.8796 310.251 71.2211C310.447 72.587 314.544 88.5874 314.544 88.5874ZM294.641 52.684C294.641 47.0254 291.129 44.2936 284.104 44.2936H280.592V61.2696H284.104C290.934 61.0745 294.641 58.3427 294.641 52.684Z" fill="black"/>
<path fill-rule="evenodd" clip-rule="evenodd" d="M5.26684 29.8538H135.807L130.928 36.6832H0.388672L5.26684 29.8538Z" fill="black"/>
<path fill-rule="evenodd" clip-rule="evenodd" d="M183.808 91.7095H314.543L309.665 98.5389H178.93L183.808 91.7095Z" fill="black"/>
</g>
<defs>
<clipPath id="clip0">
<rect width="314.544" height="129.759" fill="white"/>
</clipPath>
</defs>
</svg>
