<svg width="80" height="80" viewBox="0 0 80 80" fill="none" xmlns="http://www.w3.org/2000/svg">
<path fill-rule="evenodd" clip-rule="evenodd" d="M3.3335 60.6667C3.3335 59.7462 4.07969 59 5.00016 59H33.6668C34.5873 59 35.3335 59.7462 35.3335 60.6667C35.3335 61.5871 34.5873 62.3333 33.6668 62.3333H5.00016C4.07969 62.3333 3.3335 61.5871 3.3335 60.6667Z" fill="#C4C4C4"/>
<path fill-rule="evenodd" clip-rule="evenodd" d="M45.3335 60.6667C45.3335 59.7462 46.0797 59 47.0002 59H75.6668C76.5873 59 77.3335 59.7462 77.3335 60.6667C77.3335 61.5871 76.5873 62.3333 75.6668 62.3333H47.0002C46.0797 62.3333 45.3335 61.5871 45.3335 60.6667Z" fill="#C4C4C4"/>
<path d="M42.6667 60.6663C42.6667 61.955 41.622 62.9997 40.3333 62.9997C39.0447 62.9997 38 61.955 38 60.6663C38 59.3777 39.0447 58.333 40.3333 58.333C41.622 58.333 42.6667 59.3777 42.6667 60.6663Z" fill="#C4C4C4"/>
<path fill-rule="evenodd" clip-rule="evenodd" d="M29.1211 18.8432C32.677 17.4058 36.4868 16.6665 40.3333 16.6665C44.1799 16.6665 47.9897 17.4058 51.5455 18.8432C55.1014 20.2806 58.335 22.3885 61.0607 25.0485C63.7864 27.7085 65.9508 30.8687 67.4282 34.3495C68.9057 37.8305 69.6667 41.5629 69.6667 45.3332V46.6428L70.7614 45.5481C71.4123 44.8972 72.4676 44.8972 73.1184 45.5481C73.7693 46.1989 73.7693 47.2542 73.1184 47.9051L69.1785 51.845C68.5276 52.4959 67.4724 52.4959 66.8215 51.845L62.8815 47.9051C62.2307 47.2542 62.2307 46.1989 62.8815 45.5481C63.5324 44.8972 64.5877 44.8972 65.2386 45.5481L66.3333 46.6428V45.3332C66.3333 42.0121 65.6631 38.7225 64.3598 35.6519C63.0565 32.5812 61.145 29.7884 58.7326 27.4341C56.32 25.0797 53.4537 23.21 50.2963 21.9336C47.1388 20.6573 43.7533 19.9998 40.3333 19.9998C36.9134 19.9998 33.5279 20.6573 30.3704 21.9336C27.2129 23.21 24.3466 25.0797 21.9341 27.4341C19.5216 29.7884 17.6102 32.5812 16.3069 35.6519C15.0036 38.7225 14.3333 42.0121 14.3333 45.3332V46.6428L15.4281 45.5481C16.079 44.8972 17.1342 44.8972 17.7851 45.5481C18.436 46.1989 18.436 47.2542 17.7851 47.9051L13.8452 51.845C13.1943 52.4959 12.139 52.4959 11.4881 51.845L7.54821 47.9051C6.89734 47.2542 6.89734 46.1989 7.54821 45.5481C8.19909 44.8972 9.25436 44.8972 9.90524 45.5481L11 46.6428V45.3332C11 41.5629 11.761 37.8305 13.2385 34.3495C14.7159 30.8687 16.8803 27.7085 19.606 25.0485C22.3316 22.3885 25.5652 20.2806 29.1211 18.8432Z" fill="#DB5335"/>
<path d="M29.0598 47.9804C29.0598 48.6192 28.5419 49.1371 27.9031 49.1371C27.2642 49.1371 26.7463 48.6192 26.7463 47.9804V37.6763L24.6061 38.4264C23.9843 38.6443 23.3335 38.1828 23.3335 37.5239C23.3335 37.1259 23.5799 36.7696 23.9522 36.6291L28.7634 34.8136H29.0598V47.9804Z" fill="white"/>
<path d="M42.6633 38.6273C42.6633 39.3266 42.488 39.9508 42.1375 40.4998C41.787 41.0423 41.309 41.4704 40.7036 41.7842C41.4301 42.1306 41.9878 42.6044 42.3765 43.2057C42.7717 43.807 42.9692 44.4868 42.9692 45.2449C42.9692 46.4998 42.555 47.4966 41.7265 48.2351C40.8979 48.9672 39.7954 49.3332 38.4188 49.3332C37.0358 49.3332 35.9269 48.9639 35.092 48.2253C34.2635 47.4868 33.8492 46.4933 33.8492 45.2449C33.8492 44.4802 34.0468 43.794 34.4419 43.1861C34.8371 42.5783 35.3915 42.1109 36.1053 41.7842C35.5062 41.4704 35.0314 41.0423 34.6809 40.4998C34.3368 39.9508 34.1647 39.3266 34.1647 38.6273C34.1647 37.4116 34.5471 36.4475 35.3119 35.7351C36.0766 35.0227 37.1091 34.6665 38.4092 34.6665C39.7157 34.6665 40.7514 35.0227 41.5161 35.7351C42.2809 36.4475 42.6633 37.4116 42.6633 38.6273ZM40.6462 45.1273C40.6462 44.4214 40.4391 43.8528 40.0248 43.4214C39.6169 42.9835 39.0752 42.7645 38.3997 42.7645C37.7241 42.7645 37.1824 42.9802 36.7745 43.4116C36.373 43.843 36.1722 44.4149 36.1722 45.1273C36.1722 45.8266 36.3698 46.3855 36.7649 46.8038C37.1665 47.2221 37.7177 47.4312 38.4188 47.4312C39.1198 47.4312 39.6647 47.2286 40.0535 46.8234C40.4486 46.4181 40.6462 45.8528 40.6462 45.1273ZM40.3498 38.7155C40.3498 38.0946 40.1746 37.5848 39.8241 37.1861C39.4735 36.7809 39.0019 36.5783 38.4092 36.5783C37.8165 36.5783 37.3481 36.7711 37.0039 37.1567C36.6598 37.5358 36.4877 38.0554 36.4877 38.7155C36.4877 39.3691 36.6598 39.8887 37.0039 40.2743C37.3545 40.66 37.8261 40.8528 38.4188 40.8528C39.0115 40.8528 39.4799 40.66 39.8241 40.2743C40.1746 39.8887 40.3498 39.3691 40.3498 38.7155Z" fill="white"/>
<path d="M54.0968 43.1273C54.0968 45.1796 53.7208 46.7286 52.9687 47.7743C52.2231 48.8136 51.0854 49.3332 49.5559 49.3332C48.0518 49.3332 46.9174 48.8266 46.1526 47.8136C45.3942 46.794 45.0054 45.2874 44.9863 43.294V40.8234C44.9863 38.7711 45.3592 37.2319 46.1048 36.2057C46.8569 35.1796 48.0008 34.6665 49.5368 34.6665C51.06 34.6665 52.1944 35.1665 52.94 36.1665C53.6921 37.1665 54.0776 38.6632 54.0968 40.6567V43.1273ZM51.7737 40.4606C51.7737 39.1208 51.5953 38.1404 51.2384 37.5194C50.8815 36.892 50.3143 36.5783 49.5368 36.5783C48.7784 36.5783 48.2207 36.8757 47.8638 37.4704C47.5069 38.0587 47.3189 38.9802 47.2998 40.2351V43.4704C47.2998 44.8038 47.4814 45.7972 47.8447 46.4508C48.208 47.1044 48.7784 47.4312 49.5559 47.4312C50.3015 47.4312 50.8528 47.1306 51.2097 46.5293C51.5666 45.9214 51.7546 44.9737 51.7737 43.6861V40.4606Z" fill="white"/>
<path d="M58.848 34.6665C59.5235 34.6665 60.1067 34.9247 60.5974 35.441C61.0881 35.9574 61.3335 36.575 61.3335 37.294C61.3335 38.0129 61.0913 38.6273 60.607 39.1371C60.1226 39.6404 59.5363 39.892 58.848 39.892C58.1533 39.892 57.5574 39.6404 57.0603 39.1371C56.5696 38.6273 56.3242 38.0129 56.3242 37.294C56.3242 36.575 56.5727 35.9574 57.0699 35.441C57.5733 34.9247 58.166 34.6665 58.848 34.6665ZM58.848 38.5096C59.1857 38.5096 59.463 38.3953 59.6797 38.1665C59.9027 37.9312 60.0143 37.6404 60.0143 37.294C60.0143 36.9541 59.9027 36.66 59.6797 36.4116C59.463 36.1632 59.1857 36.0391 58.848 36.0391C58.5102 36.0391 58.2266 36.1632 57.9971 36.4116C57.7677 36.66 57.653 36.9541 57.653 37.294C57.653 37.6338 57.7677 37.9214 57.9971 38.1567C58.233 38.392 58.5166 38.5096 58.848 38.5096Z" fill="white"/>
</svg>
