<svg width="80" height="81" viewBox="0 0 80 81" fill="none" xmlns="http://www.w3.org/2000/svg">
<path fill-rule="evenodd" clip-rule="evenodd" d="M61.3332 36.9964H17.9998C16.343 36.9964 14.9998 38.3396 14.9998 39.9964C14.9998 41.6533 16.343 42.9964 17.9998 42.9964H61.3332C62.99 42.9964 64.3332 41.6533 64.3332 39.9964C64.3332 38.3396 62.99 36.9964 61.3332 36.9964ZM17.9998 33.6631C14.502 33.6631 11.6665 36.4986 11.6665 39.9964C11.6665 43.4942 14.502 46.3298 17.9998 46.3298H61.3332C64.831 46.3298 67.6665 43.4942 67.6665 39.9964C67.6665 36.4986 64.831 33.6631 61.3332 33.6631H17.9998Z" fill="white"/>
<path fill-rule="evenodd" clip-rule="evenodd" d="M17.384 22.1113C20.0818 18.6764 23.5372 15.9116 27.4803 14.033C31.4234 12.1545 35.7474 11.2129 40.1146 11.282C44.4818 11.3511 48.7739 12.4289 52.6556 14.4313C56.5373 16.4336 59.9036 19.3063 62.4914 22.8248C63.0367 23.5664 62.8777 24.6096 62.1362 25.1549C61.3947 25.7003 60.3515 25.5413 59.8061 24.7998C57.5227 21.6951 54.5525 19.1604 51.1275 17.3937C47.7024 15.6269 43.9153 14.6759 40.0619 14.6149C36.2085 14.554 32.3932 15.3847 28.9139 17.0423C25.4347 18.6999 22.3858 21.1393 20.0054 24.1702C19.4369 24.8941 18.3892 25.02 17.6653 24.4515C16.9414 23.883 16.8154 22.8352 17.384 22.1113Z" fill="white"/>
<path fill-rule="evenodd" clip-rule="evenodd" d="M17.5988 58.0064C20.2966 61.4413 23.752 64.2061 27.6951 66.0846C31.6382 67.9632 35.9623 68.9047 40.3295 68.8357C44.6966 68.7666 48.9887 67.6888 52.8705 65.6864C56.7522 63.6841 60.1184 60.8114 62.7062 57.2928C63.2516 56.5513 63.0926 55.5081 62.351 54.9627C61.6095 54.4174 60.5663 54.5764 60.0209 55.3179C57.7376 58.4225 54.7674 60.9572 51.3423 62.724C47.9173 64.4908 44.1301 65.4418 40.2767 65.5027C36.4233 65.5637 32.608 64.7329 29.1288 63.0754C25.6496 61.4178 22.6007 58.9783 20.2203 55.9475C19.6517 55.2236 18.604 55.0976 17.8801 55.6662C17.1562 56.2347 17.0303 57.2825 17.5988 58.0064Z" fill="white"/>
<path fill-rule="evenodd" clip-rule="evenodd" d="M52.7625 29.6012C51.3601 28.5699 50.4092 27.9266 49.0216 27.9445C47.6789 27.9619 46.7677 28.5971 45.4173 29.6109C45.3861 29.6343 45.3547 29.6578 45.3231 29.6816C44.053 30.6362 42.3554 31.9122 39.8549 31.9445C37.2767 31.9779 35.5099 30.6685 34.1909 29.6911C34.1576 29.6664 34.1246 29.6419 34.0918 29.6177C32.6837 28.5755 31.7367 27.9267 30.3549 27.9445C29.0122 27.9619 28.101 28.5971 26.7506 29.6109C26.7195 29.6343 26.6881 29.6579 26.6564 29.6816C25.3863 30.6362 23.6887 31.9122 21.1882 31.9445C19.0102 31.9727 17.0895 31.6798 15.3013 30.9269C13.5131 30.174 11.9615 29.0048 10.4595 27.4272C9.82487 26.7605 9.85081 25.7056 10.5175 25.0709C11.1842 24.4362 12.2391 24.4621 12.8738 25.1288C14.1475 26.4667 15.3332 27.3236 16.5949 27.8548C17.8565 28.386 19.2981 28.6354 21.1451 28.6115C22.4878 28.5941 23.399 27.9589 24.7494 26.9451C24.7805 26.9217 24.8119 26.8981 24.8436 26.8744C26.1137 25.9198 27.8113 24.6438 30.3118 24.6115C32.8899 24.5781 34.6568 25.8875 35.9757 26.8649C36.0091 26.8896 36.0421 26.9141 36.0748 26.9383C37.483 27.9805 38.43 28.6293 39.8118 28.6115C41.1545 28.5941 42.0656 27.9589 43.4161 26.9451C43.4472 26.9217 43.4786 26.8981 43.5102 26.8744C44.7803 25.9198 46.478 24.6438 48.9784 24.6115C51.5612 24.5781 53.3279 25.8784 54.6537 26.8543C54.6817 26.8749 54.7096 26.8954 54.7373 26.9158C56.1471 27.9526 57.1032 28.6113 58.5 28.6113C60.3544 28.6113 61.794 28.3538 63.0579 27.8217C64.3217 27.2896 65.5119 26.4398 66.8078 25.1133C67.4511 24.4549 68.5063 24.4426 69.1647 25.0858C69.8231 25.7291 69.8354 26.7843 69.1922 27.4427C67.675 28.9956 66.1279 30.1458 64.3514 30.8938C62.5749 31.6418 60.671 31.9447 58.5 31.9447C55.9442 31.9447 54.1893 30.6521 52.8738 29.6832C52.8364 29.6555 52.7993 29.6282 52.7625 29.6012Z" fill="#DB5335"/>
<path fill-rule="evenodd" clip-rule="evenodd" d="M52.7625 50.955C51.3601 51.9863 50.4092 52.6296 49.0216 52.6116C47.6789 52.5943 46.7677 51.959 45.4173 50.9453C45.3861 50.9219 45.3547 50.8983 45.3231 50.8745C44.053 49.9199 42.3554 48.644 39.8549 48.6116C37.2767 48.5783 35.5099 49.8876 34.1909 50.8651C34.1576 50.8898 34.1246 50.9142 34.0918 50.9385C32.6837 51.9807 31.7367 52.6295 30.3549 52.6116C29.0122 52.5943 28.101 51.959 26.7506 50.9453C26.7195 50.9219 26.6881 50.8983 26.6564 50.8745C25.3863 49.9199 23.6887 48.644 21.1882 48.6116C19.0102 48.5835 17.0895 48.8763 15.3013 49.6293C13.5131 50.3822 11.9615 51.5513 10.4595 53.129C9.82487 53.7956 9.85081 54.8506 10.5175 55.4853C11.1842 56.12 12.2391 56.094 12.8738 55.4273C14.1475 54.0895 15.3332 53.2326 16.5949 52.7014C17.8565 52.1702 19.2981 51.9208 21.1451 51.9447C22.4878 51.962 23.399 52.5973 24.7494 53.6111C24.7805 53.6344 24.8119 53.658 24.8436 53.6818C26.1137 54.6364 27.8113 55.9123 30.3118 55.9447C32.8899 55.978 34.6568 54.6687 35.9757 53.6912C36.0091 53.6665 36.0421 53.6421 36.0748 53.6178C37.483 52.5756 38.43 51.9268 39.8118 51.9447C41.1545 51.962 42.0656 52.5973 43.4161 53.6111C43.4472 53.6344 43.4786 53.658 43.5102 53.6818C44.7803 54.6364 46.478 55.9123 48.9784 55.9447C51.5612 55.9781 53.3279 54.6777 54.6537 53.7019C54.6817 53.6812 54.7096 53.6607 54.7373 53.6404C56.1471 52.6036 57.1032 51.9448 58.5 51.9448C60.3544 51.9448 61.794 52.2023 63.0579 52.7344C64.3217 53.2666 65.5119 54.1164 66.8078 55.4429C67.4511 56.1013 68.5063 56.1136 69.1647 55.4703C69.8231 54.8271 69.8354 53.7719 69.1922 53.1134C67.675 51.5605 66.1279 50.4103 64.3514 49.6623C62.5749 48.9143 60.671 48.6115 58.5 48.6115C55.9442 48.6115 54.1893 49.9041 52.8738 50.873C52.8364 50.9006 52.7993 50.9279 52.7625 50.955Z" fill="#DB5335"/>
</svg>
