<svg width="311" height="64" viewBox="0 0 311 64" fill="none" xmlns="http://www.w3.org/2000/svg">
<g clip-path="url(#clip0)">
<path d="M309.508 4.49309L306.494 1.4859C305.665 0.672195 304.042 0 302.881 0H274.38V35.0603H302.881C304.042 35.0603 305.665 34.394 306.488 33.5743L309.502 30.5731C310.325 29.7535 310.994 28.1378 310.994 26.9762V8.08402C311 6.92832 310.325 5.3068 309.508 4.49309ZM298.328 28.7511C298.328 29.1343 298.008 29.4527 297.623 29.4527H287.757C287.373 29.4527 287.059 29.1343 287.059 28.7511V6.30919C287.059 5.92593 287.378 5.60752 287.757 5.60752H297.623C298.008 5.60752 298.328 5.92003 298.328 6.30919V28.7511Z" fill="white"/>
<path d="M265.226 0H258.185C256.633 0 255.366 1.26184 255.366 2.80671V17.312L242.072 1.04367V1.04957C241.551 0.412751 240.763 0 239.881 0H232.834C231.288 0 230.021 1.26184 230.021 2.80671V32.2535C230.021 33.7925 231.288 35.0544 232.834 35.0544H239.881C241.432 35.0544 242.699 33.7925 242.699 32.2535V10.6961L255.372 26.1979V32.2535C255.372 33.7925 256.639 35.0544 258.191 35.0544H265.231C266.783 35.0544 268.05 33.7925 268.05 32.2535V2.80671C268.044 1.26184 266.777 0 265.226 0Z" fill="white"/>
<path d="M223.738 32.2418V2.80671C223.738 1.26184 222.471 0 220.926 0H189.937C188.386 0 187.119 1.26184 187.119 2.80671V32.2535C187.119 33.7925 188.386 35.0544 189.937 35.0544H220.926C222.471 35.0544 223.738 33.7925 223.738 32.2535C223.738 32.2477 223.738 32.2477 223.738 32.2418ZM211.066 28.7511C211.066 29.1343 210.746 29.4527 210.361 29.4527H200.502C200.117 29.4527 199.797 29.1343 199.797 28.7511V6.30919C199.797 5.92593 200.117 5.60752 200.502 5.60752H210.361C210.746 5.60752 211.066 5.92003 211.066 6.30919V28.7511Z" fill="white"/>
<path d="M178.017 0H170.976C170.147 0 169.401 0.36558 168.886 0.937535L168.874 0.931638L156.883 15.5961L145.152 1.25005C144.643 0.495301 143.784 0 142.807 0H135.766C134.215 0 132.947 1.26184 132.947 2.80671V32.2535C132.947 33.7925 134.215 35.0544 135.766 35.0544H142.807C144.358 35.0544 145.626 33.7925 145.626 32.2535V10.7138L154.07 21.0503V32.2535C154.07 33.7925 155.343 35.0603 156.889 35.0603C158.44 35.0603 159.707 33.7984 159.707 32.2535V21.0267L168.158 10.6961V32.2535C168.158 33.7925 169.425 35.0544 170.976 35.0544H178.017C179.569 35.0544 180.836 33.7925 180.836 32.2535V2.80671C180.83 1.26184 179.563 0 178.017 0Z" fill="white"/>
<path d="M125.172 4.49309L122.158 1.4859C121.335 0.672195 119.712 0 118.546 0H90.0449V35.0603H118.546C119.706 35.0603 121.335 34.394 122.152 33.5743L125.166 30.5731C125.989 29.7535 126.664 28.1378 126.664 26.9762V8.08402C126.664 6.92832 125.989 5.3068 125.172 4.49309ZM113.992 28.7511C113.992 29.1343 113.678 29.4527 113.287 29.4527H103.434C103.049 29.4527 102.729 29.1343 102.729 28.7511V6.30919C102.729 5.92593 103.049 5.60752 103.434 5.60752H113.287C113.678 5.60752 113.992 5.92003 113.992 6.30919V28.7511Z" fill="white"/>
<path d="M80.8899 29.4527H59.0627C58.6718 29.4527 58.358 29.1343 58.358 28.7511V25.4549C58.358 25.0658 58.6718 24.7533 59.0627 24.7533H76.6619C76.9639 24.7533 77.2362 24.7533 77.5442 24.7533H80.884C82.4355 24.7533 83.7027 23.4914 83.7027 21.9525V2.80671C83.7027 1.26184 82.4355 0 80.884 0H48.4984C46.9469 0 45.6797 1.26184 45.6797 2.80671V32.2535V32.2594C45.6797 33.7984 46.9469 35.0603 48.4984 35.0603H80.8899C82.4414 35.0603 83.7086 33.7984 83.7086 32.2594C83.7086 30.7146 82.4414 29.4527 80.8899 29.4527ZM58.358 6.30919C58.358 5.92593 58.6718 5.60752 59.0627 5.60752H70.3257C70.7165 5.60752 71.0303 5.92003 71.0303 6.30919V18.4382C71.0303 18.8273 70.7106 19.1399 70.3257 19.1399H59.0627C58.6718 19.1399 58.358 18.8273 58.358 18.4382V6.30919Z" fill="white"/>
<path d="M39.4621 31.7995L33.7003 24.7533H36.9632C38.5146 24.7533 39.7759 23.4914 39.7759 21.9525V2.80671C39.7759 1.26184 38.5087 0 36.9632 0H3.16228C1.6108 0 0.343567 1.26184 0.343567 2.80671V32.2535C0.343567 33.7925 1.6108 35.0544 3.16228 35.0544H10.2031C11.7546 35.0544 13.0219 33.7925 13.0219 32.2535V24.7474H17.9546L26.2982 35.0544H38.562L38.7693 35.0367C40.4096 34.7242 40.7353 33.3621 39.4621 31.7995ZM27.1036 18.4382C27.1036 18.8273 26.7897 19.1399 26.3989 19.1399H13.7206C13.3357 19.1399 13.0159 18.8273 13.0159 18.4382V6.30919C13.0159 5.92593 13.3357 5.60752 13.7206 5.60752H26.3989C26.7897 5.60752 27.1036 5.92003 27.1036 6.30919V18.4382Z" fill="white"/>
<path d="M4.54192 50.1021H11.5828C14.6798 50.1021 16.326 51.3816 16.326 54.0291H14.8811C14.8811 52.5255 14.0166 51.5054 11.2808 51.5054H4.56561C1.97191 51.5054 1.45081 52.3486 1.45081 54.0291C1.45081 55.5504 2.01337 56.1518 5.02749 56.1518H11.263C14.8811 56.1518 16.4504 57.1542 16.4504 60.0788C16.4504 62.862 15.0825 64.0059 11.867 64.0059H4.66627C1.88901 64.0059 0.124355 62.7263 0.124355 60.0435H1.56924C1.56924 61.5647 2.39235 62.6084 5.15185 62.6084H11.7486C13.9218 62.6084 15.0055 61.8478 15.0055 60.0435C15.0055 58.2804 14.2831 57.5611 11.6479 57.5611H4.62482C0.864563 57.5493 0 56.3523 0 54.0291C0 51.2224 1.40936 50.1021 4.54192 50.1021Z" fill="white"/>
<path d="M32.9422 50.1021V51.5054H26.1264V64H24.6815V51.5054H17.9012V50.1021H32.9422Z" fill="white"/>
<path d="M34.5884 50.1021H46.9588V51.5054H36.0392V56.1105H46.6746V57.5139H36.0392V62.6025H46.9588V64.0059H34.5884V50.1021Z" fill="white"/>
<path d="M48.3859 64L55.6281 50.1021H57.8428L65.085 64H63.3973L61.609 60.5152H51.785L49.9966 64H48.3859ZM60.857 59.1118L56.7118 51.1044L52.5666 59.1118H60.857Z" fill="white"/>
<path d="M67.6965 64H66.2457V50.1021H67.6965V56.0516H70.0296L78.8588 50.1021H81.3933L71.5337 56.7296L81.6302 64H79.0957L70.0888 57.4549H67.6965V64Z" fill="white"/>
<path d="M86.1366 50.1021L93.213 61.9539L100.254 50.1021H103.351V64H101.906V51.2224H101.101L93.5801 64H92.834L85.3135 51.2224H84.4904V64H83.0396V50.1021H86.1366Z" fill="white"/>
<path d="M104.719 64L111.961 50.1021H114.176L121.418 64H119.73L117.942 60.5152H108.13L106.341 64H104.719ZM117.19 59.1118L113.045 51.1044L108.899 59.1118H117.19Z" fill="white"/>
<path d="M127.203 50.1021H134.244C137.341 50.1021 138.987 51.3816 138.987 54.0291H137.543C137.543 52.5255 136.678 51.5054 133.942 51.5054H127.227C124.633 51.5054 124.112 52.3486 124.112 54.0291C124.112 55.5504 124.675 56.1518 127.689 56.1518H133.924C137.543 56.1518 139.112 57.1542 139.112 60.0788C139.112 62.862 137.744 64.0059 134.528 64.0059H127.328C124.55 64.0059 122.78 62.7263 122.78 60.0435H124.231C124.231 61.5647 125.054 62.6084 127.807 62.6084H134.404C136.577 62.6084 137.661 61.8478 137.661 60.0435C137.661 58.2804 136.939 57.5611 134.303 57.5611H127.286C123.526 57.5611 122.661 56.3582 122.661 54.035C122.655 51.2224 124.065 50.1021 127.203 50.1021Z" fill="white"/>
<path d="M155.598 50.1021V51.5054H148.782V64H147.331V51.5054H140.557V50.1021H155.598Z" fill="white"/>
<path d="M157.25 50.1021H169.614V51.5054H158.695V56.1105H169.33V57.5139H158.695V62.6025H169.614V64.0059H157.25V50.1021Z" fill="white"/>
<path d="M173.617 64H172.167V50.1021H182.222C185.763 50.1021 187.089 51.7825 187.089 54.088C187.089 56.1695 186.082 56.8712 185.117 57.4313C186.023 57.6318 186.864 58.6519 186.864 60.7333V64H185.413V60.5741C185.413 58.8111 184.691 58.2686 183.222 58.2686H173.611V64H173.617ZM173.617 56.8712H182.666C184.495 56.8712 185.644 56.1105 185.644 53.8286C185.644 52.5078 184.561 51.5054 182.766 51.5054H173.617V56.8712Z" fill="white"/>
<path d="M200.206 50.1021H207.247C210.344 50.1021 211.99 51.3816 211.99 54.0291H210.539C210.539 52.5255 209.674 51.5054 206.939 51.5054H200.223C197.63 51.5054 197.109 52.3486 197.109 54.0291C197.109 55.5504 197.671 56.1518 200.685 56.1518H206.921C210.539 56.1518 212.108 57.1542 212.108 60.0788C212.108 62.862 210.74 64.0059 207.525 64.0059H200.33C197.553 64.0059 195.788 62.7263 195.788 60.0435H197.233C197.233 61.5647 198.056 62.6084 200.816 62.6084H207.412C209.586 62.6084 210.669 61.8478 210.669 60.0435C210.669 58.2804 209.947 57.5611 207.312 57.5611H200.294C196.534 57.5611 195.67 56.3582 195.67 54.035C195.664 51.2224 197.067 50.1021 200.206 50.1021Z" fill="white"/>
<path d="M215.572 59.153V60.1142C215.572 62.1543 216.757 62.797 218.326 62.797H223.034C224.644 62.797 225.349 61.9539 225.349 60.8335H226.8C226.8 62.2782 226.018 63.9999 223.282 63.9999H218.397C215.501 63.9999 214.133 62.7558 214.133 60.3146V57.7143C214.133 55.91 215.62 54.0703 218.356 54.0703H222.536C225.39 54.0703 226.8 55.7095 226.8 57.5551V59.1589H215.572V59.153ZM222.672 55.2673H218.13C216.62 55.2673 215.578 56.3287 215.578 57.9502H225.349C225.343 56.2874 224.342 55.2673 222.672 55.2673Z" fill="white"/>
<path d="M230.412 55.3673C230.471 55.2258 230.998 54.1055 233.065 54.1055H235.878C239.739 54.1055 240.1 56.8886 240.1 58.1092H238.649C238.649 57.4311 238.448 55.3083 235.736 55.3083H233.16C231.573 55.3083 230.406 56.4287 230.406 57.6315V63.9997H228.961V54.1055H230.406V55.3673H230.412Z" fill="white"/>
<path d="M244.471 50.1021V51.5408H243.019V50.1021H244.471ZM244.471 64H243.019V54.1057H244.471V64Z" fill="white"/>
<path d="M248.497 59.153V60.1142C248.497 62.1543 249.681 62.797 251.25 62.797H255.958C257.569 62.797 258.273 61.9539 258.273 60.8335H259.718C259.718 62.2782 258.937 63.9999 256.201 63.9999H251.316C248.42 63.9999 247.052 62.7558 247.052 60.3146V57.7143C247.052 55.91 248.538 54.0703 251.274 54.0703H255.455C258.309 54.0703 259.718 55.7095 259.718 57.5551V59.1589H248.497V59.153ZM255.591 55.2673H251.049C249.539 55.2673 248.497 56.3287 248.497 57.9502H258.268C258.268 56.2874 257.261 55.2673 255.591 55.2673Z" fill="white"/>
<path d="M263.135 60.8336V61.3938C263.135 62.1957 263.354 62.7971 265.451 62.7971H270.537C271.964 62.7971 272.787 62.3195 272.787 61.435V60.9928C272.787 60.1142 272.065 59.5895 270.857 59.5895H265.066C262.934 59.5895 261.684 58.8701 261.684 57.0245V56.6235C261.684 55.2615 262.768 54.0586 265.226 54.0586H269.933C273.593 54.0586 274.238 55.4207 274.238 56.4997V57.1778H272.787V56.5351C272.787 56.1754 272.586 55.2556 269.975 55.2556H264.989C263.781 55.2556 263.141 55.7332 263.141 56.6176V57.0186C263.141 57.9385 263.787 58.3807 264.989 58.3807H270.78C272.953 58.3807 274.238 59.1826 274.238 60.981V61.4232C274.238 62.7441 273.072 63.9882 270.596 63.9882H265.066C262.229 63.9882 261.684 62.7853 261.684 61.5471V60.8277H263.135V60.8336Z" fill="white"/>
<path d="M281.019 50.745L282.635 53.0505L281.457 53.9468L279.799 51.541L278.022 53.9468L276.826 53.0505L278.502 50.745L275.808 49.7485L276.305 48.3157L279.023 49.3122V46.4111H280.521V49.3122L283.239 48.3157L283.719 49.8252L281.019 50.745Z" fill="white"/>
</g>
<defs>
<clipPath id="clip0">
<rect width="311" height="64" fill="white"/>
</clipPath>
</defs>
</svg>
