<svg width="61" height="61" viewBox="0 0 61 61" fill="none" xmlns="http://www.w3.org/2000/svg">
<path d="M20.0461 20.7798V17.2568C20.0461 16.4938 20.6646 15.8752 21.4276 15.8752H22.9079" stroke="#1C1B1A" stroke-width="1.5"/>
<path d="M39.3881 40.7798L39.3881 43.8027C39.3881 44.5658 38.7696 45.1843 38.0066 45.1843L36.5263 45.1843" stroke="#1C1B1A" stroke-width="1.5"/>
<path d="M39.3881 20.7798L39.3881 17.2568C39.3881 16.4938 38.7696 15.8752 38.0066 15.8752H36.5263" stroke="#1C1B1A" stroke-width="1.5"/>
<path d="M20.0461 40.2798L20.0461 43.8027C20.0461 44.5658 20.6646 45.1843 21.4276 45.1843L22.9079 45.1843" stroke="#1C1B1A" stroke-width="1.5"/>
<circle cx="29.8158" cy="30.579" r="1.47368" stroke="#1C1B1A"/>
<path d="M36.5263 27.2239L31.3947 29.8884" stroke="#1C1B1A" stroke-width="1.2" stroke-linecap="round" stroke-linejoin="round"/>
<path d="M25.2763 27.0264L28.4342 29.5922" stroke="#1C1B1A" stroke-width="1.2" stroke-linecap="round" stroke-linejoin="round"/>
<circle cx="29.8158" cy="30.5791" r="11.0447" stroke="#1C1B1A" stroke-width="1.2"/>
<circle cx="29.8158" cy="30.5791" r="13.8158" stroke="#1C1B1A" stroke-width="1.5"/>
<path d="M43.3355 28.4082H45.0131C45.5582 28.4082 46 28.85 46 29.395V31.3687C46 31.9137 45.5582 32.3556 45.0131 32.3556H43.3355" stroke="#1C1B1A"/>
<path d="M22.9079 18.9344V10.3489C22.9079 9.58584 23.5264 8.96729 24.2895 8.96729H35.046C35.8091 8.96729 36.4276 9.58584 36.4276 10.3489V18.9344" stroke="#1C1B1A" stroke-width="1.5"/>
<path d="M36.5263 42.2798L36.5263 50.7107C36.5263 51.4737 35.9078 52.0923 35.1447 52.0923L24.3882 52.0923C23.6251 52.0923 23.0066 51.4737 23.0066 50.7107L23.0066 42.2798" stroke="#1C1B1A" stroke-width="1.5"/>
</svg>
