<svg width="133" height="22" viewBox="0 0 133 22" fill="none" xmlns="http://www.w3.org/2000/svg">
<g clip-path="url(#clip0)">
<path d="M5.22529 6.35814C5.13328 5.97457 5.15479 5.56942 5.20617 5.35726C5.33643 4.75074 5.74631 4.0735 6.94369 4.0735C8.05384 4.0735 8.7087 4.76632 8.7087 5.80316C8.7087 6.15556 8.7087 6.98144 8.7087 6.98144H13.4445V5.64494C13.4457 1.50238 9.72086 0.841919 7.03571 0.841919C3.66344 0.841919 0.907779 1.96506 0.403492 5.07557C0.266068 5.92902 0.242168 6.68057 0.441732 7.6419C1.26389 11.5363 8.01202 12.6619 8.9943 15.1263C9.17833 15.5842 9.12217 16.1727 9.03135 16.5323C8.876 17.1724 8.447 17.8185 7.17672 17.8185C5.99009 17.8185 5.28146 17.1257 5.28146 16.084L5.27429 14.2513H0.178833V15.7077C0.178833 19.9665 3.51287 21.2466 7.08112 21.2466C10.5119 21.2466 13.3285 20.0744 13.7886 16.8859C14.0169 15.2426 13.846 14.1734 13.7683 13.7682C12.9677 9.77191 5.76662 8.58884 5.22529 6.35814ZM66.9778 6.40608C66.893 6.0297 66.9181 5.63055 66.9611 5.42199C67.0973 4.81187 67.5048 4.14781 68.6819 4.14781C69.7789 4.14781 70.4218 4.83345 70.4218 5.86309C70.4218 6.2107 70.4218 7.02819 70.4218 7.02819H75.1026V5.69768C75.1026 1.59348 71.4351 0.948599 68.7787 0.948599C65.4339 0.948599 62.7021 2.05496 62.2038 5.1427C62.0723 5.98296 62.0389 6.72852 62.2492 7.68145C63.063 11.5315 69.7454 12.6487 70.7146 15.0832C70.8854 15.5446 70.8364 16.132 70.7492 16.4796C70.6034 17.1137 70.1792 17.7502 68.9197 17.7502C67.7378 17.7502 67.0268 17.0693 67.0268 16.0421L67.0256 14.2141H61.9863V15.6669C61.9863 19.8766 65.2737 21.1472 68.8145 21.1472C72.2059 21.1472 75.007 19.9845 75.4563 16.8332C75.6702 15.2054 75.5089 14.1446 75.4228 13.7455C74.6389 9.79708 67.5167 8.61041 66.9778 6.40608ZM110.094 16.7829L105.623 1.44844H98.5758V20.2961H103.238L102.967 4.47145L107.77 20.2961H114.528V1.44844H109.836L110.094 16.7829ZM20.5069 1.44844L16.99 20.4951H22.1189L24.7694 2.86405L27.3566 20.4951H32.4496L28.9471 1.44844H20.5069ZM49.1879 1.44844L46.792 16.337L44.3984 1.44844H36.6524L36.2414 20.4951H40.9867L41.1145 2.86405L44.3793 20.4951H49.1939L52.4622 2.86405L52.5913 20.4951H57.3485L56.9231 1.44844H49.1879ZM93.3107 1.44844H88.508V15.5386C88.5152 15.7844 88.508 16.0601 88.4662 16.2626C88.3658 16.7361 87.9667 17.6459 86.6414 17.6459C85.3341 17.6459 84.923 16.7361 84.831 16.2626C84.7832 16.0601 84.7772 15.7844 84.7832 15.5386V1.44844H79.9829V15.1011C79.977 15.4535 80.0044 16.1715 80.0247 16.3597C80.3558 19.9173 83.1508 21.0728 86.6414 21.0728C90.1392 21.0728 92.9319 19.9173 93.2701 16.3597C93.2963 16.1715 93.331 15.4523 93.3107 15.1011V1.44844ZM126.284 9.80427V12.5816H128.231V15.3373C128.237 15.583 128.224 15.8491 128.181 16.0613C128.103 16.5755 127.617 17.4505 126.235 17.4505C124.862 17.4505 124.384 16.5755 124.3 16.0613C124.266 15.8491 124.25 15.583 124.25 15.3373V6.63263C124.25 6.32457 124.271 5.98775 124.336 5.73244C124.431 5.26856 124.841 4.35398 126.224 4.35398C127.676 4.35398 128.04 5.3189 128.122 5.73244C128.177 6.00693 128.179 6.46721 128.179 6.46721V7.52443H132.962V6.89993C132.962 6.89993 132.983 6.24786 132.926 5.63894C132.566 2.06575 129.631 0.935414 126.266 0.935414C122.895 0.935414 120.02 2.07654 119.601 5.63894C119.562 5.96498 119.505 6.55112 119.505 6.89993V14.907C119.505 15.2558 119.516 15.5255 119.58 16.1631C119.892 19.6381 122.894 20.8691 126.252 20.8691C129.63 20.8691 132.612 19.6381 132.93 16.1631C132.986 15.5255 132.992 15.2558 132.999 14.907V9.80427H126.284Z" fill="#1C1B1A"/>
</g>
<defs>
<clipPath id="clip0">
<rect width="132.821" height="20.4059" fill="white" transform="translate(0.178833 0.841919)"/>
</clipPath>
</defs>
</svg>
