<svg width="61" height="61" viewBox="0 0 61 61" fill="none" xmlns="http://www.w3.org/2000/svg">
<rect x="12.25" y="9.02979" width="36.8631" height="43.2905" rx="4.0705" stroke="#1C1B1A" stroke-width="1.5"/>
<rect x="34.3948" y="11.8926" width="9.24442" height="4.22306" rx="1.40854" stroke="#1C1B1A" stroke-width="1.2"/>
<rect x="12.1" y="19.525" width="37.1631" height="28.3256" stroke="#1C1B1A" stroke-width="1.2"/>
<circle cx="30.782" cy="33.5874" r="11.4513" stroke="#1C1B1A" stroke-width="1.2"/>
<circle cx="30.782" cy="33.5874" r="8.03673" stroke="#1C1B1A" stroke-width="1.2"/>
<path d="M23 34.7798L23.4081 34.3627C24.1504 33.6042 25.3691 33.5976 26.1195 34.3481V34.3481C26.8642 35.0928 28.0716 35.0928 28.8164 34.3481L29.0245 34.1399C29.8842 33.2802 31.2781 33.2802 32.1378 34.1399L32.3386 34.3407C33.0874 35.0895 34.3014 35.0895 35.0502 34.3407V34.3407C35.7989 33.592 37.0129 33.592 37.7617 34.3407L38.6153 35.1944" stroke="#1C1B1A" stroke-width="1.2"/>
<circle cx="18.6304" cy="14.0041" r="2.11153" stroke="#1C1B1A" stroke-width="1.2"/>
<circle cx="26.2628" cy="14.0041" r="2.11153" stroke="#1C1B1A" stroke-width="1.2"/>
</svg>
