<svg width="27" height="27" viewBox="0 0 27 27" fill="none" xmlns="http://www.w3.org/2000/svg">
<path fill-rule="evenodd" clip-rule="evenodd" d="M18.6782 0H8.32175C3.72346 0 0 3.72342 0 8.32167V18.6783C0 23.2766 3.72346 27 8.32175 27H18.6782C23.2765 27 27 23.2766 27 18.6783V8.32167C26.9798 3.72342 23.2563 0 18.6782 0ZM24.3958 17.7016C24.3958 21.4047 21.3843 24.416 17.6813 24.416H9.31889C5.61566 24.416 2.60447 21.4047 2.60447 17.7016V9.33916C2.60447 5.63599 5.61566 2.62471 9.31889 2.62471H17.6813C21.3843 2.62471 24.3958 5.63599 24.3958 9.33916V17.7016Z" fill="black"/>
<path d="M15.382 7.83161H17V5.00016H14.563C14.563 5.00016 13.035 4.95574 12.0662 6.36592C12.0662 6.36592 11.407 7.06545 11.397 9.09744V11.2183H9V14.2274H11.397V22H14.1635V14.2274H16.5506L16.8801 11.2183H14.1635V9.09744C14.1735 8.85316 14.2734 7.8094 15.382 7.83161Z" fill="black"/>
</svg>
