<svg width="27" height="27" viewBox="0 0 27 27" fill="none" xmlns="http://www.w3.org/2000/svg">
<path fill-rule="evenodd" clip-rule="evenodd" d="M18.6782 0H8.32175C3.72346 0 0 3.72342 0 8.32167V18.6783C0 23.2766 3.72346 27 8.32175 27H18.6782C23.2765 27 27 23.2766 27 18.6783V8.32167C26.9798 3.72342 23.2563 0 18.6782 0ZM24.3958 17.7016C24.3958 21.4047 21.3843 24.416 17.6813 24.416H9.31889C5.61566 24.416 2.60447 21.4047 2.60447 17.7016V9.33916C2.60447 5.63599 5.61566 2.62471 9.31889 2.62471H17.6813C21.3843 2.62471 24.3958 5.63599 24.3958 9.33916V17.7016ZM13.8558 6.4496C9.92885 6.4496 6.73442 9.62379 6.73442 13.5506C6.73442 17.4774 9.90839 20.6516 13.8558 20.6516C17.7827 20.6516 20.9567 17.4572 20.9567 13.5506C20.9567 9.62379 17.7827 6.4496 13.8558 6.4496ZM13.8558 17.8233C11.4955 17.8233 9.58306 15.9107 9.58306 13.5506C9.58306 11.1903 11.4955 9.27772 13.8558 9.27772C16.2159 9.27772 18.1285 11.1903 18.1285 13.5506C18.1285 15.9107 16.2159 17.8233 13.8558 17.8233ZM20.4686 8.13804C21.4657 8.13804 22.2794 7.32419 22.2794 6.32718C22.2794 5.33017 21.4657 4.51632 20.4686 4.51632C19.4717 4.51632 18.6578 5.33017 18.6578 6.32718C18.6578 7.32419 19.4717 8.13804 20.4686 8.13804Z" fill="black"/>
</svg>
